<?xml version="1.0" encoding="UTF-8" standalone="no"?>
<!-- Created with Inkscape (http://www.inkscape.org/) -->

<svg
   width="30.48mm"
   height="128.5mm"
   viewBox="0 0 30.479999 128.5"
   version="1.1"
   id="svg8"
   inkscape:version="1.1.1 (3bf5ae0d25, 2021-09-20)"
   sodipodi:docname="DDLY.svg"
   xmlns:inkscape="http://www.inkscape.org/namespaces/inkscape"
   xmlns:sodipodi="http://sodipodi.sourceforge.net/DTD/sodipodi-0.dtd"
   xmlns="http://www.w3.org/2000/svg"
   xmlns:svg="http://www.w3.org/2000/svg"
   xmlns:rdf="http://www.w3.org/1999/02/22-rdf-syntax-ns#"
   xmlns:cc="http://creativecommons.org/ns#"
   xmlns:dc="http://purl.org/dc/elements/1.1/">
  <defs
     id="defs2" />
  <sodipodi:namedview
     id="base"
     pagecolor="#ffffff"
     bordercolor="#666666"
     borderopacity="1.0"
     inkscape:pageopacity="0.0"
     inkscape:pageshadow="2"
     inkscape:zoom="1.7960512"
     inkscape:cx="-17.538476"
     inkscape:cy="130.56421"
     inkscape:document-units="mm"
     inkscape:current-layer="layer1"
     showgrid="true"
     inkscape:snap-global="false"
     inkscape:window-width="1366"
     inkscape:window-height="750"
     inkscape:window-x="0"
     inkscape:window-y="18"
     inkscape:window-maximized="1"
     inkscape:snap-object-midpoints="true"
     inkscape:snap-others="true"
     inkscape:snap-bbox="true"
     inkscape:snap-bbox-midpoints="true"
     inkscape:pagecheckerboard="0">
    <inkscape:grid
       type="xygrid"
       id="grid10"
       units="mm"
       spacingx="5.0800001"
       spacingy="5.0800001"
       originx="2.7755576e-17"
       originy="1.4"
       dotted="false"
       empspacing="4" />
  </sodipodi:namedview>
  <metadata
     id="metadata5">
    <rdf:RDF>
      <cc:Work
         rdf:about="">
        <dc:format>image/svg+xml</dc:format>
        <dc:type
           rdf:resource="http://purl.org/dc/dcmitype/StillImage" />
      </cc:Work>
    </rdf:RDF>
  </metadata>
  <g
     inkscape:label="Layer 1"
     inkscape:groupmode="layer"
     id="layer1"
     transform="translate(0,-168.5)"
     style="display:inline">
    <rect
       style="fill:#ececec;fill-rule:evenodd;stroke-width:0.26256"
       id="rect121"
       width="30.449783"
       height="128.44557"
       x="0.012003265"
       y="168.52054" />
    <text
       xml:space="preserve"
       style="font-style:normal;font-variant:normal;font-weight:normal;font-stretch:normal;font-size:5.64444px;line-height:1.25;font-family:'alarm clock';-inkscape-font-specification:'alarm clock';letter-spacing:0px;word-spacing:0px;fill:#000000;fill-opacity:1;stroke:none;stroke-width:0.264583"
       x="-66.469711"
       y="158.17523"
       id="text3721" />
    <text
       xml:space="preserve"
       style="font-style:normal;font-variant:normal;font-weight:normal;font-stretch:normal;font-size:5.64444px;line-height:1.25;font-family:'alarm clock';-inkscape-font-specification:'alarm clock';letter-spacing:0px;word-spacing:0px;fill:#000000;fill-opacity:1;stroke:none;stroke-width:0.264583"
       x="-90.703468"
       y="188.98671"
       id="text3725" />
    <text
       xml:space="preserve"
       style="font-style:normal;font-variant:normal;font-weight:normal;font-stretch:normal;font-size:5.64444px;line-height:1.25;font-family:LCD2;-inkscape-font-specification:LCD2;letter-spacing:0px;word-spacing:0px;fill:#000000;fill-opacity:1;stroke:none;stroke-width:0.264583"
       x="-90.357269"
       y="179.29321"
       id="text3729" />
    <g
       aria-label="kocmoc"
       style="font-style:normal;font-variant:normal;font-weight:normal;font-stretch:normal;font-size:5.64444px;line-height:1.25;font-family:LCD2;-inkscape-font-specification:LCD2;letter-spacing:0px;word-spacing:0px;fill:#000000;fill-opacity:1;stroke:none;stroke-width:0.264583"
       id="text3737"
       transform="translate(-5.1,-4.00001)">
      <path
         d="m 14.992489,290.64292 -1.241777,1.81187 h -0.208845 l -0.141111,-0.16933 1.399822,-2.032 h 0.248356 z m -2.263422,1.5748 -0.265289,0.23707 h -0.186266 l 0.276577,-1.9812 0.242711,-0.20884 0.180623,0.20884 z m 0.699911,0.29351 -0.242711,0.20885 h -0.445911 l -0.186267,-0.20885 0.242711,-0.20884 h 0.451556 z m 0.987778,2.25778 H 14.1684 l -0.829733,-2.032 0.186267,-0.16933 h 0.208844 l 0.733778,1.81187 z m -2.015067,-0.22013 -0.237066,0.20884 -0.180623,-0.20884 0.276578,-1.9812 h 0.186267 l 0.2032,0.23707 z"
         style="stroke-width:0.264583"
         id="path3897"
         inkscape:connector-curvature="0" />
      <path
         d="m 15.319861,294.26666 -0.242711,0.20884 -0.180623,-0.20884 0.237067,-1.69898 h 0.186267 l 0.2032,0.23707 z m 0.282222,-2.04894 -0.265289,0.23707 h -0.186267 l 0.237067,-1.69898 0.242711,-0.20884 0.180622,0.20884 z m 2.026356,-1.75542 -0.242712,0.21449 h -1.478844 l -0.180622,-0.21449 0.237066,-0.20884 h 1.478845 z m 0.01129,1.99249 h -0.186266 l -0.2032,-0.23707 0.208844,-1.46191 0.237067,-0.20884 0.180622,0.20884 z m -0.254,1.81187 -0.242711,0.20884 -0.180622,-0.20884 0.208845,-1.46191 0.265288,-0.23707 h 0.186267 z m -0.333022,0.29351 -0.242711,0.20884 H 15.33115 l -0.180623,-0.20884 0.237067,-0.21449 h 1.484489 z"
         style="stroke-width:0.264583"
         id="path3899"
         inkscape:connector-curvature="0" />
      <path
         d="m 20.749816,290.98723 -0.242711,0.21449 -0.180622,-0.21449 0.03387,-0.23142 0.237067,-0.20884 0.180622,0.20884 z m -0.220133,-0.52493 -0.242711,0.21449 h -1.478845 l -0.180622,-0.21449 0.237067,-0.20884 h 1.478844 z m -2.026356,1.75542 -0.265289,0.23707 h -0.186266 l 0.237066,-1.69898 0.242711,-0.20884 0.180623,0.20884 z m -0.282222,2.04894 -0.242711,0.20884 -0.180622,-0.20884 0.237066,-1.69898 h 0.186267 l 0.2032,0.23707 z m 1.732844,0.29351 -0.242711,0.20884 h -1.478844 l -0.180622,-0.20884 0.237066,-0.21449 h 1.484489 z m 0.333023,-0.29351 -0.242712,0.20884 -0.180622,-0.20884 0.03387,-0.23143 0.242711,-0.21448 0.180622,0.21448 z"
         style="stroke-width:0.264583"
         id="path3901"
         inkscape:connector-curvature="0" />
      <path
         d="m 23.453505,292.44915 h -0.186267 l -0.2032,-0.23143 0.248356,-1.75542 0.242711,-0.20884 0.180622,0.20884 z m -0.417689,-0.86925 -0.598311,0.87489 h -0.174978 l 0.06773,-0.48542 0.8128,-1.21356 h 0.01129 z m -0.891822,0.87489 h -0.174978 l -0.3556,-0.87489 0.112889,-0.82409 h 0.01129 l 0.474133,1.21356 z m -0.733778,-0.23707 -0.270933,0.23143 h -0.186267 l 0.282222,-1.98685 0.237067,-0.20884 0.186267,0.20884 z m 1.749778,2.34245 -0.242711,0.20884 -0.180622,-0.20884 0.248355,-1.75542 0.265289,-0.23143 h 0.186267 z m -2.077156,0 -0.242711,0.20884 -0.180622,-0.20884 0.276578,-1.98685 h 0.186267 l 0.2032,0.23143 z"
         style="stroke-width:0.264583"
         id="path3903"
         inkscape:connector-curvature="0" />
      <path
         d="m 24.040517,294.26666 -0.242711,0.20884 -0.180623,-0.20884 0.237067,-1.69898 h 0.186267 l 0.2032,0.23707 z m 0.282222,-2.04894 -0.265289,0.23707 h -0.186267 l 0.237067,-1.69898 0.242711,-0.20884 0.180622,0.20884 z m 2.026355,-1.75542 -0.242711,0.21449 h -1.478844 l -0.180622,-0.21449 0.237066,-0.20884 h 1.478845 z m 0.01129,1.99249 h -0.186266 l -0.2032,-0.23707 0.208844,-1.46191 0.237067,-0.20884 0.180622,0.20884 z m -0.254,1.81187 -0.242711,0.20884 -0.180622,-0.20884 0.208844,-1.46191 0.265289,-0.23707 h 0.186267 z m -0.333022,0.29351 -0.242711,0.20884 h -1.478844 l -0.180623,-0.20884 0.237067,-0.21449 h 1.484489 z"
         style="stroke-width:0.264583"
         id="path3905"
         inkscape:connector-curvature="0" />
      <path
         d="m 29.470473,290.98723 -0.242711,0.21449 -0.180622,-0.21449 0.03387,-0.23142 0.237067,-0.20884 0.180622,0.20884 z m -0.220133,-0.52493 -0.242712,0.21449 h -1.478844 l -0.180622,-0.21449 0.237066,-0.20884 h 1.478845 z m -2.026356,1.75542 -0.265289,0.23707 h -0.186267 l 0.237067,-1.69898 0.242711,-0.20884 0.180622,0.20884 z m -0.282222,2.04894 -0.242711,0.20884 -0.180623,-0.20884 0.237067,-1.69898 h 0.186267 l 0.2032,0.23707 z m 1.732844,0.29351 -0.242711,0.20884 h -1.478844 l -0.180623,-0.20884 0.237067,-0.21449 h 1.484489 z m 0.333022,-0.29351 -0.242711,0.20884 -0.180622,-0.20884 0.03387,-0.23143 0.242711,-0.21448 0.180622,0.21448 z"
         style="stroke-width:0.264583"
         id="path3907"
         inkscape:connector-curvature="0" />
    </g>
    <g
       aria-label="IN"
       style="font-style:normal;font-variant:normal;font-weight:normal;font-stretch:normal;font-size:2.82222px;line-height:1.25;font-family:Ubuntu;-inkscape-font-specification:Ubuntu;letter-spacing:0px;word-spacing:0px;fill:#000000;fill-opacity:1;stroke:none;stroke-width:0.264583"
       id="text3967"
       transform="translate(-1.2003763,2.99996)">
      <path
         d="m 9.0793763,276.96791 h 0.2737555 v 1.9558 H 9.0793763 Z"
         style="stroke-width:0.264583"
         id="path3980"
         inkscape:connector-curvature="0" />
      <path
         d="m 11.179107,278.92371 q -0.06209,-0.10443 -0.143933,-0.23425 -0.07902,-0.12982 -0.172156,-0.26811 -0.09313,-0.14111 -0.194733,-0.28504 -0.09878,-0.14394 -0.197556,-0.27658 -0.09878,-0.13547 -0.191911,-0.254 -0.09313,-0.11854 -0.172155,-0.20885 v 1.52683 H 9.8385515 v -1.9558 h 0.2173115 q 0.132644,0.14111 0.282222,0.3302 0.1524,0.18626 0.299155,0.38664 0.149578,0.19756 0.2794,0.38947 0.132645,0.19191 0.222956,0.34149 v -1.4478 h 0.268111 v 1.9558 z"
         style="stroke-width:0.264583"
         id="path3982"
         inkscape:connector-curvature="0" />
    </g>
    <rect
       style="fill:#cccccc;fill-rule:evenodd;stroke-width:0.331517"
       id="rect70102"
       width="13.207561"
       height="36.582729"
       x="15.045665"
       y="248.26062"
       ry="2.8023329" />
    <rect
       style="fill:#000000;fill-rule:evenodd;stroke-width:0.225035"
       id="rect113"
       width="9.6695967"
       height="15.153036"
       x="16.765768"
       y="268.38309"
       rx="1.8990544" />
    <g
       aria-label="OUT"
       style="font-style:normal;font-variant:normal;font-weight:normal;font-stretch:normal;font-size:2.82222px;line-height:1.25;font-family:Ubuntu;-inkscape-font-specification:Ubuntu;letter-spacing:0px;word-spacing:0px;fill:#ffffff;fill-opacity:1;stroke:none;stroke-width:0.264583"
       id="text117"
       transform="translate(-2.399574)">
      <path
         d="m 21.316,280.90234 q 0,-0.25118 0.07338,-0.44309 0.0762,-0.19191 0.2032,-0.31891 0.129822,-0.12982 0.299156,-0.19473 0.172155,-0.0649 0.364066,-0.0649 0.189089,0 0.3556,0.0649 0.169334,0.0649 0.296334,0.19473 0.127,0.127 0.200377,0.31891 0.0762,0.19191 0.0762,0.44309 0,0.25118 -0.0762,0.44309 -0.07338,0.19191 -0.200377,0.32173 -0.127,0.127 -0.296334,0.19192 -0.166511,0.0649 -0.3556,0.0649 -0.191911,0 -0.364066,-0.0649 -0.169334,-0.0649 -0.299156,-0.19192 -0.127,-0.12982 -0.2032,-0.32173 -0.07338,-0.19191 -0.07338,-0.44309 z m 0.287867,0 q 0,0.1778 0.04515,0.32456 0.04516,0.14393 0.127,0.24553 0.08467,0.1016 0.2032,0.15805 0.121356,0.0536 0.270934,0.0536 0.149578,0 0.268111,-0.0536 0.118533,-0.0564 0.200378,-0.15805 0.08467,-0.1016 0.129822,-0.24553 0.04516,-0.14676 0.04516,-0.32456 0,-0.1778 -0.04516,-0.32173 -0.04516,-0.14676 -0.129822,-0.24836 -0.08184,-0.1016 -0.200378,-0.15522 -0.118533,-0.0564 -0.268111,-0.0564 -0.149578,0 -0.270934,0.0564 -0.118533,0.0536 -0.2032,0.15522 -0.08184,0.1016 -0.127,0.24836 -0.04515,0.14393 -0.04515,0.32173 z"
         style="fill:#ffffff;stroke-width:0.264583"
         id="path88"
         inkscape:connector-curvature="0" />
      <path
         d="m 24.318844,281.92399 q -0.191911,0 -0.333022,-0.0593 -0.141111,-0.0593 -0.231422,-0.16087 -0.09031,-0.10442 -0.135467,-0.24553 -0.04233,-0.14111 -0.04233,-0.3048 v -1.22767 h 0.273755 v 1.19663 q 0,0.29351 0.129823,0.42615 0.129822,0.13265 0.338666,0.13265 0.104422,0 0.189089,-0.031 0.08749,-0.0339 0.149578,-0.1016 0.06209,-0.0677 0.09596,-0.17215 0.03387,-0.10725 0.03387,-0.254 v -1.19663 H 25.0611 v 1.22767 q 0,0.16369 -0.04516,0.3048 -0.04233,0.14111 -0.135467,0.24553 -0.09031,0.1016 -0.231422,0.16087 -0.138289,0.0593 -0.3302,0.0593 z"
         style="fill:#ffffff;stroke-width:0.264583"
         id="path90"
         inkscape:connector-curvature="0" />
      <path
         d="m 26.839088,279.92585 v 0.23707 h -0.615244 v 1.71873 h -0.273756 v -1.71873 h -0.615244 v -0.23707 z"
         style="fill:#ffffff;stroke-width:0.264583"
         id="path92"
         inkscape:connector-curvature="0" />
    </g>
    <rect
       style="display:inline;fill:#cccccc;fill-rule:evenodd;stroke-width:0.165901"
       id="rect72804-5"
       width="10.96897"
       height="22.966661"
       x="1.9962544"
       y="206.48801"
       ry="2.3398108" />
    <g
       aria-label="-"
       style="font-style:normal;font-variant:normal;font-weight:normal;font-stretch:normal;font-size:2.82222px;line-height:1.25;font-family:Ubuntu;-inkscape-font-specification:Ubuntu;letter-spacing:0px;word-spacing:0px;fill:#000000;fill-opacity:1;stroke:none;stroke-width:0.264583"
       id="text128"
       transform="translate(62.000163,-8.87492)">
      <path
         d="m -57.978163,217.58958 h 0.697089 v 0.24553 h -0.697089 z"
         style="stroke-width:0.264583"
         id="path137"
         inkscape:connector-curvature="0" />
    </g>
    <g
       aria-label="+"
       style="font-style:normal;font-variant:normal;font-weight:normal;font-stretch:normal;font-size:2.82222px;line-height:1.25;font-family:Ubuntu;-inkscape-font-specification:Ubuntu;letter-spacing:0px;word-spacing:0px;fill:#000000;fill-opacity:1;stroke:none;stroke-width:0.264583"
       id="text132"
       transform="translate(56.600249,-12.80081)">
      <path
         d="m -46.874249,221.55419 h 0.5334 v -0.58138 h 0.225778 v 0.58138 h 0.5334 v 0.22296 h -0.5334 v 0.5842 h -0.225778 v -0.5842 h -0.5334 z"
         style="stroke-width:0.264583"
         id="path134"
         inkscape:connector-curvature="0" />
    </g>
    <rect
       style="fill:#cccccc;fill-rule:evenodd;stroke-width:0.165901"
       id="rect72804"
       width="10.96897"
       height="22.966661"
       x="1.9962544"
       y="181.48773"
       ry="2.3398108" />
    <g
       transform="translate(62.000163,-33.87492)"
       id="g144"
       style="font-style:normal;font-variant:normal;font-weight:normal;font-stretch:normal;font-size:2.82222px;line-height:1.25;font-family:Ubuntu;-inkscape-font-specification:Ubuntu;letter-spacing:0px;word-spacing:0px;fill:#000000;fill-opacity:1;stroke:none;stroke-width:0.264583"
       aria-label="-">
      <path
         inkscape:connector-curvature="0"
         id="path142"
         style="stroke-width:0.264583"
         d="m -57.978163,217.58958 h 0.697089 v 0.24553 h -0.697089 z" />
    </g>
    <g
       transform="translate(56.600249,-37.80081)"
       id="g148"
       style="font-style:normal;font-variant:normal;font-weight:normal;font-stretch:normal;font-size:2.82222px;line-height:1.25;font-family:Ubuntu;-inkscape-font-specification:Ubuntu;letter-spacing:0px;word-spacing:0px;fill:#000000;fill-opacity:1;stroke:none;stroke-width:0.264583"
       aria-label="+">
      <path
         inkscape:connector-curvature="0"
         id="path146"
         style="stroke-width:0.264583"
         d="m -46.874249,221.55419 h 0.5334 v -0.58138 h 0.225778 v 0.58138 h 0.5334 v 0.22296 h -0.5334 v 0.5842 h -0.225778 v -0.5842 h -0.5334 z" />
    </g>
    <text
       xml:space="preserve"
       style="font-style:normal;font-variant:normal;font-weight:normal;font-stretch:normal;font-size:5.64444px;line-height:1.25;font-family:LCD2;-inkscape-font-specification:LCD2;letter-spacing:0px;word-spacing:0px;fill:#000000;fill-opacity:1;stroke:none;stroke-width:0.264583"
       x="-63.958332"
       y="178.66667"
       id="text255" />
    <text
       xml:space="preserve"
       style="font-style:normal;font-variant:normal;font-weight:normal;font-stretch:normal;font-size:2.82222px;line-height:1.25;font-family:Ubuntu;-inkscape-font-specification:Ubuntu;letter-spacing:0px;word-spacing:0px;fill:#000000;fill-opacity:1;stroke:none;stroke-width:0.264583"
       x="-69.166664"
       y="254.29167"
       id="text270" />
    <text
       xml:space="preserve"
       style="font-style:normal;font-variant:normal;font-weight:normal;font-stretch:normal;font-size:2.82222px;line-height:1.25;font-family:Ubuntu;-inkscape-font-specification:Ubuntu;letter-spacing:0px;word-spacing:0px;fill:#000000;fill-opacity:1;stroke:none;stroke-width:0.264583"
       x="-42.083332"
       y="242.625"
       id="text274" />
    <g
       aria-label="DDLY"
       id="text3475"
       style="font-size:5.64444px;line-height:1.25;font-family:LCD2;-inkscape-font-specification:LCD2;letter-spacing:0px;word-spacing:0px;stroke-width:0.264583"
       transform="translate(85.725048,-2.74611)">
      <path
         d="m -76.006818,180.90231 -0.485422,0.41769 0.299155,-2.11667 h 0.186267 l 0.2032,0.23707 z m 0.282222,-2.04893 -0.265289,0.23706 h -0.186267 l 0.299156,-2.11666 0.361244,0.41769 z m 2.031998,-1.75542 -0.242711,0.21448 h -1.484488 l -0.361244,-0.42333 h 1.907821 z m 0.01129,1.99248 h -0.186267 l -0.197555,-0.23706 0.2032,-1.46191 0.237066,-0.20885 0.186267,0.20885 z m -0.254,1.81187 -0.237066,0.20884 -0.180622,-0.20884 0.203199,-1.46191 0.265289,-0.23707 h 0.186267 z m -0.333022,0.29351 -0.242711,0.20884 h -1.90782 l 0.479777,-0.42333 h 1.490132 z"
         id="path6443" />
      <path
         d="m -73.099935,180.90231 -0.485422,0.41769 0.299155,-2.11667 h 0.186267 l 0.2032,0.23707 z m 0.282222,-2.04893 -0.265289,0.23706 h -0.186266 l 0.299155,-2.11666 0.361244,0.41769 z m 2.031998,-1.75542 -0.242711,0.21448 h -1.484487 l -0.361244,-0.42333 h 1.90782 z m 0.01129,1.99248 h -0.186266 l -0.197556,-0.23706 0.2032,-1.46191 0.237067,-0.20885 0.186266,0.20885 z m -0.254,1.81187 -0.237066,0.20884 -0.180622,-0.20884 0.2032,-1.46191 0.265288,-0.23707 h 0.186267 z m -0.333022,0.29351 -0.24271,0.20884 h -1.907821 l 0.479777,-0.42333 h 1.490132 z"
         id="path6445" />
      <path
         d="m -69.905185,178.85338 -0.270934,0.23706 h -0.186266 l 0.276578,-1.9812 0.24271,-0.20884 0.180623,0.20884 z m -0.287867,2.04893 -0.242711,0.20884 -0.180622,-0.20884 0.237067,-1.69898 h 0.186266 l 0.2032,0.23707 z m 1.732843,0.29351 -0.242711,0.20884 h -1.478843 l -0.180622,-0.20884 0.237066,-0.21449 h 1.484488 z"
         id="path6447" />
      <path
         d="m -67.297455,178.85338 -0.24271,0.20884 -0.180623,-0.20884 0.242711,-1.74414 0.242711,-0.20884 0.180622,0.20884 z m 1.732844,0.29351 -0.242711,0.20884 h -1.484488 l -0.180622,-0.20884 0.237066,-0.20885 h 1.490133 z m 0.333022,-0.29351 -0.237067,0.20884 -0.180622,-0.20884 0.242711,-1.74414 0.237066,-0.20884 0.180622,0.20884 z m -0.287867,2.04893 -0.237066,0.20884 -0.180622,-0.20884 0.203199,-1.46191 0.237067,-0.20885 0.180622,0.20885 z m -0.333022,0.29351 -0.242711,0.20884 h -1.732843 l -0.180622,-0.20884 0.237066,-0.21449 h 1.738488 z"
         id="path6449" />
    </g>
    <text
       xml:space="preserve"
       style="font-style:normal;font-variant:normal;font-weight:normal;font-stretch:normal;font-size:5.64444px;line-height:1.25;font-family:LCD2;-inkscape-font-specification:LCD2;letter-spacing:0px;word-spacing:0px;fill:#000000;fill-opacity:1;stroke:none;stroke-width:0.264583"
       x="-56.636307"
       y="187.27892"
       id="text5151"><tspan
         sodipodi:role="line"
         id="tspan5149"
         style="stroke-width:0.264583"
         x="-56.636307"
         y="187.27892" /></text>
    <g
       aria-label="TIME"
       id="text16004"
       style="font-size:2.82222px;line-height:1.25;font-family:Ubuntu;-inkscape-font-specification:Ubuntu;letter-spacing:0px;word-spacing:0px;stroke-width:0.264583"
       transform="translate(64.208379,-15.23309)">
      <path
         d="m -44.644136,216.37809 v 0.23707 h -0.615244 v 1.71873 h -0.273755 v -1.71873 h -0.615244 v -0.23707 z"
         id="path24272" />
      <path
         d="m -44.356273,216.37809 h 0.273755 v 1.9558 h -0.273755 z"
         id="path24274" />
      <path
         d="m -42.719388,218.06296 q -0.02822,-0.0677 -0.0762,-0.17216 -0.04516,-0.10442 -0.09878,-0.22577 -0.05362,-0.12136 -0.115711,-0.24836 -0.05927,-0.12982 -0.112889,-0.24271 -0.05362,-0.11571 -0.1016,-0.20602 -0.04515,-0.0903 -0.07338,-0.13829 -0.03105,0.33302 -0.0508,0.72249 -0.01976,0.38664 -0.03387,0.78175 h -0.268111 q 0.01129,-0.254 0.0254,-0.51082 0.01411,-0.25964 0.03104,-0.508 0.01976,-0.25118 0.03951,-0.48824 0.02258,-0.23707 0.04798,-0.44874 h 0.239889 q 0.0762,0.12418 0.163689,0.29352 0.08749,0.16933 0.174977,0.35559 0.08749,0.18345 0.169334,0.36972 0.08184,0.18344 0.149577,0.33584 0.06773,-0.1524 0.149578,-0.33584 0.08184,-0.18627 0.169333,-0.36972 0.08749,-0.18626 0.174978,-0.35559 0.08749,-0.16934 0.163689,-0.29352 h 0.239888 q 0.09596,0.94545 0.143934,1.9558 h -0.268111 q -0.01411,-0.39511 -0.03387,-0.78175 -0.01976,-0.38947 -0.0508,-0.72249 -0.02822,0.048 -0.0762,0.13829 -0.04516,0.0903 -0.09878,0.20602 -0.05362,0.11289 -0.115711,0.24271 -0.05927,0.127 -0.112888,0.24836 -0.05362,0.12135 -0.1016,0.22577 -0.04516,0.10443 -0.07338,0.17216 z"
         id="path24276" />
      <path
         d="m -41.13895,218.33389 v -1.9558 h 1.1938 v 0.23425 h -0.920044 v 0.58138 h 0.818444 v 0.2286 h -0.818444 v 0.67733 h 0.990599 v 0.23424 z"
         id="path24278" />
    </g>
    <g
       aria-label="FB"
       id="text20562"
       style="font-size:2.82222px;line-height:1.25;font-family:Ubuntu;-inkscape-font-specification:Ubuntu;letter-spacing:0px;word-spacing:0px;stroke-width:0.264583"
       transform="translate(69.197313,-4.19392)">
      <path
         d="m -49.171313,232.49191 v -1.9558 h 1.179688 v 0.23425 h -0.905933 v 0.58984 h 0.804333 v 0.23142 h -0.804333 v 0.90029 z"
         id="path24299" />
      <path
         d="m -47.12803,232.50885 q -0.05927,0 -0.129822,-0.003 -0.06773,-0.003 -0.138288,-0.008 -0.06773,-0.006 -0.135467,-0.0141 -0.06773,-0.008 -0.124178,-0.0226 v -1.89653 q 0.05645,-0.0141 0.124178,-0.0226 0.06773,-0.008 0.135467,-0.0141 0.07056,-0.006 0.138288,-0.008 0.06773,-0.003 0.127,-0.003 0.169333,0 0.316089,0.0254 0.149578,0.0254 0.256822,0.0875 0.110066,0.0593 0.172155,0.15804 0.06209,0.0988 0.06209,0.24271 0,0.16087 -0.0762,0.26529 -0.0762,0.1016 -0.2032,0.1524 0.172156,0.0508 0.273756,0.16087 0.1016,0.11006 0.1016,0.31044 0,0.29351 -0.217311,0.44309 -0.214489,0.14676 -0.682978,0.14676 z m -0.256822,-0.92851 v 0.68862 q 0.03104,0.003 0.07338,0.006 0.03669,0.003 0.08467,0.006 0.0508,0 0.115711,0 0.121355,0 0.2286,-0.0141 0.110066,-0.0169 0.191911,-0.0565 0.08184,-0.0395 0.129822,-0.11007 0.0508,-0.0705 0.0508,-0.1778 0,-0.0959 -0.03669,-0.16086 -0.03669,-0.0677 -0.107245,-0.10725 -0.06773,-0.0395 -0.163688,-0.0564 -0.09596,-0.0169 -0.214489,-0.0169 z m 0,-0.22014 h 0.287867 q 0.1016,0 0.191911,-0.0141 0.09031,-0.0141 0.155222,-0.0508 0.06773,-0.0367 0.104422,-0.0959 0.03951,-0.0593 0.03951,-0.14958 0,-0.0847 -0.03951,-0.14111 -0.03951,-0.0593 -0.110067,-0.0931 -0.06773,-0.0367 -0.160866,-0.0536 -0.09313,-0.0169 -0.197555,-0.0169 -0.104423,0 -0.163689,0.003 -0.05927,0.003 -0.107245,0.008 z"
         id="path24301" />
    </g>
    <g
       aria-label="CLK"
       id="text44359"
       style="font-size:2.82223px;line-height:1.25;font-family:Ubuntu;-inkscape-font-specification:Ubuntu;letter-spacing:0px;word-spacing:0px;stroke-width:0.264583"
       transform="translate(53.507469,9.86753)">
      <path
         d="m -46.008423,253.8917 q -0.206023,0 -0.375357,-0.0677 -0.169333,-0.0677 -0.290689,-0.19756 -0.121356,-0.12982 -0.18909,-0.31891 -0.06491,-0.19191 -0.06491,-0.43745 0,-0.24553 0.07338,-0.43462 0.0762,-0.19191 0.203201,-0.32174 0.127,-0.12982 0.296334,-0.19755 0.169334,-0.0677 0.361245,-0.0677 0.121356,0 0.217312,0.0169 0.09878,0.0169 0.169334,0.0395 0.07338,0.0226 0.118533,0.0451 0.04516,0.0226 0.06209,0.0339 l -0.07902,0.22578 q -0.0254,-0.0169 -0.07338,-0.0367 -0.04798,-0.0198 -0.110067,-0.0395 -0.05927,-0.0198 -0.132645,-0.0311 -0.07055,-0.0141 -0.143933,-0.0141 -0.155223,0 -0.279401,0.0536 -0.124178,0.0536 -0.211667,0.15522 -0.08749,0.1016 -0.135468,0.24835 -0.04516,0.14394 -0.04516,0.32456 0,0.17498 0.03951,0.31891 0.04233,0.14394 0.124178,0.24836 0.08185,0.1016 0.203201,0.15804 0.124178,0.0565 0.287867,0.0565 0.18909,0 0.313268,-0.0395 0.124178,-0.0395 0.186267,-0.0706 l 0.07056,0.22578 q -0.01976,0.0141 -0.07056,0.0367 -0.0508,0.0198 -0.127,0.0395 -0.0762,0.0198 -0.177801,0.0339 -0.1016,0.0141 -0.220134,0.0141 z"
         id="path50451" />
      <path
         d="m -43.922798,253.6123 v 0.23707 h -1.17687 v -1.95581 h 0.273757 v 1.71874 z"
         id="path50453" />
      <path
         d="m -42.187129,251.89356 q -0.08749,0.096 -0.197556,0.21449 -0.110067,0.11571 -0.231423,0.23989 -0.118533,0.12135 -0.237067,0.23989 -0.118534,0.11853 -0.222956,0.22013 0.121356,0.0847 0.256823,0.20885 0.135467,0.12418 0.265289,0.26529 0.129823,0.14111 0.242712,0.28786 0.115712,0.14676 0.191912,0.27941 h -0.321734 q -0.08467,-0.13265 -0.194734,-0.26529 -0.110067,-0.13547 -0.234245,-0.25683 -0.121356,-0.12418 -0.248357,-0.2286 -0.124178,-0.10442 -0.242711,-0.1778 v 0.92852 h -0.273757 v -1.95581 h 0.273757 v 0.8636 q 0.09878,-0.0931 0.217311,-0.20884 0.118534,-0.11854 0.234245,-0.23707 0.115712,-0.11853 0.217312,-0.22578 0.104423,-0.11007 0.174978,-0.19191 z"
         id="path50455" />
    </g>
    <g
       aria-label="D/W"
       id="text47007"
       style="font-size:2.82223px;line-height:1.25;font-family:Ubuntu;-inkscape-font-specification:Ubuntu;letter-spacing:0px;word-spacing:0px;stroke-width:0.264583"
       transform="translate(65.234735,-4.81951)">
      <path
         d="m -44.383415,267.466 q 0,0.254 -0.07902,0.44309 -0.07902,0.18627 -0.222956,0.31044 -0.143934,0.12136 -0.344313,0.18345 -0.200378,0.0593 -0.440267,0.0593 -0.118534,0 -0.262468,-0.0113 -0.141111,-0.008 -0.256823,-0.0367 v -1.89654 q 0.115712,-0.0282 0.256823,-0.0367 0.143934,-0.0113 0.262468,-0.0113 0.239889,0 0.440267,0.0621 0.200379,0.0593 0.344313,0.18345 0.143933,0.12135 0.222956,0.31044 0.07902,0.18627 0.07902,0.44027 z m -1.063981,0.75636 q 0.389468,0 0.58138,-0.19756 0.191911,-0.20038 0.191911,-0.5588 0,-0.35842 -0.191911,-0.55598 -0.191912,-0.20038 -0.58138,-0.20038 -0.115711,0 -0.180622,0.003 -0.06209,0.003 -0.08749,0.006 v 1.49578 q 0.0254,0.003 0.08749,0.006 0.06491,0.003 0.180622,0.003 z"
         id="path50476" />
      <path
         d="m -44.140708,268.96743 h -0.268112 l 0.956736,-2.73192 h 0.262467 z"
         id="path50478" />
      <path
         d="m -41.882929,267.11886 q -0.118534,0.37818 -0.23989,0.69992 -0.121356,0.32173 -0.242712,0.62653 h -0.273756 q -0.149578,-0.4318 -0.26529,-0.91158 -0.112889,-0.47978 -0.211667,-1.04422 h 0.287868 q 0.03951,0.22013 0.08184,0.44026 0.04233,0.22014 0.08749,0.42898 0.04516,0.20603 0.09031,0.39512 0.04516,0.18909 0.09313,0.34995 0.11289,-0.29633 0.23989,-0.64911 0.127,-0.3556 0.237067,-0.73378 h 0.237068 q 0.110067,0.37818 0.239889,0.73378 0.129823,0.35278 0.242712,0.64911 0.04516,-0.15804 0.09031,-0.34713 0.04516,-0.18909 0.08749,-0.39511 0.04516,-0.20885 0.08749,-0.42898 0.04233,-0.22296 0.08184,-0.44309 h 0.279401 q -0.1016,0.56444 -0.217312,1.04422 -0.112889,0.47978 -0.259645,0.91158 h -0.273756 q -0.124178,-0.3048 -0.242712,-0.62653 -0.118534,-0.32174 -0.237067,-0.69992 z"
         id="path50480" />
    </g>
    <g
       aria-label="SEND"
       id="text74815"
       style="font-size:2.82223px;line-height:1.25;font-family:Ubuntu;-inkscape-font-specification:Ubuntu;letter-spacing:0px;word-spacing:0px;stroke-width:0.264583"
       transform="translate(57.309936,45.342276)">
      <path
         d="m -51.255977,200.26608 q 0.428979,0 0.428979,-0.29351 0,-0.0903 -0.03951,-0.1524 -0.03669,-0.0649 -0.1016,-0.11007 -0.06491,-0.048 -0.149579,-0.0818 -0.08184,-0.0339 -0.174978,-0.0677 -0.107245,-0.0367 -0.203201,-0.0818 -0.09596,-0.048 -0.166511,-0.11007 -0.07056,-0.0649 -0.112889,-0.1524 -0.03951,-0.0875 -0.03951,-0.21167 0,-0.25682 0.174979,-0.40075 0.174978,-0.14394 0.482601,-0.14394 0.177801,0 0.321734,0.0395 0.146756,0.0367 0.21449,0.0818 l -0.08749,0.22296 q -0.05927,-0.0367 -0.177801,-0.0706 -0.115711,-0.0367 -0.270934,-0.0367 -0.07902,0 -0.146756,0.0169 -0.06773,0.0169 -0.118534,0.0508 -0.0508,0.0339 -0.08184,0.0875 -0.02822,0.0508 -0.02822,0.12136 0,0.079 0.03104,0.13264 0.03104,0.0536 0.08749,0.096 0.05645,0.0395 0.129823,0.0734 0.0762,0.0339 0.166511,0.0677 0.127001,0.0508 0.231423,0.1016 0.107245,0.0508 0.183445,0.12136 0.07902,0.0705 0.121356,0.16933 0.04233,0.096 0.04233,0.23425 0,0.25682 -0.18909,0.39511 -0.186267,0.13829 -0.527757,0.13829 -0.115711,0 -0.214489,-0.0169 -0.09596,-0.0141 -0.172156,-0.0339 -0.0762,-0.0226 -0.132645,-0.0452 -0.05362,-0.0254 -0.08467,-0.0423 l 0.08184,-0.22578 q 0.06491,0.0367 0.197557,0.0819 0.132644,0.0451 0.324556,0.0451 z"
         id="path81805" />
      <path
         d="m -50.208931,200.46082 v -1.95581 h 1.193804 v 0.23425 h -0.920047 v 0.58137 h 0.818446 v 0.22861 h -0.818446 v 0.67733 h 0.990602 v 0.23425 z"
         id="path81807" />
      <path
         d="m -47.25688,200.46082 q -0.06209,-0.10443 -0.143934,-0.23425 -0.07902,-0.12982 -0.172156,-0.26811 -0.09313,-0.14111 -0.194734,-0.28505 -0.09878,-0.14393 -0.197556,-0.27658 -0.09878,-0.13546 -0.191912,-0.254 -0.09313,-0.11853 -0.172156,-0.20884 v 1.52683 h -0.268112 v -1.95581 h 0.217312 q 0.132645,0.14111 0.282223,0.3302 0.1524,0.18627 0.299156,0.38665 0.149579,0.19755 0.279401,0.38946 0.132645,0.19192 0.222956,0.34149 v -1.4478 h 0.268112 v 1.95581 z"
         id="path81809" />
      <path
         d="m -44.937011,199.4815 q 0,0.254 -0.07902,0.44309 -0.07902,0.18627 -0.222956,0.31045 -0.143934,0.12135 -0.344313,0.18344 -0.200378,0.0593 -0.440267,0.0593 -0.118534,0 -0.262468,-0.0113 -0.141111,-0.008 -0.256823,-0.0367 v -1.89654 q 0.115712,-0.0282 0.256823,-0.0367 0.143934,-0.0113 0.262468,-0.0113 0.239889,0 0.440267,0.0621 0.200379,0.0593 0.344313,0.18345 0.143933,0.12135 0.222956,0.31044 0.07902,0.18627 0.07902,0.44027 z m -1.063981,0.75636 q 0.389468,0 0.58138,-0.19756 0.191911,-0.20038 0.191911,-0.5588 0,-0.35842 -0.191911,-0.55598 -0.191912,-0.20038 -0.58138,-0.20038 -0.115711,0 -0.180622,0.003 -0.06209,0.003 -0.08749,0.006 v 1.49578 q 0.0254,0.003 0.08749,0.006 0.06491,0.003 0.180622,0.003 z"
         id="path81811" />
    </g>
    <g
       aria-label="RET"
       id="text83602"
       style="font-size:2.82223px;line-height:1.25;font-family:Ubuntu;-inkscape-font-specification:Ubuntu;letter-spacing:0px;word-spacing:0px;stroke-width:0.264583"
       transform="translate(66.66001,21.29342)">
      <path
         d="m -46.256275,223.66553 q 0.04516,0.0565 0.112889,0.14958 0.07056,0.0903 0.143934,0.2032 0.07338,0.11007 0.143934,0.23142 0.07338,0.12136 0.124178,0.23425 h -0.299157 q -0.05644,-0.10725 -0.124178,-0.21731 -0.06491,-0.11007 -0.132645,-0.20885 -0.06773,-0.1016 -0.135467,-0.18909 -0.06491,-0.0875 -0.118533,-0.1524 -0.03669,0.003 -0.0762,0.003 -0.03669,0 -0.0762,0 h -0.245534 v 0.76483 h -0.273756 v -1.92758 q 0.115711,-0.0282 0.256823,-0.0367 0.143934,-0.0113 0.262467,-0.0113 0.412046,0 0.626535,0.15522 0.217312,0.15522 0.217312,0.46285 0,0.19473 -0.104422,0.33302 -0.101601,0.13829 -0.301979,0.20602 z m -0.414868,-0.91722 q -0.174978,0 -0.268112,0.008 v 0.73661 h 0.194734 q 0.141112,0 0.254001,-0.0141 0.112889,-0.0141 0.189089,-0.0536 0.07902,-0.0395 0.121356,-0.11006 0.04233,-0.0734 0.04233,-0.19192 0,-0.11006 -0.04233,-0.18344 -0.04233,-0.0734 -0.115711,-0.11571 -0.07056,-0.0423 -0.169334,-0.0593 -0.09596,-0.0169 -0.206023,-0.0169 z"
         id="path86280" />
      <path
         d="m -45.437829,224.48398 v -1.95581 h 1.193803 v 0.23425 h -0.920047 v 0.58138 h 0.818447 v 0.2286 h -0.818447 v 0.67733 h 0.990603 v 0.23425 z"
         id="path86282" />
      <path
         d="m -42.519646,222.52817 v 0.23707 h -0.615246 v 1.71874 h -0.273756 v -1.71874 h -0.615246 v -0.23707 z"
         id="path86284" />
    </g>
    <path
       style="color:#000000;fill:#000000;stroke-dasharray:0.264583, 0.529166;-inkscape-stroke:none"
       d="m 7.3085937,188.27344 v 0.18164 0.082 h 0.265625 v -0.082 -0.18164 z m 0,0.71093 v 0.082 0.18164 0.084 h 0.265625 v -0.084 -0.18164 -0.082 z m 0,0.79297 v 0.084 0.18164 0.082 h 0.265625 v -0.082 -0.18164 -0.084 z m 0,0.79493 v 0.082 0.18164 0.082 h 0.265625 v -0.082 -0.18164 -0.082 z m 0,0.79296 v 0.082 0.18164 0.084 h 0.265625 v -0.084 -0.18164 -0.082 z m 0,0.79297 v 0.084 0.18164 0.082 h 0.265625 v -0.082 -0.18164 -0.084 z m 0,0.79492 v 0.082 0.18164 0.084 h 0.265625 v -0.084 -0.18164 -0.082 z m 0,0.79297 v 0.084 0.18164 0.082 h 0.265625 v -0.082 -0.18164 -0.084 z m 0,0.79493 v 0.082 0.18164 0.082 h 0.265625 v -0.082 -0.18164 -0.082 z m 0,0.79296 v 0.082 0.18164 0.084 h 0.265625 v -0.084 -0.18164 -0.082 z"
       id="path86734" />
    <path
       style="color:#000000;fill:#000000;stroke-dasharray:0.264583, 0.529166;-inkscape-stroke:none"
       d="m 7.3085937,213.87109 v 0.18164 0.082 h 0.265625 v -0.082 -0.18164 z m 0,0.71094 v 0.082 0.18164 0.082 h 0.265625 v -0.082 -0.18164 -0.082 z m 0,0.79297 v 0.082 0.18164 0.084 h 0.265625 v -0.084 -0.18164 -0.082 z m 0,0.79297 v 0.084 0.18164 0.082 h 0.265625 v -0.082 -0.18164 -0.084 z m 0,0.79492 v 0.082 0.18164 0.084 h 0.265625 v -0.084 -0.18164 -0.082 z m 0,0.79297 v 0.084 0.18164 0.082 h 0.265625 v -0.082 -0.18164 -0.084 z m 0,0.79492 v 0.082 0.18164 0.082 h 0.265625 v -0.082 -0.18164 -0.082 z m 0,0.79297 v 0.082 0.18164 0.084 h 0.265625 v -0.084 -0.18164 -0.082 z m 0,0.79297 v 0.084 0.18164 0.082 h 0.265625 v -0.082 -0.18164 -0.084 z m 0,0.79492 v 0.082 0.18164 0.084 h 0.265625 v -0.084 -0.18164 -0.082 z"
       id="path86734-6" />
  </g>
  <g
     inkscape:groupmode="layer"
     id="layer2"
     inkscape:label="components"
     style="display:none">
    <circle
       style="fill:#00ff00;fill-opacity:1;stroke-width:0.26458332"
       id="path3761"
       cx="8.9599981"
       cy="104.69993"
       r="5.0799999"
       inkscape:label="input" />
    <circle
       style="fill:#0000ff;fill-opacity:1;stroke-width:0.26458332"
       id="path3763"
       cx="21.680971"
       cy="104.69993"
       r="5.0799999"
       inkscape:label="output" />
    <rect
       style="fill:#ff0000;fill-rule:evenodd;stroke-width:0.26458332"
       id="rect4088"
       width="10.16"
       height="10.16"
       x="3.880003"
       y="84.379913"
       inkscape:label="gain" />
    <rect
       inkscape:label="reso"
       y="26.960009"
       x="10.24"
       height="10.16"
       width="10.16"
       id="rect4092"
       style="fill:#ff0000;fill-rule:evenodd;stroke-width:0.26458332" />
    <rect
       style="fill:#000000;fill-rule:evenodd;stroke-width:0.26458332"
       id="rect4124"
       width="10.16"
       height="10.16"
       x="10.240001"
       y="9.9399729"
       inkscape:label="freq" />
    <circle
       inkscape:label="lincv"
       r="5.0799999"
       cy="68.220016"
       cx="8.9599981"
       id="circle4126"
       style="fill:#00ff00;fill-opacity:1;stroke-width:0.26458332" />
    <circle
       style="fill:#00ff00;fill-opacity:1;stroke-width:0.26458332"
       id="circle82"
       cx="21.681419"
       cy="68.220016"
       r="5.0799999"
       inkscape:label="expcv" />
  </g>
</svg>
