<?xml version="1.0" encoding="UTF-8" standalone="no"?>
<!-- Created with Inkscape (http://www.inkscape.org/) -->

<svg
   xmlns:dc="http://purl.org/dc/elements/1.1/"
   xmlns:cc="http://creativecommons.org/ns#"
   xmlns:rdf="http://www.w3.org/1999/02/22-rdf-syntax-ns#"
   xmlns:svg="http://www.w3.org/2000/svg"
   xmlns="http://www.w3.org/2000/svg"
   xmlns:sodipodi="http://sodipodi.sourceforge.net/DTD/sodipodi-0.dtd"
   xmlns:inkscape="http://www.inkscape.org/namespaces/inkscape"
   width="20.32mm"
   height="128.5mm"
   viewBox="0 0 20.32 128.5"
   version="1.1"
   id="svg8"
   inkscape:version="0.92.4 5da689c313, 2019-01-14"
   sodipodi:docname="MUL.svg">
  <defs
     id="defs2" />
  <sodipodi:namedview
     id="base"
     pagecolor="#ffffff"
     bordercolor="#666666"
     borderopacity="1.0"
     inkscape:pageopacity="0.0"
     inkscape:pageshadow="2"
     inkscape:zoom="1.6029288"
     inkscape:cx="13.167327"
     inkscape:cy="285.02297"
     inkscape:document-units="mm"
     inkscape:current-layer="layer1"
     showgrid="true"
     inkscape:snap-global="false"
     inkscape:window-width="1366"
     inkscape:window-height="750"
     inkscape:window-x="0"
     inkscape:window-y="18"
     inkscape:window-maximized="0"
     inkscape:snap-object-midpoints="true"
     inkscape:snap-others="true"
     inkscape:snap-bbox="true"
     inkscape:snap-bbox-midpoints="true">
    <inkscape:grid
       type="xygrid"
       id="grid10"
       units="mm"
       spacingx="5.0800001"
       spacingy="5.0800001"
       originx="2.7755576e-17"
       originy="1.4"
       dotted="false"
       empspacing="4" />
  </sodipodi:namedview>
  <metadata
     id="metadata5">
    <rdf:RDF>
      <cc:Work
         rdf:about="">
        <dc:format>image/svg+xml</dc:format>
        <dc:type
           rdf:resource="http://purl.org/dc/dcmitype/StillImage" />
        <dc:title></dc:title>
      </cc:Work>
    </rdf:RDF>
  </metadata>
  <g
     inkscape:label="Layer 1"
     inkscape:groupmode="layer"
     id="layer1"
     transform="translate(0,-168.5)"
     style="display:inline">
    <rect
       style="fill:#e6e6e6;fill-rule:evenodd;stroke-width:0.50625241"
       id="rect3886"
       width="20.318571"
       height="128.49359"
       x="-1.3148792e-07"
       y="168.50589" />
    <text
       xml:space="preserve"
       style="font-style:normal;font-variant:normal;font-weight:normal;font-stretch:normal;font-size:5.64444447px;line-height:1.25;font-family:'alarm clock';-inkscape-font-specification:'alarm clock';letter-spacing:0px;word-spacing:0px;fill:#000000;fill-opacity:1;stroke:none;stroke-width:0.26458332"
       x="-66.469711"
       y="158.17523"
       id="text3721"><tspan
         sodipodi:role="line"
         id="tspan3719"
         x="-66.469711"
         y="163.27023"
         style="font-style:normal;font-variant:normal;font-weight:normal;font-stretch:normal;font-family:'alarm clock';-inkscape-font-specification:'alarm clock';stroke-width:0.26458332" /></text>
    <text
       xml:space="preserve"
       style="font-style:normal;font-variant:normal;font-weight:normal;font-stretch:normal;font-size:5.64444447px;line-height:1.25;font-family:'alarm clock';-inkscape-font-specification:'alarm clock';letter-spacing:0px;word-spacing:0px;fill:#000000;fill-opacity:1;stroke:none;stroke-width:0.26458332"
       x="-90.703468"
       y="188.98671"
       id="text3725"><tspan
         sodipodi:role="line"
         id="tspan3723"
         x="-90.703468"
         y="194.08171"
         style="font-style:normal;font-variant:normal;font-weight:normal;font-stretch:normal;font-family:'alarm clock';-inkscape-font-specification:'alarm clock';stroke-width:0.26458332" /></text>
    <text
       xml:space="preserve"
       style="font-style:normal;font-variant:normal;font-weight:normal;font-stretch:normal;font-size:5.64444447px;line-height:1.25;font-family:LCD2;-inkscape-font-specification:LCD2;letter-spacing:0px;word-spacing:0px;fill:#000000;fill-opacity:1;stroke:none;stroke-width:0.26458332"
       x="-90.357269"
       y="179.29321"
       id="text3729"><tspan
         sodipodi:role="line"
         id="tspan3727"
         x="-90.357269"
         y="184.5546"
         style="font-style:normal;font-variant:normal;font-weight:normal;font-stretch:normal;font-family:LCD2;-inkscape-font-specification:LCD2;stroke-width:0.26458332" /></text>
    <g
       aria-label="kocmoc"
       style="font-style:normal;font-variant:normal;font-weight:normal;font-stretch:normal;font-size:5.64444447px;line-height:1.25;font-family:LCD2;-inkscape-font-specification:LCD2;letter-spacing:0px;word-spacing:0px;fill:#000000;fill-opacity:1;stroke:none;stroke-width:0.26458332"
       id="text3737"
       transform="translate(-10.1,-4.40001)">
      <path
         d="m 14.992489,290.64292 -1.241777,1.81187 h -0.208845 l -0.141111,-0.16933 1.399822,-2.032 h 0.248356 z m -2.263422,1.5748 -0.265289,0.23707 h -0.186266 l 0.276577,-1.9812 0.242711,-0.20884 0.180623,0.20884 z m 0.699911,0.29351 -0.242711,0.20885 h -0.445911 l -0.186267,-0.20885 0.242711,-0.20884 h 0.451556 z m 0.987778,2.25778 H 14.1684 l -0.829733,-2.032 0.186267,-0.16933 h 0.208844 l 0.733778,1.81187 z m -2.015067,-0.22013 -0.237066,0.20884 -0.180623,-0.20884 0.276578,-1.9812 h 0.186267 l 0.2032,0.23707 z"
         style="stroke-width:0.26458332"
         id="path3897"
         inkscape:connector-curvature="0" />
      <path
         d="m 15.319861,294.26666 -0.242711,0.20884 -0.180623,-0.20884 0.237067,-1.69898 h 0.186267 l 0.2032,0.23707 z m 0.282222,-2.04894 -0.265289,0.23707 h -0.186267 l 0.237067,-1.69898 0.242711,-0.20884 0.180622,0.20884 z m 2.026356,-1.75542 -0.242712,0.21449 h -1.478844 l -0.180622,-0.21449 0.237066,-0.20884 h 1.478845 z m 0.01129,1.99249 h -0.186266 l -0.2032,-0.23707 0.208844,-1.46191 0.237067,-0.20884 0.180622,0.20884 z m -0.254,1.81187 -0.242711,0.20884 -0.180622,-0.20884 0.208845,-1.46191 0.265288,-0.23707 h 0.186267 z m -0.333022,0.29351 -0.242711,0.20884 H 15.33115 l -0.180623,-0.20884 0.237067,-0.21449 h 1.484489 z"
         style="stroke-width:0.26458332"
         id="path3899"
         inkscape:connector-curvature="0" />
      <path
         d="m 20.749816,290.98723 -0.242711,0.21449 -0.180622,-0.21449 0.03387,-0.23142 0.237067,-0.20884 0.180622,0.20884 z m -0.220133,-0.52493 -0.242711,0.21449 h -1.478845 l -0.180622,-0.21449 0.237067,-0.20884 h 1.478844 z m -2.026356,1.75542 -0.265289,0.23707 h -0.186266 l 0.237066,-1.69898 0.242711,-0.20884 0.180623,0.20884 z m -0.282222,2.04894 -0.242711,0.20884 -0.180622,-0.20884 0.237066,-1.69898 h 0.186267 l 0.2032,0.23707 z m 1.732844,0.29351 -0.242711,0.20884 h -1.478844 l -0.180622,-0.20884 0.237066,-0.21449 h 1.484489 z m 0.333023,-0.29351 -0.242712,0.20884 -0.180622,-0.20884 0.03387,-0.23143 0.242711,-0.21448 0.180622,0.21448 z"
         style="stroke-width:0.26458332"
         id="path3901"
         inkscape:connector-curvature="0" />
      <path
         d="m 23.453505,292.44915 h -0.186267 l -0.2032,-0.23143 0.248356,-1.75542 0.242711,-0.20884 0.180622,0.20884 z m -0.417689,-0.86925 -0.598311,0.87489 h -0.174978 l 0.06773,-0.48542 0.8128,-1.21356 h 0.01129 z m -0.891822,0.87489 h -0.174978 l -0.3556,-0.87489 0.112889,-0.82409 h 0.01129 l 0.474133,1.21356 z m -0.733778,-0.23707 -0.270933,0.23143 h -0.186267 l 0.282222,-1.98685 0.237067,-0.20884 0.186267,0.20884 z m 1.749778,2.34245 -0.242711,0.20884 -0.180622,-0.20884 0.248355,-1.75542 0.265289,-0.23143 h 0.186267 z m -2.077156,0 -0.242711,0.20884 -0.180622,-0.20884 0.276578,-1.98685 h 0.186267 l 0.2032,0.23143 z"
         style="stroke-width:0.26458332"
         id="path3903"
         inkscape:connector-curvature="0" />
      <path
         d="m 24.040517,294.26666 -0.242711,0.20884 -0.180623,-0.20884 0.237067,-1.69898 h 0.186267 l 0.2032,0.23707 z m 0.282222,-2.04894 -0.265289,0.23707 h -0.186267 l 0.237067,-1.69898 0.242711,-0.20884 0.180622,0.20884 z m 2.026355,-1.75542 -0.242711,0.21449 h -1.478844 l -0.180622,-0.21449 0.237066,-0.20884 h 1.478845 z m 0.01129,1.99249 h -0.186266 l -0.2032,-0.23707 0.208844,-1.46191 0.237067,-0.20884 0.180622,0.20884 z m -0.254,1.81187 -0.242711,0.20884 -0.180622,-0.20884 0.208844,-1.46191 0.265289,-0.23707 h 0.186267 z m -0.333022,0.29351 -0.242711,0.20884 h -1.478844 l -0.180623,-0.20884 0.237067,-0.21449 h 1.484489 z"
         style="stroke-width:0.26458332"
         id="path3905"
         inkscape:connector-curvature="0" />
      <path
         d="m 29.470473,290.98723 -0.242711,0.21449 -0.180622,-0.21449 0.03387,-0.23142 0.237067,-0.20884 0.180622,0.20884 z m -0.220133,-0.52493 -0.242712,0.21449 h -1.478844 l -0.180622,-0.21449 0.237066,-0.20884 h 1.478845 z m -2.026356,1.75542 -0.265289,0.23707 h -0.186267 l 0.237067,-1.69898 0.242711,-0.20884 0.180622,0.20884 z m -0.282222,2.04894 -0.242711,0.20884 -0.180623,-0.20884 0.237067,-1.69898 h 0.186267 l 0.2032,0.23707 z m 1.732844,0.29351 -0.242711,0.20884 h -1.478844 l -0.180623,-0.20884 0.237067,-0.21449 h 1.484489 z m 0.333022,-0.29351 -0.242711,0.20884 -0.180622,-0.20884 0.03387,-0.23143 0.242711,-0.21448 0.180622,0.21448 z"
         style="stroke-width:0.26458332"
         id="path3907"
         inkscape:connector-curvature="0" />
    </g>
    <rect
       style="fill:#000000;fill-rule:evenodd;stroke-width:0.22503524"
       id="rect113"
       width="9.6695967"
       height="15.153036"
       x="5.4660001"
       y="266.98297"
       rx="1.8990544" />
    <g
       aria-label="OUT"
       style="font-style:normal;font-variant:normal;font-weight:normal;font-stretch:normal;font-size:2.82222223px;line-height:1.25;font-family:Ubuntu;-inkscape-font-specification:Ubuntu;letter-spacing:0px;word-spacing:0px;fill:#ffffff;fill-opacity:1;stroke:none;stroke-width:0.26458332"
       id="text117"
       transform="translate(-13.8,-1.4001328)">
      <path
         d="m 21.316,280.90234 q 0,-0.25118 0.07338,-0.44309 0.0762,-0.19191 0.2032,-0.31891 0.129822,-0.12982 0.299156,-0.19473 0.172155,-0.0649 0.364066,-0.0649 0.189089,0 0.3556,0.0649 0.169334,0.0649 0.296334,0.19473 0.127,0.127 0.200377,0.31891 0.0762,0.19191 0.0762,0.44309 0,0.25118 -0.0762,0.44309 -0.07338,0.19191 -0.200377,0.32173 -0.127,0.127 -0.296334,0.19192 -0.166511,0.0649 -0.3556,0.0649 -0.191911,0 -0.364066,-0.0649 -0.169334,-0.0649 -0.299156,-0.19192 -0.127,-0.12982 -0.2032,-0.32173 -0.07338,-0.19191 -0.07338,-0.44309 z m 0.287867,0 q 0,0.1778 0.04515,0.32456 0.04516,0.14393 0.127,0.24553 0.08467,0.1016 0.2032,0.15805 0.121356,0.0536 0.270934,0.0536 0.149578,0 0.268111,-0.0536 0.118533,-0.0564 0.200378,-0.15805 0.08467,-0.1016 0.129822,-0.24553 0.04516,-0.14676 0.04516,-0.32456 0,-0.1778 -0.04516,-0.32173 -0.04516,-0.14676 -0.129822,-0.24836 -0.08184,-0.1016 -0.200378,-0.15522 -0.118533,-0.0564 -0.268111,-0.0564 -0.149578,0 -0.270934,0.0564 -0.118533,0.0536 -0.2032,0.15522 -0.08184,0.1016 -0.127,0.24836 -0.04515,0.14393 -0.04515,0.32173 z"
         style="fill:#ffffff;stroke-width:0.26458332"
         id="path88"
         inkscape:connector-curvature="0" />
      <path
         d="m 24.318844,281.92399 q -0.191911,0 -0.333022,-0.0593 -0.141111,-0.0593 -0.231422,-0.16087 -0.09031,-0.10442 -0.135467,-0.24553 -0.04233,-0.14111 -0.04233,-0.3048 v -1.22767 h 0.273755 v 1.19663 q 0,0.29351 0.129823,0.42615 0.129822,0.13265 0.338666,0.13265 0.104422,0 0.189089,-0.031 0.08749,-0.0339 0.149578,-0.1016 0.06209,-0.0677 0.09596,-0.17215 0.03387,-0.10725 0.03387,-0.254 v -1.19663 H 25.0611 v 1.22767 q 0,0.16369 -0.04516,0.3048 -0.04233,0.14111 -0.135467,0.24553 -0.09031,0.1016 -0.231422,0.16087 -0.138289,0.0593 -0.3302,0.0593 z"
         style="fill:#ffffff;stroke-width:0.26458332"
         id="path90"
         inkscape:connector-curvature="0" />
      <path
         d="m 26.839088,279.92585 v 0.23707 h -0.615244 v 1.71873 h -0.273756 v -1.71873 h -0.615244 v -0.23707 z"
         style="fill:#ffffff;stroke-width:0.26458332"
         id="path92"
         inkscape:connector-curvature="0" />
    </g>
    <text
       xml:space="preserve"
       style="font-style:normal;font-variant:normal;font-weight:normal;font-stretch:normal;font-size:2.82222223px;line-height:1.25;font-family:Ubuntu;-inkscape-font-specification:Ubuntu;letter-spacing:0px;word-spacing:0px;fill:#000000;fill-opacity:1;stroke:none;stroke-width:0.26458332"
       x="43.652069"
       y="238.87505"
       id="text70"><tspan
         sodipodi:role="line"
         id="tspan68"
         x="43.652069"
         y="241.50674"
         style="font-style:normal;font-variant:normal;font-weight:normal;font-stretch:normal;font-family:Ubuntu;-inkscape-font-specification:Ubuntu;stroke-width:0.26458332" /></text>
    <text
       xml:space="preserve"
       style="font-style:normal;font-variant:normal;font-weight:normal;font-stretch:normal;font-size:2.82222223px;line-height:1.25;font-family:Ubuntu;-inkscape-font-specification:Ubuntu;letter-spacing:0px;word-spacing:0px;fill:#000000;fill-opacity:1;stroke:none;stroke-width:0.26458332"
       x="38.2831"
       y="206.42778"
       id="text74"><tspan
         sodipodi:role="line"
         id="tspan72"
         x="38.2831"
         y="209.05948"
         style="font-style:normal;font-variant:normal;font-weight:normal;font-stretch:normal;font-family:Ubuntu;-inkscape-font-specification:Ubuntu;stroke-width:0.26458332" /></text>
    <text
       xml:space="preserve"
       style="font-style:normal;font-variant:normal;font-weight:normal;font-stretch:normal;font-size:2.82222223px;line-height:1.25;font-family:Ubuntu;-inkscape-font-specification:Ubuntu;letter-spacing:0px;word-spacing:0px;fill:#000000;fill-opacity:1;stroke:none;stroke-width:0.26458332"
       x="44.118938"
       y="237.00758"
       id="text78"><tspan
         sodipodi:role="line"
         id="tspan76"
         x="44.118938"
         y="239.63928"
         style="font-style:normal;font-variant:normal;font-weight:normal;font-stretch:normal;font-family:Ubuntu;-inkscape-font-specification:Ubuntu;stroke-width:0.26458332" /></text>
    <path
       style="display:inline;fill:none;stroke:#000000;stroke-width:0.27528062px;stroke-linecap:butt;stroke-linejoin:miter;stroke-opacity:1"
       d="M 10.170965,199.47448 V 188.10339"
       id="path106"
       inkscape:connector-curvature="0" />
    <g
       aria-label="-"
       style="font-style:normal;font-variant:normal;font-weight:normal;font-stretch:normal;font-size:2.82222223px;line-height:1.25;font-family:Ubuntu;-inkscape-font-specification:Ubuntu;letter-spacing:0px;word-spacing:0px;fill:#000000;fill-opacity:1;stroke:none;stroke-width:0.26458332"
       id="text111"
       transform="translate(-0.8253122,-38.317469)">
      <path
         d="M 8.0101191,222.26698 H 8.707208 v 0.24553 H 8.0101191 Z"
         style="stroke-width:0.26458332"
         id="path120"
         inkscape:connector-curvature="0" />
    </g>
    <g
       aria-label="+"
       style="font-style:normal;font-variant:normal;font-weight:normal;font-stretch:normal;font-size:2.82222223px;line-height:1.25;font-family:Ubuntu;-inkscape-font-specification:Ubuntu;letter-spacing:0px;word-spacing:0px;fill:#000000;fill-opacity:1;stroke:none;stroke-width:0.26458332"
       id="text115"
       transform="translate(1.0313106,-38.252)">
      <path
         d="m 11.120955,222.20585 h 0.5334 v -0.58138 h 0.225778 v 0.58138 h 0.5334 v 0.22295 h -0.5334 v 0.5842 h -0.225778 v -0.5842 h -0.5334 z"
         style="stroke-width:0.26458332"
         id="path117"
         inkscape:connector-curvature="0" />
    </g>
    <g
       aria-label="mul"
       style="font-style:normal;font-variant:normal;font-weight:normal;font-stretch:normal;font-size:5.64444447px;line-height:1.25;font-family:LCD2;-inkscape-font-specification:LCD2;letter-spacing:0px;word-spacing:0px;fill:#000000;fill-opacity:1;stroke:none;stroke-width:0.26458332"
       id="text107"
       transform="translate(-15.700402)">
      <path
         d="m 24.998402,177.81592 h -0.186267 l -0.2032,-0.23142 0.248356,-1.75542 0.242711,-0.20885 0.180622,0.20885 z m -0.417689,-0.86924 -0.598311,0.87489 h -0.174978 l 0.06773,-0.48543 0.8128,-1.21355 h 0.01129 z m -0.891822,0.87489 h -0.174978 l -0.3556,-0.87489 0.112889,-0.82409 h 0.01129 l 0.474133,1.21355 z m -0.733778,-0.23707 -0.270933,0.23142 h -0.186267 l 0.282222,-1.98684 0.237067,-0.20885 0.186267,0.20885 z m 1.749778,2.34244 -0.242711,0.20885 -0.180622,-0.20885 0.248355,-1.75542 0.265289,-0.23142 h 0.186267 z m -2.077156,0 -0.242711,0.20885 -0.180622,-0.20885 0.276578,-1.98684 h 0.186267 l 0.2032,0.23142 z"
         style="stroke-width:0.26458332"
         id="path114"
         inkscape:connector-curvature="0" />
      <path
         d="m 25.873281,177.5845 -0.270933,0.23707 h -0.186267 l 0.276578,-1.9812 0.242711,-0.20885 0.180622,0.20885 z m -0.287866,2.04893 -0.242711,0.20885 -0.180623,-0.20885 0.237067,-1.69898 h 0.186267 l 0.2032,0.23707 z m 1.732844,0.29351 -0.242711,0.20885 h -1.478844 l -0.180623,-0.20885 0.237067,-0.21449 h 1.484489 z m 0.333022,-0.29351 -0.237066,0.20885 -0.180623,-0.20885 0.2032,-1.46191 0.265289,-0.23707 h 0.186267 z m 0.254,-1.81186 h -0.186266 l -0.197556,-0.23707 0.242711,-1.74413 0.237067,-0.20885 0.180622,0.20885 z"
         style="stroke-width:0.26458332"
         id="path116"
         inkscape:connector-curvature="0" />
      <path
         d="m 28.774526,177.5845 -0.270934,0.23707 h -0.186267 l 0.276578,-1.9812 0.242711,-0.20885 0.180623,0.20885 z m -0.287867,2.04893 -0.242711,0.20885 -0.180623,-0.20885 0.237067,-1.69898 h 0.186267 l 0.2032,0.23707 z m 1.732844,0.29351 -0.242711,0.20885 h -1.478844 l -0.180623,-0.20885 0.237067,-0.21449 h 1.484489 z"
         style="stroke-width:0.26458332"
         id="path118"
         inkscape:connector-curvature="0" />
    </g>
    <text
       xml:space="preserve"
       style="font-style:normal;font-variant:normal;font-weight:normal;font-stretch:normal;font-size:5.64444447px;line-height:1.25;font-family:LCD2;-inkscape-font-specification:LCD2;letter-spacing:0px;word-spacing:0px;fill:#000000;fill-opacity:1;stroke:none;stroke-width:0.26458332"
       x="47.868103"
       y="201.59392"
       id="text112"><tspan
         sodipodi:role="line"
         id="tspan109"
         x="47.868103"
         y="206.8553"
         style="stroke-width:0.26458332" /></text>
    <text
       xml:space="preserve"
       style="font-style:normal;font-variant:normal;font-weight:normal;font-stretch:normal;font-size:2.82222223px;line-height:1.25;font-family:Ubuntu;-inkscape-font-specification:Ubuntu;letter-spacing:0px;word-spacing:0px;fill:#000000;fill-opacity:1;stroke:none;stroke-width:0.26458332"
       x="31.513527"
       y="194.87283"
       id="text123"><tspan
         sodipodi:role="line"
         id="tspan121"
         x="31.513527"
         y="197.50453"
         style="font-style:normal;font-variant:normal;font-weight:normal;font-stretch:normal;font-family:Ubuntu;-inkscape-font-specification:Ubuntu;stroke-width:0.26458332" /></text>
    <g
       aria-label="IN1"
       style="font-style:normal;font-variant:normal;font-weight:normal;font-stretch:normal;font-size:2.82222223px;line-height:1.25;font-family:Ubuntu;-inkscape-font-specification:Ubuntu;letter-spacing:0px;word-spacing:0px;fill:#000000;fill-opacity:1;stroke:none;stroke-width:0.26458332"
       id="text167"
       transform="translate(-40.310128,-3.06515)">
      <path
         d="m 48.936128,208.22135 h 0.273755 v 1.9558 h -0.273755 z"
         style="stroke-width:0.26458332"
         id="path173"
         inkscape:connector-curvature="0" />
      <path
         d="m 51.035859,210.17715 q -0.06209,-0.10442 -0.143934,-0.23424 -0.07902,-0.12982 -0.172155,-0.26811 -0.09313,-0.14111 -0.194734,-0.28505 -0.09878,-0.14393 -0.197555,-0.27657 -0.09878,-0.13547 -0.191911,-0.254 -0.09313,-0.11854 -0.172156,-0.20885 v 1.52682 h -0.268111 v -1.9558 h 0.217311 q 0.132645,0.14112 0.282222,0.3302 0.1524,0.18627 0.299156,0.38665 0.149578,0.19755 0.2794,0.38947 0.132644,0.19191 0.222955,0.34148 v -1.4478 h 0.268112 v 1.9558 z"
         style="stroke-width:0.26458332"
         id="path175"
         inkscape:connector-curvature="0" />
      <path
         d="m 51.769633,208.62493 q 0.160866,-0.0621 0.313266,-0.15804 0.1524,-0.0988 0.2794,-0.24554 h 0.186267 v 1.9558 h -0.262467 v -1.59173 q -0.03387,0.031 -0.08467,0.0649 -0.04798,0.0339 -0.107245,0.0649 -0.05644,0.031 -0.121355,0.0593 -0.06209,0.0282 -0.121356,0.048 z"
         style="stroke-width:0.26458332"
         id="path177"
         inkscape:connector-curvature="0" />
    </g>
    <g
       aria-label="IN2"
       style="font-style:normal;font-variant:normal;font-weight:normal;font-stretch:normal;font-size:2.82222223px;line-height:1.25;font-family:Ubuntu;-inkscape-font-specification:Ubuntu;letter-spacing:0px;word-spacing:0px;fill:#000000;fill-opacity:1;stroke:none;stroke-width:0.26458332"
       id="text171"
       transform="translate(-38.689508,1.11203)">
      <path
         d="m 47.285508,218.29017 h 0.273756 v 1.9558 h -0.273756 z"
         style="stroke-width:0.26458332"
         id="path180"
         inkscape:connector-curvature="0" />
      <path
         d="m 49.385239,220.24597 q -0.06209,-0.10442 -0.143933,-0.23424 -0.07902,-0.12982 -0.172156,-0.26811 -0.09313,-0.14111 -0.194733,-0.28505 -0.09878,-0.14393 -0.197556,-0.27658 -0.09878,-0.13546 -0.191911,-0.254 -0.09313,-0.11853 -0.172155,-0.20884 v 1.52682 h -0.268112 v -1.9558 h 0.217312 q 0.132644,0.14111 0.282222,0.3302 0.1524,0.18627 0.299155,0.38665 0.149578,0.19755 0.2794,0.38946 0.132645,0.19191 0.222956,0.34149 v -1.4478 h 0.268111 v 1.9558 z"
         style="stroke-width:0.26458332"
         id="path182"
         inkscape:connector-curvature="0" />
      <path
         d="m 51.174524,218.78971 q 0,0.1016 -0.04233,0.19755 -0.03951,0.0931 -0.107244,0.18627 -0.06773,0.0903 -0.1524,0.18062 -0.08467,0.0875 -0.169334,0.17216 -0.04798,0.048 -0.112889,0.11288 -0.06209,0.0649 -0.118533,0.13547 -0.05644,0.0706 -0.09596,0.13547 -0.03669,0.0649 -0.03669,0.11289 h 0.900289 v 0.22295 h -1.185334 q -0.0028,-0.0169 -0.0028,-0.0339 0,-0.0169 0,-0.031 0,-0.13264 0.04233,-0.24553 0.04516,-0.11571 0.115711,-0.21731 0.07056,-0.1016 0.158045,-0.19191 0.08749,-0.0903 0.172155,-0.17498 0.07056,-0.0677 0.132645,-0.13265 0.06491,-0.0677 0.112889,-0.13264 0.0508,-0.0677 0.07902,-0.13829 0.03104,-0.0706 0.03104,-0.14958 0,-0.0847 -0.02822,-0.14393 -0.0254,-0.0593 -0.07056,-0.0988 -0.04516,-0.0395 -0.107245,-0.0564 -0.05927,-0.0198 -0.127,-0.0198 -0.08184,0 -0.149578,0.0226 -0.06773,0.0226 -0.121355,0.0536 -0.05362,0.0282 -0.09031,0.0621 -0.03669,0.031 -0.05644,0.048 l -0.129822,-0.18627 q 0.0254,-0.0282 0.0762,-0.0677 0.0508,-0.0423 0.121356,-0.079 0.07055,-0.0367 0.158044,-0.0621 0.08749,-0.0254 0.189089,-0.0254 0.307622,0 0.460022,0.14393 0.155222,0.14111 0.155222,0.40076 z"
         style="stroke-width:0.26458332"
         id="path184"
         inkscape:connector-curvature="0" />
    </g>
    <path
       inkscape:connector-curvature="0"
       id="path187"
       d="M 10.170965,240.47448 V 229.10339"
       style="display:inline;fill:none;stroke:#000000;stroke-width:0.27528062px;stroke-linecap:butt;stroke-linejoin:miter;stroke-opacity:1" />
    <g
       transform="translate(-0.8253122,2.682531)"
       id="g191"
       style="font-style:normal;font-variant:normal;font-weight:normal;font-stretch:normal;font-size:2.82222223px;line-height:1.25;font-family:Ubuntu;-inkscape-font-specification:Ubuntu;letter-spacing:0px;word-spacing:0px;fill:#000000;fill-opacity:1;stroke:none;stroke-width:0.26458332"
       aria-label="-">
      <path
         inkscape:connector-curvature="0"
         id="path189"
         style="stroke-width:0.26458332"
         d="M 8.0101191,222.26698 H 8.707208 v 0.24553 H 8.0101191 Z" />
    </g>
    <g
       transform="translate(1.0313106,2.748)"
       id="g195"
       style="font-style:normal;font-variant:normal;font-weight:normal;font-stretch:normal;font-size:2.82222223px;line-height:1.25;font-family:Ubuntu;-inkscape-font-specification:Ubuntu;letter-spacing:0px;word-spacing:0px;fill:#000000;fill-opacity:1;stroke:none;stroke-width:0.26458332"
       aria-label="+">
      <path
         inkscape:connector-curvature="0"
         id="path193"
         style="stroke-width:0.26458332"
         d="m 11.120955,222.20585 h 0.5334 v -0.58138 h 0.225778 v 0.58138 h 0.5334 v 0.22295 h -0.5334 v 0.5842 h -0.225778 v -0.5842 h -0.5334 z" />
    </g>
    <g
       transform="translate(-40.310128,37.93485)"
       id="g203"
       style="font-style:normal;font-variant:normal;font-weight:normal;font-stretch:normal;font-size:2.82222223px;line-height:1.25;font-family:Ubuntu;-inkscape-font-specification:Ubuntu;letter-spacing:0px;word-spacing:0px;fill:#000000;fill-opacity:1;stroke:none;stroke-width:0.26458332"
       aria-label="IN1">
      <path
         inkscape:connector-curvature="0"
         id="path197"
         style="stroke-width:0.26458332"
         d="m 48.936128,208.22135 h 0.273755 v 1.9558 h -0.273755 z" />
      <path
         inkscape:connector-curvature="0"
         id="path199"
         style="stroke-width:0.26458332"
         d="m 51.035859,210.17715 q -0.06209,-0.10442 -0.143934,-0.23424 -0.07902,-0.12982 -0.172155,-0.26811 -0.09313,-0.14111 -0.194734,-0.28505 -0.09878,-0.14393 -0.197555,-0.27657 -0.09878,-0.13547 -0.191911,-0.254 -0.09313,-0.11854 -0.172156,-0.20885 v 1.52682 h -0.268111 v -1.9558 h 0.217311 q 0.132645,0.14112 0.282222,0.3302 0.1524,0.18627 0.299156,0.38665 0.149578,0.19755 0.2794,0.38947 0.132644,0.19191 0.222955,0.34148 v -1.4478 h 0.268112 v 1.9558 z" />
      <path
         inkscape:connector-curvature="0"
         id="path201"
         style="stroke-width:0.26458332"
         d="m 51.769633,208.62493 q 0.160866,-0.0621 0.313266,-0.15804 0.1524,-0.0988 0.2794,-0.24554 h 0.186267 v 1.9558 h -0.262467 v -1.59173 q -0.03387,0.031 -0.08467,0.0649 -0.04798,0.0339 -0.107245,0.0649 -0.05644,0.031 -0.121355,0.0593 -0.06209,0.0282 -0.121356,0.048 z" />
    </g>
    <g
       transform="translate(-38.689508,42.11203)"
       id="g211"
       style="font-style:normal;font-variant:normal;font-weight:normal;font-stretch:normal;font-size:2.82222223px;line-height:1.25;font-family:Ubuntu;-inkscape-font-specification:Ubuntu;letter-spacing:0px;word-spacing:0px;fill:#000000;fill-opacity:1;stroke:none;stroke-width:0.26458332"
       aria-label="IN2">
      <path
         inkscape:connector-curvature="0"
         id="path205"
         style="stroke-width:0.26458332"
         d="m 47.285508,218.29017 h 0.273756 v 1.9558 h -0.273756 z" />
      <path
         inkscape:connector-curvature="0"
         id="path207"
         style="stroke-width:0.26458332"
         d="m 49.385239,220.24597 q -0.06209,-0.10442 -0.143933,-0.23424 -0.07902,-0.12982 -0.172156,-0.26811 -0.09313,-0.14111 -0.194733,-0.28505 -0.09878,-0.14393 -0.197556,-0.27658 -0.09878,-0.13546 -0.191911,-0.254 -0.09313,-0.11853 -0.172155,-0.20884 v 1.52682 h -0.268112 v -1.9558 h 0.217312 q 0.132644,0.14111 0.282222,0.3302 0.1524,0.18627 0.299155,0.38665 0.149578,0.19755 0.2794,0.38946 0.132645,0.19191 0.222956,0.34149 v -1.4478 h 0.268111 v 1.9558 z" />
      <path
         inkscape:connector-curvature="0"
         id="path209"
         style="stroke-width:0.26458332"
         d="m 51.174524,218.78971 q 0,0.1016 -0.04233,0.19755 -0.03951,0.0931 -0.107244,0.18627 -0.06773,0.0903 -0.1524,0.18062 -0.08467,0.0875 -0.169334,0.17216 -0.04798,0.048 -0.112889,0.11288 -0.06209,0.0649 -0.118533,0.13547 -0.05644,0.0706 -0.09596,0.13547 -0.03669,0.0649 -0.03669,0.11289 h 0.900289 v 0.22295 h -1.185334 q -0.0028,-0.0169 -0.0028,-0.0339 0,-0.0169 0,-0.031 0,-0.13264 0.04233,-0.24553 0.04516,-0.11571 0.115711,-0.21731 0.07056,-0.1016 0.158045,-0.19191 0.08749,-0.0903 0.172155,-0.17498 0.07056,-0.0677 0.132645,-0.13265 0.06491,-0.0677 0.112889,-0.13264 0.0508,-0.0677 0.07902,-0.13829 0.03104,-0.0706 0.03104,-0.14958 0,-0.0847 -0.02822,-0.14393 -0.0254,-0.0593 -0.07056,-0.0988 -0.04516,-0.0395 -0.107245,-0.0564 -0.05927,-0.0198 -0.127,-0.0198 -0.08184,0 -0.149578,0.0226 -0.06773,0.0226 -0.121355,0.0536 -0.05362,0.0282 -0.09031,0.0621 -0.03669,0.031 -0.05644,0.048 l -0.129822,-0.18627 q 0.0254,-0.0282 0.0762,-0.0677 0.0508,-0.0423 0.121356,-0.079 0.07055,-0.0367 0.158044,-0.0621 0.08749,-0.0254 0.189089,-0.0254 0.307622,0 0.460022,0.14393 0.155222,0.14111 0.155222,0.40076 z" />
    </g>
  </g>
  <g
     inkscape:groupmode="layer"
     id="layer2"
     inkscape:label="components"
     style="display:none">
    <circle
       style="fill:#0000ff;fill-opacity:1;stroke-width:0.26458332"
       id="path3763"
       cx="10.281"
       cy="103.29977"
       r="5.0799999"
       inkscape:label="output" />
    <circle
       inkscape:label="in1_1"
       r="5.0799999"
       cy="33.02"
       cx="10.281"
       id="circle4126"
       style="fill:#00ff00;fill-opacity:1;stroke-width:0.26458332" />
    <text
       xml:space="preserve"
       style="font-style:normal;font-variant:normal;font-weight:normal;font-stretch:normal;font-size:2.82222223px;line-height:1.25;font-family:Ubuntu;-inkscape-font-specification:Ubuntu;letter-spacing:0px;word-spacing:0px;fill:#000000;fill-opacity:1;stroke:none;stroke-width:0.26458332"
       x="42.238216"
       y="63.166004"
       id="text3842"><tspan
         sodipodi:role="line"
         id="tspan3840"
         x="42.238216"
         y="65.797707"
         style="font-style:normal;font-variant:normal;font-weight:normal;font-stretch:normal;font-family:Ubuntu;-inkscape-font-specification:Ubuntu;stroke-width:0.26458332" /></text>
    <text
       xml:space="preserve"
       style="font-style:normal;font-variant:normal;font-weight:normal;font-stretch:normal;font-size:2.82222223px;line-height:1.25;font-family:LCD2;-inkscape-font-specification:LCD2;letter-spacing:0px;word-spacing:0px;fill:#000000;fill-opacity:1;stroke:none;stroke-width:0.26458332"
       x="58.467678"
       y="54.843204"
       id="text3846"><tspan
         sodipodi:role="line"
         id="tspan3844"
         x="58.467678"
         y="57.4739"
         style="stroke-width:0.26458332" /></text>
    <rect
       style="fill:#ff0000;fill-rule:evenodd;stroke-width:0.26458332"
       id="rect96"
       width="10.16"
       height="10.16"
       x="4.9400001"
       y="16.303047"
       inkscape:label="const1" />
    <ellipse
       style="fill:#00ff00;fill-opacity:1;stroke-width:0.26458332"
       id="circle143"
       cx="10.281001"
       cy="47.419998"
       inkscape:label="in2_2"
       rx="5.079999"
       ry="5.0799999" />
    <circle
       style="fill:#00ff00;fill-opacity:1;stroke-width:0.26458332"
       id="circle213"
       cx="10.281"
       cy="74.019936"
       r="5.0799999"
       inkscape:label="in1_2" />
    <rect
       inkscape:label="const2"
       y="57.303013"
       x="4.9400001"
       height="10.16"
       width="10.16"
       id="rect215"
       style="fill:#ff0000;fill-rule:evenodd;stroke-width:0.26458332" />
    <ellipse
       ry="5.0799999"
       rx="5.079999"
       inkscape:label="in2_2"
       cy="88.41996"
       cx="10.281001"
       id="ellipse217"
       style="fill:#00ff00;fill-opacity:1;stroke-width:0.26458332" />
  </g>
</svg>
