<?xml version="1.0" encoding="UTF-8" standalone="no"?>
<!-- Created with Inkscape (http://www.inkscape.org/) -->

<svg
   width="25.4mm"
   height="128.5mm"
   viewBox="0 0 25.4 128.5"
   version="1.1"
   id="svg8"
   inkscape:version="1.1.1 (3bf5ae0d25, 2021-09-20)"
   sodipodi:docname="OP.svg"
   xmlns:inkscape="http://www.inkscape.org/namespaces/inkscape"
   xmlns:sodipodi="http://sodipodi.sourceforge.net/DTD/sodipodi-0.dtd"
   xmlns="http://www.w3.org/2000/svg"
   xmlns:svg="http://www.w3.org/2000/svg"
   xmlns:rdf="http://www.w3.org/1999/02/22-rdf-syntax-ns#"
   xmlns:cc="http://creativecommons.org/ns#"
   xmlns:dc="http://purl.org/dc/elements/1.1/">
  <defs
     id="defs2" />
  <sodipodi:namedview
     id="base"
     pagecolor="#ffffff"
     bordercolor="#666666"
     borderopacity="1.0"
     inkscape:pageopacity="0.0"
     inkscape:pageshadow="2"
     inkscape:zoom="1.6029288"
     inkscape:cx="-46.477423"
     inkscape:cy="248.91935"
     inkscape:document-units="mm"
     inkscape:current-layer="layer1"
     showgrid="true"
     inkscape:snap-global="false"
     inkscape:window-width="1364"
     inkscape:window-height="373"
     inkscape:window-x="0"
     inkscape:window-y="18"
     inkscape:window-maximized="0"
     inkscape:snap-object-midpoints="true"
     inkscape:snap-others="true"
     inkscape:snap-bbox="true"
     inkscape:snap-bbox-midpoints="true"
     inkscape:pagecheckerboard="0">
    <inkscape:grid
       type="xygrid"
       id="grid10"
       units="mm"
       spacingx="5.0800001"
       spacingy="5.0800001"
       originx="2.7755576e-17"
       originy="1.4"
       dotted="false"
       empspacing="4" />
  </sodipodi:namedview>
  <metadata
     id="metadata5">
    <rdf:RDF>
      <cc:Work
         rdf:about="">
        <dc:format>image/svg+xml</dc:format>
        <dc:type
           rdf:resource="http://purl.org/dc/dcmitype/StillImage" />
        <dc:title />
      </cc:Work>
    </rdf:RDF>
  </metadata>
  <g
     inkscape:label="Layer 1"
     inkscape:groupmode="layer"
     id="layer1"
     transform="translate(0,-168.5)"
     style="display:inline">
    <rect
       style="fill:#e6e6e6;fill-rule:evenodd;stroke-width:0.56602728"
       id="rect3886"
       width="25.4"
       height="128.49359"
       x="-1.3148792e-07"
       y="168.50589" />
    <text
       xml:space="preserve"
       style="font-style:normal;font-variant:normal;font-weight:normal;font-stretch:normal;font-size:5.64444px;line-height:1.25;font-family:'alarm clock';-inkscape-font-specification:'alarm clock';letter-spacing:0px;word-spacing:0px;fill:#000000;fill-opacity:1;stroke:none;stroke-width:0.264583"
       x="-66.469711"
       y="158.17523"
       id="text3721" />
    <text
       xml:space="preserve"
       style="font-style:normal;font-variant:normal;font-weight:normal;font-stretch:normal;font-size:5.64444px;line-height:1.25;font-family:'alarm clock';-inkscape-font-specification:'alarm clock';letter-spacing:0px;word-spacing:0px;fill:#000000;fill-opacity:1;stroke:none;stroke-width:0.264583"
       x="-90.703468"
       y="188.98671"
       id="text3725" />
    <text
       xml:space="preserve"
       style="font-style:normal;font-variant:normal;font-weight:normal;font-stretch:normal;font-size:5.64444px;line-height:1.25;font-family:LCD2;-inkscape-font-specification:LCD2;letter-spacing:0px;word-spacing:0px;fill:#000000;fill-opacity:1;stroke:none;stroke-width:0.264583"
       x="-90.357269"
       y="179.29321"
       id="text3729" />
    <g
       aria-label="kocmoc"
       style="font-style:normal;font-variant:normal;font-weight:normal;font-stretch:normal;font-size:5.64444447px;line-height:1.25;font-family:LCD2;-inkscape-font-specification:LCD2;letter-spacing:0px;word-spacing:0px;fill:#000000;fill-opacity:1;stroke:none;stroke-width:0.26458332"
       id="text3737"
       transform="translate(-7.9,-4.40001)">
      <path
         d="m 14.992489,290.64292 -1.241777,1.81187 h -0.208845 l -0.141111,-0.16933 1.399822,-2.032 h 0.248356 z m -2.263422,1.5748 -0.265289,0.23707 h -0.186266 l 0.276577,-1.9812 0.242711,-0.20884 0.180623,0.20884 z m 0.699911,0.29351 -0.242711,0.20885 h -0.445911 l -0.186267,-0.20885 0.242711,-0.20884 h 0.451556 z m 0.987778,2.25778 H 14.1684 l -0.829733,-2.032 0.186267,-0.16933 h 0.208844 l 0.733778,1.81187 z m -2.015067,-0.22013 -0.237066,0.20884 -0.180623,-0.20884 0.276578,-1.9812 h 0.186267 l 0.2032,0.23707 z"
         style="stroke-width:0.26458332"
         id="path3897"
         inkscape:connector-curvature="0" />
      <path
         d="m 15.319861,294.26666 -0.242711,0.20884 -0.180623,-0.20884 0.237067,-1.69898 h 0.186267 l 0.2032,0.23707 z m 0.282222,-2.04894 -0.265289,0.23707 h -0.186267 l 0.237067,-1.69898 0.242711,-0.20884 0.180622,0.20884 z m 2.026356,-1.75542 -0.242712,0.21449 h -1.478844 l -0.180622,-0.21449 0.237066,-0.20884 h 1.478845 z m 0.01129,1.99249 h -0.186266 l -0.2032,-0.23707 0.208844,-1.46191 0.237067,-0.20884 0.180622,0.20884 z m -0.254,1.81187 -0.242711,0.20884 -0.180622,-0.20884 0.208845,-1.46191 0.265288,-0.23707 h 0.186267 z m -0.333022,0.29351 -0.242711,0.20884 H 15.33115 l -0.180623,-0.20884 0.237067,-0.21449 h 1.484489 z"
         style="stroke-width:0.26458332"
         id="path3899"
         inkscape:connector-curvature="0" />
      <path
         d="m 20.749816,290.98723 -0.242711,0.21449 -0.180622,-0.21449 0.03387,-0.23142 0.237067,-0.20884 0.180622,0.20884 z m -0.220133,-0.52493 -0.242711,0.21449 h -1.478845 l -0.180622,-0.21449 0.237067,-0.20884 h 1.478844 z m -2.026356,1.75542 -0.265289,0.23707 h -0.186266 l 0.237066,-1.69898 0.242711,-0.20884 0.180623,0.20884 z m -0.282222,2.04894 -0.242711,0.20884 -0.180622,-0.20884 0.237066,-1.69898 h 0.186267 l 0.2032,0.23707 z m 1.732844,0.29351 -0.242711,0.20884 h -1.478844 l -0.180622,-0.20884 0.237066,-0.21449 h 1.484489 z m 0.333023,-0.29351 -0.242712,0.20884 -0.180622,-0.20884 0.03387,-0.23143 0.242711,-0.21448 0.180622,0.21448 z"
         style="stroke-width:0.26458332"
         id="path3901"
         inkscape:connector-curvature="0" />
      <path
         d="m 23.453505,292.44915 h -0.186267 l -0.2032,-0.23143 0.248356,-1.75542 0.242711,-0.20884 0.180622,0.20884 z m -0.417689,-0.86925 -0.598311,0.87489 h -0.174978 l 0.06773,-0.48542 0.8128,-1.21356 h 0.01129 z m -0.891822,0.87489 h -0.174978 l -0.3556,-0.87489 0.112889,-0.82409 h 0.01129 l 0.474133,1.21356 z m -0.733778,-0.23707 -0.270933,0.23143 h -0.186267 l 0.282222,-1.98685 0.237067,-0.20884 0.186267,0.20884 z m 1.749778,2.34245 -0.242711,0.20884 -0.180622,-0.20884 0.248355,-1.75542 0.265289,-0.23143 h 0.186267 z m -2.077156,0 -0.242711,0.20884 -0.180622,-0.20884 0.276578,-1.98685 h 0.186267 l 0.2032,0.23143 z"
         style="stroke-width:0.26458332"
         id="path3903"
         inkscape:connector-curvature="0" />
      <path
         d="m 24.040517,294.26666 -0.242711,0.20884 -0.180623,-0.20884 0.237067,-1.69898 h 0.186267 l 0.2032,0.23707 z m 0.282222,-2.04894 -0.265289,0.23707 h -0.186267 l 0.237067,-1.69898 0.242711,-0.20884 0.180622,0.20884 z m 2.026355,-1.75542 -0.242711,0.21449 h -1.478844 l -0.180622,-0.21449 0.237066,-0.20884 h 1.478845 z m 0.01129,1.99249 h -0.186266 l -0.2032,-0.23707 0.208844,-1.46191 0.237067,-0.20884 0.180622,0.20884 z m -0.254,1.81187 -0.242711,0.20884 -0.180622,-0.20884 0.208844,-1.46191 0.265289,-0.23707 h 0.186267 z m -0.333022,0.29351 -0.242711,0.20884 h -1.478844 l -0.180623,-0.20884 0.237067,-0.21449 h 1.484489 z"
         style="stroke-width:0.26458332"
         id="path3905"
         inkscape:connector-curvature="0" />
      <path
         d="m 29.470473,290.98723 -0.242711,0.21449 -0.180622,-0.21449 0.03387,-0.23142 0.237067,-0.20884 0.180622,0.20884 z m -0.220133,-0.52493 -0.242712,0.21449 h -1.478844 l -0.180622,-0.21449 0.237066,-0.20884 h 1.478845 z m -2.026356,1.75542 -0.265289,0.23707 h -0.186267 l 0.237067,-1.69898 0.242711,-0.20884 0.180622,0.20884 z m -0.282222,2.04894 -0.242711,0.20884 -0.180623,-0.20884 0.237067,-1.69898 h 0.186267 l 0.2032,0.23707 z m 1.732844,0.29351 -0.242711,0.20884 h -1.478844 l -0.180623,-0.20884 0.237067,-0.21449 h 1.484489 z m 0.333022,-0.29351 -0.242711,0.20884 -0.180622,-0.20884 0.03387,-0.23143 0.242711,-0.21448 0.180622,0.21448 z"
         style="stroke-width:0.26458332"
         id="path3907"
         inkscape:connector-curvature="0" />
    </g>
    <rect
       style="fill:#000000;fill-rule:evenodd;stroke-width:0.22503524"
       id="rect113"
       width="9.6695967"
       height="15.153036"
       x="8.0659962"
       y="266.98297"
       rx="1.8990544" />
    <g
       aria-label="OUT"
       style="font-style:normal;font-variant:normal;font-weight:normal;font-stretch:normal;font-size:2.82222223px;line-height:1.25;font-family:Ubuntu;-inkscape-font-specification:Ubuntu;letter-spacing:0px;word-spacing:0px;fill:#ffffff;fill-opacity:1;stroke:none;stroke-width:0.26458332"
       id="text117"
       transform="translate(-11.200002,-1.4001328)">
      <path
         d="m 21.316,280.90234 q 0,-0.25118 0.07338,-0.44309 0.0762,-0.19191 0.2032,-0.31891 0.129822,-0.12982 0.299156,-0.19473 0.172155,-0.0649 0.364066,-0.0649 0.189089,0 0.3556,0.0649 0.169334,0.0649 0.296334,0.19473 0.127,0.127 0.200377,0.31891 0.0762,0.19191 0.0762,0.44309 0,0.25118 -0.0762,0.44309 -0.07338,0.19191 -0.200377,0.32173 -0.127,0.127 -0.296334,0.19192 -0.166511,0.0649 -0.3556,0.0649 -0.191911,0 -0.364066,-0.0649 -0.169334,-0.0649 -0.299156,-0.19192 -0.127,-0.12982 -0.2032,-0.32173 -0.07338,-0.19191 -0.07338,-0.44309 z m 0.287867,0 q 0,0.1778 0.04515,0.32456 0.04516,0.14393 0.127,0.24553 0.08467,0.1016 0.2032,0.15805 0.121356,0.0536 0.270934,0.0536 0.149578,0 0.268111,-0.0536 0.118533,-0.0564 0.200378,-0.15805 0.08467,-0.1016 0.129822,-0.24553 0.04516,-0.14676 0.04516,-0.32456 0,-0.1778 -0.04516,-0.32173 -0.04516,-0.14676 -0.129822,-0.24836 -0.08184,-0.1016 -0.200378,-0.15522 -0.118533,-0.0564 -0.268111,-0.0564 -0.149578,0 -0.270934,0.0564 -0.118533,0.0536 -0.2032,0.15522 -0.08184,0.1016 -0.127,0.24836 -0.04515,0.14393 -0.04515,0.32173 z"
         style="fill:#ffffff;stroke-width:0.26458332"
         id="path88"
         inkscape:connector-curvature="0" />
      <path
         d="m 24.318844,281.92399 q -0.191911,0 -0.333022,-0.0593 -0.141111,-0.0593 -0.231422,-0.16087 -0.09031,-0.10442 -0.135467,-0.24553 -0.04233,-0.14111 -0.04233,-0.3048 v -1.22767 h 0.273755 v 1.19663 q 0,0.29351 0.129823,0.42615 0.129822,0.13265 0.338666,0.13265 0.104422,0 0.189089,-0.031 0.08749,-0.0339 0.149578,-0.1016 0.06209,-0.0677 0.09596,-0.17215 0.03387,-0.10725 0.03387,-0.254 v -1.19663 H 25.0611 v 1.22767 q 0,0.16369 -0.04516,0.3048 -0.04233,0.14111 -0.135467,0.24553 -0.09031,0.1016 -0.231422,0.16087 -0.138289,0.0593 -0.3302,0.0593 z"
         style="fill:#ffffff;stroke-width:0.26458332"
         id="path90"
         inkscape:connector-curvature="0" />
      <path
         d="m 26.839088,279.92585 v 0.23707 h -0.615244 v 1.71873 h -0.273756 v -1.71873 h -0.615244 v -0.23707 z"
         style="fill:#ffffff;stroke-width:0.26458332"
         id="path92"
         inkscape:connector-curvature="0" />
    </g>
    <rect
       style="fill:#cccccc;fill-opacity:1;fill-rule:evenodd;stroke-width:0.26458332"
       id="rect4678"
       width="22.283428"
       height="27.895552"
       x="1.6506243"
       y="220.0809"
       ry="3.4663112" />
    <g
       aria-label="PM"
       style="font-style:normal;font-variant:normal;font-weight:normal;font-stretch:normal;font-size:2.82222223px;line-height:1.25;font-family:Ubuntu;-inkscape-font-specification:Ubuntu;letter-spacing:0px;word-spacing:0px;display:inline;fill:#000000;fill-opacity:1;stroke:none;stroke-width:0.26458332"
       id="text3854"
       transform="translate(-3.1004433,153.50013)">
      <path
         d="m 8.8767308,90.528313 q 0.4120445,0 0.6321778,0.158044 0.2229556,0.155222 0.2229556,0.465667 0,0.169333 -0.062089,0.290689 -0.059267,0.118533 -0.1749778,0.194733 -0.1128889,0.07338 -0.2765778,0.107244 -0.1636889,0.03387 -0.3697111,0.03387 h -0.217311 v 0.725311 H 8.3574419 V 90.57629 Q 8.4731531,90.54807 8.6142642,90.5396 8.7581975,90.52831 8.8767308,90.52831 Z m 0.022578,0.239888 q -0.1749778,0 -0.2681111,0.0085 v 0.767645 h 0.2060222 q 0.1411111,0 0.254,-0.01693 0.1128889,-0.01975 0.1890889,-0.06209 0.079022,-0.04515 0.1213556,-0.121355 0.042333,-0.0762 0.042333,-0.194734 0,-0.112888 -0.045155,-0.186266 Q 9.3565094,90.889591 9.280309,90.84726 9.206931,90.8021 9.1081535,90.78517 9.0093755,90.76824 8.899309,90.76824 Z"
         style="stroke-width:0.26458332"
         id="path3856"
         inkscape:connector-curvature="0" />
      <path
         d="m 10.951064,92.232935 q -0.02822,-0.06773 -0.0762,-0.172156 -0.04516,-0.104422 -0.09878,-0.225778 -0.05362,-0.121355 -0.115711,-0.248355 -0.05927,-0.129822 -0.112889,-0.242711 -0.05362,-0.115711 -0.1016,-0.206022 -0.04516,-0.09031 -0.07338,-0.138289 -0.03104,0.333022 -0.0508,0.722489 -0.01975,0.386644 -0.03387,0.781755 H 10.01973 q 0.01129,-0.254 0.0254,-0.510822 0.01411,-0.259645 0.03104,-0.508 0.01975,-0.251178 0.03951,-0.488245 0.02258,-0.237066 0.04798,-0.448733 h 0.239889 q 0.0762,0.124178 0.163688,0.293511 0.08749,0.169334 0.174978,0.3556 0.08749,0.183445 0.169334,0.369711 0.08184,0.183445 0.149577,0.335845 0.06773,-0.1524 0.149578,-0.335845 0.08184,-0.186266 0.169333,-0.369711 0.08749,-0.186266 0.174978,-0.3556 0.08749,-0.169333 0.163689,-0.293511 h 0.239889 q 0.09596,0.945445 0.143933,1.9558 h -0.268111 q -0.01411,-0.395111 -0.03387,-0.781755 -0.01976,-0.389467 -0.0508,-0.722489 -0.02822,0.04798 -0.0762,0.138289 -0.04516,0.09031 -0.09878,0.206022 -0.05362,0.112889 -0.115711,0.242711 -0.05927,0.127 -0.112889,0.248355 -0.05362,0.121356 -0.1016,0.225778 -0.04516,0.104422 -0.07338,0.172156 z"
         style="stroke-width:0.26458332"
         id="path3858"
         inkscape:connector-curvature="0" />
    </g>
    <text
       xml:space="preserve"
       style="font-style:normal;font-variant:normal;font-weight:normal;font-stretch:normal;font-size:2.82222px;line-height:1.25;font-family:Ubuntu;-inkscape-font-specification:Ubuntu;letter-spacing:0px;word-spacing:0px;fill:#000000;fill-opacity:1;stroke:none;stroke-width:0.264583"
       x="43.652069"
       y="238.87505"
       id="text70" />
    <text
       xml:space="preserve"
       style="font-style:normal;font-variant:normal;font-weight:normal;font-stretch:normal;font-size:2.82222px;line-height:1.25;font-family:Ubuntu;-inkscape-font-specification:Ubuntu;letter-spacing:0px;word-spacing:0px;fill:#000000;fill-opacity:1;stroke:none;stroke-width:0.264583"
       x="38.2831"
       y="206.42778"
       id="text74" />
    <text
       xml:space="preserve"
       style="font-style:normal;font-variant:normal;font-weight:normal;font-stretch:normal;font-size:2.82222px;line-height:1.25;font-family:Ubuntu;-inkscape-font-specification:Ubuntu;letter-spacing:0px;word-spacing:0px;fill:#000000;fill-opacity:1;stroke:none;stroke-width:0.264583"
       x="44.118938"
       y="237.00758"
       id="text78" />
    <g
       aria-label="V/OCT"
       style="font-style:normal;font-variant:normal;font-weight:normal;font-stretch:normal;font-size:2.82222223px;line-height:1.25;font-family:Ubuntu;-inkscape-font-specification:Ubuntu;letter-spacing:0px;word-spacing:0px;fill:#000000;fill-opacity:1;stroke:none;stroke-width:0.26458332"
       id="text82"
       transform="translate(-33.215333,44.58669)">
      <path
         d="m 43.841195,217.0774 q -0.107244,0.31045 -0.206022,0.57574 -0.09596,0.26246 -0.189089,0.49953 -0.09313,0.23707 -0.186267,0.45438 -0.09031,0.21449 -0.186266,0.42615 h -0.256822 q -0.09596,-0.21166 -0.189089,-0.42615 -0.09031,-0.21731 -0.186267,-0.45438 -0.09313,-0.23707 -0.191911,-0.49953 -0.09878,-0.26529 -0.2032,-0.57574 h 0.301978 q 0.1524,0.44591 0.299155,0.85796 0.146756,0.41204 0.301978,0.77329 0.155222,-0.35842 0.301978,-0.77047 0.146755,-0.41487 0.296333,-0.86078 z"
         style="stroke-width:0.26458332"
         id="path84"
         inkscape:connector-curvature="0" />
      <path
         d="m 43.880698,219.55531 h -0.268112 l 0.956734,-2.73191 h 0.262466 z"
         style="stroke-width:0.26458332"
         id="path86"
         inkscape:connector-curvature="0" />
      <path
         d="m 44.854358,218.05389 q 0,-0.25118 0.07338,-0.44309 0.0762,-0.19191 0.2032,-0.31891 0.129822,-0.12982 0.299156,-0.19473 0.172155,-0.0649 0.364066,-0.0649 0.189089,0 0.3556,0.0649 0.169334,0.0649 0.296334,0.19473 0.127,0.127 0.200378,0.31891 0.0762,0.19191 0.0762,0.44309 0,0.25118 -0.0762,0.44309 -0.07338,0.19191 -0.200378,0.32173 -0.127,0.127 -0.296334,0.19192 -0.166511,0.0649 -0.3556,0.0649 -0.191911,0 -0.364066,-0.0649 -0.169334,-0.0649 -0.299156,-0.19192 -0.127,-0.12982 -0.2032,-0.32173 -0.07338,-0.19191 -0.07338,-0.44309 z m 0.287867,0 q 0,0.1778 0.04516,0.32456 0.04516,0.14393 0.127,0.24553 0.08467,0.1016 0.2032,0.15805 0.121355,0.0536 0.270933,0.0536 0.149578,0 0.268111,-0.0536 0.118533,-0.0564 0.200378,-0.15805 0.08467,-0.1016 0.129822,-0.24553 0.04516,-0.14676 0.04516,-0.32456 0,-0.1778 -0.04516,-0.32173 -0.04516,-0.14676 -0.129822,-0.24836 -0.08184,-0.1016 -0.200378,-0.15522 -0.118533,-0.0564 -0.268111,-0.0564 -0.149578,0 -0.270933,0.0564 -0.118534,0.0536 -0.2032,0.15522 -0.08184,0.1016 -0.127,0.24836 -0.04516,0.14393 -0.04516,0.32173 z"
         style="stroke-width:0.26458332"
         id="path89"
         inkscape:connector-curvature="0" />
      <path
         d="m 47.970091,219.07554 q -0.206022,0 -0.375355,-0.0677 -0.169334,-0.0677 -0.290689,-0.19755 -0.121356,-0.12982 -0.189089,-0.31891 -0.06491,-0.19191 -0.06491,-0.43745 0,-0.24553 0.07338,-0.43462 0.0762,-0.19191 0.2032,-0.32173 0.127,-0.12983 0.296334,-0.19756 0.169333,-0.0677 0.361244,-0.0677 0.121356,0 0.217311,0.0169 0.09878,0.0169 0.169334,0.0395 0.07338,0.0226 0.118533,0.0452 0.04516,0.0226 0.06209,0.0339 l -0.07902,0.22578 q -0.0254,-0.0169 -0.07338,-0.0367 -0.04798,-0.0197 -0.110067,-0.0395 -0.05927,-0.0198 -0.132644,-0.031 -0.07056,-0.0141 -0.143934,-0.0141 -0.155222,0 -0.2794,0.0536 -0.124177,0.0536 -0.211666,0.15522 -0.08749,0.1016 -0.135467,0.24836 -0.04516,0.14393 -0.04516,0.32455 0,0.17498 0.03951,0.31891 0.04233,0.14394 0.124177,0.24836 0.08185,0.1016 0.2032,0.15804 0.124178,0.0564 0.287867,0.0564 0.189089,0 0.313267,-0.0395 0.124178,-0.0395 0.186266,-0.0706 l 0.07056,0.22578 q -0.01976,0.0141 -0.07056,0.0367 -0.0508,0.0198 -0.127,0.0395 -0.0762,0.0198 -0.1778,0.0339 -0.1016,0.0141 -0.220133,0.0141 z"
         style="stroke-width:0.26458332"
         id="path91"
         inkscape:connector-curvature="0" />
      <path
         d="m 50.233506,217.0774 v 0.23707 h -0.615245 v 1.71873 h -0.273755 v -1.71873 h -0.615245 v -0.23707 z"
         style="stroke-width:0.26458332"
         id="path93"
         inkscape:connector-curvature="0" />
    </g>
    <path
       style="color:#000000;fill:#000000;stroke-dasharray:0.275281, 0.550561;-inkscape-stroke:none"
       d="m 6.7324219,226.46289 v 0.27539 h 0.2753906 v -0.27539 z m 0,0.82617 v 0.27539 h 0.2753906 v -0.27539 z m 0,0.82617 v 0.27539 h 0.2753906 v -0.27539 z m 0,0.82618 v 0.27539 h 0.2753906 v -0.27539 z m 0,0.82421 v 0.2754 h 0.2753906 v -0.2754 z m 0,0.82618 v 0.27539 h 0.2753906 v -0.27539 z m 0,0.82617 v 0.27539 h 0.2753906 v -0.27539 z m 0,0.82617 v 0.27539 h 0.2753906 v -0.27539 z m 0,0.82617 v 0.27539 h 0.2753906 v -0.27539 z m 0,0.82617 v 0.27539 h 0.2753906 v -0.27539 z m 0,0.82422 v 0.27539 h 0.2753906 v -0.27539 z m 0,0.82617 v 0.2754 h 0.2753906 v -0.2754 z m 0,0.82618 v 0.27539 h 0.2753906 v -0.27539 z m 0,0.82617 v 0.27539 h 0.2753906 v -0.27539 z"
       id="path106" />
    <g
       aria-label="-"
       style="font-style:normal;font-variant:normal;font-weight:normal;font-stretch:normal;font-size:2.82222223px;line-height:1.25;font-family:Ubuntu;-inkscape-font-specification:Ubuntu;letter-spacing:0px;word-spacing:0px;fill:#000000;fill-opacity:1;stroke:none;stroke-width:0.26458332"
       id="text111"
       transform="translate(-4.1253136,0.08253122)">
      <path
         d="M 8.0101191,222.26698 H 8.707208 v 0.24553 H 8.0101191 Z"
         style="stroke-width:0.26458332"
         id="path120"
         inkscape:connector-curvature="0" />
    </g>
    <g
       aria-label="+"
       style="font-style:normal;font-variant:normal;font-weight:normal;font-stretch:normal;font-size:2.82222223px;line-height:1.25;font-family:Ubuntu;-inkscape-font-specification:Ubuntu;letter-spacing:0px;word-spacing:0px;fill:#000000;fill-opacity:1;stroke:none;stroke-width:0.26458332"
       id="text115"
       transform="translate(-2.2686907,0.148)">
      <path
         d="m 11.120955,222.20585 h 0.5334 v -0.58138 h 0.225778 v 0.58138 h 0.5334 v 0.22295 h -0.5334 v 0.5842 h -0.225778 v -0.5842 h -0.5334 z"
         style="stroke-width:0.26458332"
         id="path117"
         inkscape:connector-curvature="0" />
    </g>
    <text
       xml:space="preserve"
       style="font-style:normal;font-variant:normal;font-weight:normal;font-stretch:normal;font-size:5.64444px;line-height:1.25;font-family:Ubuntu;-inkscape-font-specification:Ubuntu;letter-spacing:0px;word-spacing:0px;fill:#000000;fill-opacity:1;stroke:none;stroke-width:0.264583"
       x="36.313736"
       y="183.43704"
       id="text84" />
    <g
       aria-label="op"
       style="font-style:normal;font-variant:normal;font-weight:normal;font-stretch:normal;font-size:5.64444447px;line-height:1.25;font-family:LCD2;-inkscape-font-specification:LCD2;letter-spacing:0px;word-spacing:0px;fill:#000000;fill-opacity:1;stroke:none;stroke-width:0.26458332"
       id="text88"
       transform="translate(-28.900286,-8.19986)">
      <path
         d="m 39.503619,187.72151 -0.242711,0.20884 -0.180622,-0.20884 0.237066,-1.69898 h 0.186267 l 0.2032,0.23707 z m 0.282222,-2.04894 -0.265289,0.23707 h -0.186266 l 0.237066,-1.69898 0.242711,-0.20884 0.180623,0.20884 z m 2.026356,-1.75542 -0.242711,0.21449 h -1.478845 l -0.180622,-0.21449 0.237067,-0.20884 h 1.478844 z m 0.01129,1.99249 H 41.63722 l -0.2032,-0.23707 0.208844,-1.46191 0.237067,-0.20884 0.180622,0.20884 z m -0.254,1.81187 -0.242711,0.20884 -0.180623,-0.20884 0.208845,-1.46191 0.265289,-0.23707 h 0.186266 z m -0.333023,0.29351 -0.242711,0.20884 h -1.478844 l -0.180622,-0.20884 0.237066,-0.21449 h 1.484489 z"
         style="stroke-width:0.26458332"
         id="path94"
         inkscape:connector-curvature="0" />
      <path
         d="m 44.769885,185.67257 -0.237066,0.20885 -0.180623,-0.20885 0.2032,-1.46191 0.242712,-0.20884 0.180622,0.20884 z m -0.04516,-1.75542 -0.242711,0.21449 H 42.99753 l -0.361245,-0.42333 h 1.907823 z m -2.026356,1.75542 -0.270933,0.23707 h -0.186267 l 0.299156,-2.11667 0.361244,0.41769 z m 1.738489,0.29351 -0.242711,0.20885 h -1.484489 l -0.180622,-0.20885 0.237067,-0.20884 h 1.490133 z m -2.077155,2.03765 -0.237067,0.20884 -0.180622,-0.20884 0.276577,-1.9812 h 0.186267 l 0.2032,0.23707 z"
         style="stroke-width:0.26458332"
         id="path96"
         inkscape:connector-curvature="0" />
    </g>
    <g
       aria-label="OFFSET"
       style="font-style:normal;font-variant:normal;font-weight:normal;font-stretch:normal;font-size:2.82222223px;line-height:1.25;font-family:Ubuntu;-inkscape-font-specification:Ubuntu;letter-spacing:0px;word-spacing:0px;fill:#000000;fill-opacity:1;stroke:none;stroke-width:0.26458332"
       id="text194"
       transform="translate(-28.626923,17.64697)">
      <path
         d="m 36.807549,197.31335 q 0,-0.25118 0.07338,-0.44309 0.0762,-0.19191 0.2032,-0.31891 0.129822,-0.12982 0.299155,-0.19473 0.172156,-0.0649 0.364067,-0.0649 0.189089,0 0.3556,0.0649 0.169333,0.0649 0.296333,0.19473 0.127,0.127 0.200378,0.31891 0.0762,0.19191 0.0762,0.44309 0,0.25118 -0.0762,0.44309 -0.07338,0.19191 -0.200378,0.32173 -0.127,0.127 -0.296333,0.19192 -0.166511,0.0649 -0.3556,0.0649 -0.191911,0 -0.364067,-0.0649 -0.169333,-0.0649 -0.299155,-0.19192 -0.127,-0.12982 -0.2032,-0.32173 -0.07338,-0.19191 -0.07338,-0.44309 z m 0.287866,0 q 0,0.1778 0.04516,0.32456 0.04516,0.14393 0.127,0.24553 0.08467,0.1016 0.2032,0.15805 0.121356,0.0536 0.270933,0.0536 0.149578,0 0.268111,-0.0536 0.118534,-0.0565 0.200378,-0.15805 0.08467,-0.1016 0.129822,-0.24553 0.04516,-0.14676 0.04516,-0.32456 0,-0.1778 -0.04516,-0.32173 -0.04516,-0.14676 -0.129822,-0.24836 -0.08184,-0.1016 -0.200378,-0.15522 -0.118533,-0.0564 -0.268111,-0.0564 -0.149577,0 -0.270933,0.0564 -0.118533,0.0536 -0.2032,0.15522 -0.08184,0.1016 -0.127,0.24836 -0.04516,0.14393 -0.04516,0.32173 z"
         style="stroke-width:0.26458332"
         id="path207"
         inkscape:connector-curvature="0" />
      <path
         d="m 39.082259,198.29266 v -1.9558 h 1.179689 v 0.23425 h -0.905933 v 0.58984 h 0.804333 v 0.23142 h -0.804333 v 0.90029 z"
         style="stroke-width:0.26458332"
         id="path209"
         inkscape:connector-curvature="0" />
      <path
         d="m 40.597789,198.29266 v -1.9558 h 1.179689 v 0.23425 h -0.905933 v 0.58984 h 0.804333 v 0.23142 h -0.804333 v 0.90029 z"
         style="stroke-width:0.26458332"
         id="path211"
         inkscape:connector-curvature="0" />
      <path
         d="m 42.567697,198.09793 q 0.428978,0 0.428978,-0.29351 0,-0.0903 -0.03951,-0.1524 -0.03669,-0.0649 -0.1016,-0.11007 -0.06491,-0.048 -0.149577,-0.0818 -0.08185,-0.0339 -0.174978,-0.0677 -0.107245,-0.0367 -0.2032,-0.0818 -0.09596,-0.048 -0.166511,-0.11007 -0.07056,-0.0649 -0.112889,-0.1524 -0.03951,-0.0875 -0.03951,-0.21166 0,-0.25683 0.174978,-0.40076 0.174977,-0.14393 0.4826,-0.14393 0.1778,0 0.321733,0.0395 0.146755,0.0367 0.214489,0.0818 l -0.08749,0.22296 q -0.05927,-0.0367 -0.1778,-0.0706 -0.115711,-0.0367 -0.270933,-0.0367 -0.07902,0 -0.146756,0.0169 -0.06773,0.0169 -0.118533,0.0508 -0.0508,0.0339 -0.08185,0.0875 -0.02822,0.0508 -0.02822,0.12135 0,0.079 0.03104,0.13265 0.03104,0.0536 0.08749,0.096 0.05644,0.0395 0.129823,0.0734 0.0762,0.0339 0.166511,0.0677 0.127,0.0508 0.231422,0.1016 0.107244,0.0508 0.183444,0.12136 0.07902,0.0705 0.121356,0.16933 0.04233,0.096 0.04233,0.23425 0,0.25682 -0.189089,0.39511 -0.186266,0.13829 -0.527755,0.13829 -0.115711,0 -0.214489,-0.0169 -0.09596,-0.0141 -0.172156,-0.0339 -0.0762,-0.0226 -0.132644,-0.0452 -0.05362,-0.0254 -0.08467,-0.0423 l 0.08185,-0.22578 q 0.06491,0.0367 0.197555,0.0818 0.132645,0.0452 0.324556,0.0452 z"
         style="stroke-width:0.26458332"
         id="path213"
         inkscape:connector-curvature="0" />
      <path
         d="m 43.61474,198.29266 v -1.9558 h 1.1938 v 0.23425 h -0.920045 v 0.58138 h 0.818445 v 0.2286 h -0.818445 v 0.67733 h 0.9906 v 0.23424 z"
         style="stroke-width:0.26458332"
         id="path215"
         inkscape:connector-curvature="0" />
      <path
         d="m 46.532916,196.33686 v 0.23707 h -0.615245 v 1.71873 h -0.273755 v -1.71873 h -0.615245 v -0.23707 z"
         style="stroke-width:0.26458332"
         id="path217"
         inkscape:connector-curvature="0" />
    </g>
    <g
       aria-label="SCALE"
       style="font-style:normal;font-variant:normal;font-weight:normal;font-stretch:normal;font-size:2.82222223px;line-height:1.25;font-family:Ubuntu;-inkscape-font-specification:Ubuntu;letter-spacing:0px;word-spacing:0px;fill:#000000;fill-opacity:1;stroke:none;stroke-width:0.26458332"
       id="text86"
       transform="translate(-18.128419,4.1265609)">
      <path
         d="m 27.932389,193.97137 q 0.428978,0 0.428978,-0.29351 0,-0.0903 -0.03951,-0.1524 -0.03669,-0.0649 -0.1016,-0.11006 -0.06491,-0.048 -0.149578,-0.0819 -0.08185,-0.0339 -0.174978,-0.0677 -0.107244,-0.0367 -0.2032,-0.0819 -0.09596,-0.048 -0.166511,-0.11006 -0.07056,-0.0649 -0.112889,-0.1524 -0.03951,-0.0875 -0.03951,-0.21167 0,-0.25682 0.174978,-0.40076 0.174978,-0.14393 0.4826,-0.14393 0.1778,0 0.321733,0.0395 0.146756,0.0367 0.214489,0.0819 l -0.08749,0.22295 q -0.05927,-0.0367 -0.1778,-0.0705 -0.115711,-0.0367 -0.270933,-0.0367 -0.07902,0 -0.146756,0.0169 -0.06773,0.0169 -0.118533,0.0508 -0.0508,0.0339 -0.08185,0.0875 -0.02822,0.0508 -0.02822,0.12136 0,0.079 0.03104,0.13264 0.03104,0.0536 0.08749,0.096 0.05644,0.0395 0.129822,0.0734 0.0762,0.0339 0.166511,0.0677 0.127,0.0508 0.231422,0.1016 0.107245,0.0508 0.183445,0.12135 0.07902,0.0706 0.121355,0.16934 0.04233,0.096 0.04233,0.23424 0,0.25682 -0.189088,0.39511 -0.186267,0.13829 -0.527756,0.13829 -0.115711,0 -0.214489,-0.0169 -0.09596,-0.0141 -0.172155,-0.0339 -0.0762,-0.0226 -0.132645,-0.0452 -0.05362,-0.0254 -0.08467,-0.0423 l 0.08185,-0.22578 q 0.06491,0.0367 0.197555,0.0819 0.132645,0.0452 0.324556,0.0452 z"
         style="stroke-width:0.26458332"
         id="path95"
         inkscape:connector-curvature="0" />
      <path
         d="m 29.820454,194.20844 q -0.206022,0 -0.375355,-0.0677 -0.169333,-0.0677 -0.290689,-0.19756 -0.121356,-0.12982 -0.189089,-0.31891 -0.06491,-0.19191 -0.06491,-0.43744 0,-0.24554 0.07338,-0.43463 0.0762,-0.19191 0.2032,-0.32173 0.127,-0.12982 0.296333,-0.19756 0.169333,-0.0677 0.361245,-0.0677 0.121355,0 0.217311,0.0169 0.09878,0.0169 0.169333,0.0395 0.07338,0.0226 0.118533,0.0452 0.04516,0.0226 0.06209,0.0339 l -0.07902,0.22578 q -0.0254,-0.0169 -0.07338,-0.0367 -0.04798,-0.0198 -0.110066,-0.0395 -0.05927,-0.0198 -0.132645,-0.031 -0.07055,-0.0141 -0.143933,-0.0141 -0.155222,0 -0.2794,0.0536 -0.124178,0.0536 -0.211667,0.15522 -0.08749,0.1016 -0.135467,0.24836 -0.04515,0.14393 -0.04515,0.32456 0,0.17497 0.03951,0.31891 0.04233,0.14393 0.124178,0.24835 0.08184,0.1016 0.2032,0.15805 0.124178,0.0564 0.287866,0.0564 0.189089,0 0.313267,-0.0395 0.124178,-0.0395 0.186267,-0.0706 l 0.07055,0.22578 q -0.01975,0.0141 -0.07055,0.0367 -0.0508,0.0198 -0.127,0.0395 -0.0762,0.0198 -0.1778,0.0339 -0.1016,0.0141 -0.220134,0.0141 z"
         style="stroke-width:0.26458332"
         id="path97"
         inkscape:connector-curvature="0" />
      <path
         d="m 32.097983,194.16611 q -0.04798,-0.127 -0.09031,-0.24836 -0.04233,-0.12418 -0.08749,-0.25118 h -0.886178 l -0.1778,0.49954 h -0.285044 q 0.112889,-0.31045 0.211666,-0.57291 0.09878,-0.26529 0.191912,-0.50236 0.09596,-0.23707 0.189088,-0.45156 0.09313,-0.21731 0.194734,-0.42897 h 0.251178 q 0.1016,0.21166 0.194733,0.42897 0.09313,0.21449 0.186267,0.45156 0.09596,0.23707 0.194733,0.50236 0.09878,0.26246 0.211667,0.57291 z m -0.256822,-0.72531 q -0.09031,-0.24554 -0.180622,-0.47414 -0.08749,-0.23142 -0.183445,-0.44309 -0.09878,0.21167 -0.189089,0.44309 -0.08749,0.2286 -0.174978,0.47414 z"
         style="stroke-width:0.26458332"
         id="path99"
         inkscape:connector-curvature="0" />
      <path
         d="m 33.839289,193.92904 v 0.23707 h -1.176867 v -1.9558 h 0.273756 v 1.71873 z"
         style="stroke-width:0.26458332"
         id="path101"
         inkscape:connector-curvature="0" />
      <path
         d="m 34.127153,194.16611 v -1.9558 h 1.1938 v 0.23424 h -0.920044 v 0.58138 h 0.818444 v 0.2286 h -0.818444 v 0.67733 h 0.9906 v 0.23425 z"
         style="stroke-width:0.26458332"
         id="path103"
         inkscape:connector-curvature="0" />
    </g>
    <text
       xml:space="preserve"
       style="font-style:normal;font-variant:normal;font-weight:normal;font-stretch:normal;font-size:2.82222px;line-height:1.25;font-family:Ubuntu;-inkscape-font-specification:Ubuntu;letter-spacing:0px;word-spacing:0px;fill:#000000;fill-opacity:1;stroke:none;stroke-width:0.264583"
       x="36.313736"
       y="228.49908"
       id="text3791" />
    <text
       xml:space="preserve"
       style="font-style:normal;font-variant:normal;font-weight:normal;font-stretch:normal;font-size:2.82222px;line-height:1.25;font-family:LCD2;-inkscape-font-specification:LCD2;letter-spacing:0px;word-spacing:0px;fill:#000000;fill-opacity:1;stroke:none;stroke-width:0.264583"
       x="39.945107"
       y="220.0809"
       id="text3795" />
    <g
       aria-label="RST"
       style="font-style:normal;font-variant:normal;font-weight:normal;font-stretch:normal;font-size:2.82222223px;line-height:1.25;font-family:Ubuntu;-inkscape-font-specification:Ubuntu;letter-spacing:0px;word-spacing:0px;fill:#000000;fill-opacity:1;stroke:none;stroke-width:0.26458332"
       id="text3799"
       transform="translate(-25.08949,25.55063)">
      <path
         d="m 42.630116,219.59257 q 0.04516,0.0564 0.112889,0.14957 0.07056,0.0903 0.143933,0.2032 0.07338,0.11007 0.143934,0.23143 0.07338,0.12135 0.124177,0.23424 h -0.299155 q -0.05644,-0.10724 -0.124178,-0.21731 -0.06491,-0.11007 -0.132644,-0.20884 -0.06773,-0.1016 -0.135467,-0.18909 -0.06491,-0.0875 -0.118533,-0.1524 -0.03669,0.003 -0.0762,0.003 -0.03669,0 -0.0762,0 h -0.245534 v 0.76482 h -0.273755 v -1.92758 q 0.115711,-0.0282 0.256822,-0.0367 0.143933,-0.0113 0.262467,-0.0113 0.412044,0 0.626533,0.15522 0.217311,0.15522 0.217311,0.46284 0,0.19474 -0.104422,0.33302 -0.1016,0.13829 -0.301978,0.20603 z m -0.414867,-0.91723 q -0.174977,0 -0.268111,0.008 v 0.7366 h 0.194734 q 0.141111,0 0.254,-0.0141 0.112889,-0.0141 0.189089,-0.0536 0.07902,-0.0395 0.121355,-0.11007 0.04233,-0.0734 0.04233,-0.19191 0,-0.11007 -0.04233,-0.18344 -0.04233,-0.0734 -0.115711,-0.11572 -0.07056,-0.0423 -0.169333,-0.0593 -0.09596,-0.0169 -0.206023,-0.0169 z"
         style="stroke-width:0.26458332"
         id="path3801"
         inkscape:connector-curvature="0" />
      <path
         d="m 43.902938,220.21628 q 0.428977,0 0.428977,-0.29351 0,-0.0903 -0.03951,-0.1524 -0.03669,-0.0649 -0.1016,-0.11007 -0.06491,-0.048 -0.149578,-0.0818 -0.08184,-0.0339 -0.174977,-0.0677 -0.107245,-0.0367 -0.2032,-0.0818 -0.09596,-0.048 -0.166511,-0.11007 -0.07056,-0.0649 -0.112889,-0.1524 -0.03951,-0.0875 -0.03951,-0.21167 0,-0.25682 0.174977,-0.40075 0.174978,-0.14393 0.4826,-0.14393 0.1778,0 0.321734,0.0395 0.146755,0.0367 0.214489,0.0818 l -0.08749,0.22296 q -0.05927,-0.0367 -0.1778,-0.0706 -0.115711,-0.0367 -0.270934,-0.0367 -0.07902,0 -0.146755,0.0169 -0.06773,0.0169 -0.118534,0.0508 -0.0508,0.0339 -0.08184,0.0875 -0.02822,0.0508 -0.02822,0.12136 0,0.079 0.03104,0.13264 0.03104,0.0536 0.08749,0.096 0.05645,0.0395 0.129822,0.0734 0.0762,0.0339 0.166511,0.0677 0.127,0.0508 0.231423,0.1016 0.107244,0.0508 0.183444,0.12136 0.07902,0.0705 0.121356,0.16933 0.04233,0.096 0.04233,0.23424 0,0.25683 -0.189089,0.39512 -0.186267,0.13828 -0.527755,0.13828 -0.115712,0 -0.214489,-0.0169 -0.09596,-0.0141 -0.172156,-0.0339 -0.0762,-0.0226 -0.132644,-0.0451 -0.05362,-0.0254 -0.08467,-0.0423 l 0.08184,-0.22578 q 0.06491,0.0367 0.197556,0.0818 0.132644,0.0452 0.324556,0.0452 z"
         style="stroke-width:0.26458332"
         id="path3803"
         inkscape:connector-curvature="0" />
      <path
         d="m 46.25667,218.45521 v 0.23707 h -0.615245 v 1.71873 H 45.36767 v -1.71873 h -0.615245 v -0.23707 z"
         style="stroke-width:0.26458332"
         id="path3805"
         inkscape:connector-curvature="0" />
    </g>
  </g>
  <g
     inkscape:groupmode="layer"
     id="layer2"
     inkscape:label="components"
     style="display:none">
    <circle
       style="fill:#0000ff;fill-opacity:1;stroke-width:0.26458332"
       id="path3763"
       cx="12.881"
       cy="103.29977"
       r="5.0799999"
       inkscape:label="output" />
    <rect
       style="fill:#ff0000;fill-rule:evenodd;stroke-width:0.26458332"
       id="rect4124"
       width="10.16"
       height="10.16"
       x="7.8400002"
       y="16.239994"
       inkscape:label="ratio" />
    <circle
       inkscape:label="phase_mod"
       r="5.0799999"
       cy="68.819954"
       cx="6.9809937"
       id="circle4126"
       style="fill:#00ff00;fill-opacity:1;stroke-width:0.26458332" />
    <rect
       inkscape:label="offset"
       y="33.703053"
       x="7.8400002"
       height="10.16"
       width="10.16"
       id="rect3819"
       style="fill:#ff0000;fill-rule:evenodd;stroke-width:0.26458332" />
    <text
       xml:space="preserve"
       style="font-style:normal;font-variant:normal;font-weight:normal;font-stretch:normal;font-size:2.82222px;line-height:1.25;font-family:Ubuntu;-inkscape-font-specification:Ubuntu;letter-spacing:0px;word-spacing:0px;fill:#000000;fill-opacity:1;stroke:none;stroke-width:0.264583"
       x="42.238216"
       y="63.166004"
       id="text3842" />
    <text
       xml:space="preserve"
       style="font-style:normal;font-variant:normal;font-weight:normal;font-stretch:normal;font-size:2.82222px;line-height:1.25;font-family:LCD2;-inkscape-font-specification:LCD2;letter-spacing:0px;word-spacing:0px;fill:#000000;fill-opacity:1;stroke:none;stroke-width:0.264583"
       x="58.467678"
       y="54.843204"
       id="text3846" />
    <circle
       style="fill:#00ff00;fill-opacity:1;stroke-width:0.26458332"
       id="circle3861"
       cx="12.881"
       cy="86.727005"
       r="5.0799999"
       inkscape:label="cv" />
    <rect
       style="fill:#ff0000;fill-rule:evenodd;stroke-width:0.26458332"
       id="rect96"
       width="10.16"
       height="10.16"
       x="1.64"
       y="52.103001"
       inkscape:label="index" />
    <circle
       style="fill:#00ff00;fill-opacity:1;stroke-width:0.26458332"
       id="circle3787"
       cx="18.674999"
       cy="68.819954"
       r="5.0799999"
       inkscape:label="reset" />
    <rect
       inkscape:label="phase"
       y="52.103001"
       x="13.595"
       height="10.16"
       width="10.16"
       id="rect3808"
       style="fill:#ff0000;fill-rule:evenodd;stroke-width:0.26458332" />
  </g>
</svg>
