<?xml version="1.0" encoding="UTF-8" standalone="no"?>
<!-- Created with Inkscape (http://www.inkscape.org/) -->

<svg
   xmlns:dc="http://purl.org/dc/elements/1.1/"
   xmlns:cc="http://creativecommons.org/ns#"
   xmlns:rdf="http://www.w3.org/1999/02/22-rdf-syntax-ns#"
   xmlns:svg="http://www.w3.org/2000/svg"
   xmlns="http://www.w3.org/2000/svg"
   xmlns:sodipodi="http://sodipodi.sourceforge.net/DTD/sodipodi-0.dtd"
   xmlns:inkscape="http://www.inkscape.org/namespaces/inkscape"
   width="30.48mm"
   height="128.5mm"
   viewBox="0 0 30.479999 128.5"
   version="1.1"
   id="svg8"
   inkscape:version="0.92.4 5da689c313, 2019-01-14"
   sodipodi:docname="SKF.svg">
  <defs
     id="defs2" />
  <sodipodi:namedview
     id="base"
     pagecolor="#ffffff"
     bordercolor="#666666"
     borderopacity="1.0"
     inkscape:pageopacity="0.0"
     inkscape:pageshadow="2"
     inkscape:zoom="1.27"
     inkscape:cx="-125.27132"
     inkscape:cy="234.59062"
     inkscape:document-units="mm"
     inkscape:current-layer="layer1"
     showgrid="true"
     inkscape:snap-global="false"
     inkscape:window-width="1366"
     inkscape:window-height="750"
     inkscape:window-x="0"
     inkscape:window-y="18"
     inkscape:window-maximized="0"
     inkscape:snap-object-midpoints="true"
     inkscape:snap-others="true"
     inkscape:snap-bbox="true"
     inkscape:snap-bbox-midpoints="true">
    <inkscape:grid
       type="xygrid"
       id="grid10"
       units="mm"
       spacingx="5.0800001"
       spacingy="5.0800001"
       originx="2.7755576e-17"
       originy="1.4"
       dotted="false"
       empspacing="4" />
  </sodipodi:namedview>
  <metadata
     id="metadata5">
    <rdf:RDF>
      <cc:Work
         rdf:about="">
        <dc:format>image/svg+xml</dc:format>
        <dc:type
           rdf:resource="http://purl.org/dc/dcmitype/StillImage" />
        <dc:title />
      </cc:Work>
    </rdf:RDF>
  </metadata>
  <g
     inkscape:label="Layer 1"
     inkscape:groupmode="layer"
     id="layer1"
     transform="translate(0,-168.5)"
     style="display:inline">
    <rect
       style="fill:#ececec;fill-rule:evenodd;stroke-width:0.26255989"
       id="rect121"
       width="30.449783"
       height="128.44557"
       x="0.012003265"
       y="168.52054" />
    <rect
       style="fill:#cccccc;fill-rule:evenodd;stroke-width:0.24953793"
       id="rect119"
       width="12.816254"
       height="37.390556"
       x="14.973"
       y="247.36954"
       rx="2.2566571" />
    <text
       xml:space="preserve"
       style="font-style:normal;font-variant:normal;font-weight:normal;font-stretch:normal;font-size:5.64444447px;line-height:1.25;font-family:'alarm clock';-inkscape-font-specification:'alarm clock';letter-spacing:0px;word-spacing:0px;fill:#000000;fill-opacity:1;stroke:none;stroke-width:0.26458332"
       x="-66.469711"
       y="158.17523"
       id="text3721"><tspan
         sodipodi:role="line"
         id="tspan3719"
         x="-66.469711"
         y="163.27023"
         style="font-style:normal;font-variant:normal;font-weight:normal;font-stretch:normal;font-family:'alarm clock';-inkscape-font-specification:'alarm clock';stroke-width:0.26458332" /></text>
    <text
       xml:space="preserve"
       style="font-style:normal;font-variant:normal;font-weight:normal;font-stretch:normal;font-size:5.64444447px;line-height:1.25;font-family:'alarm clock';-inkscape-font-specification:'alarm clock';letter-spacing:0px;word-spacing:0px;fill:#000000;fill-opacity:1;stroke:none;stroke-width:0.26458332"
       x="-90.703468"
       y="188.98671"
       id="text3725"><tspan
         sodipodi:role="line"
         id="tspan3723"
         x="-90.703468"
         y="194.08171"
         style="font-style:normal;font-variant:normal;font-weight:normal;font-stretch:normal;font-family:'alarm clock';-inkscape-font-specification:'alarm clock';stroke-width:0.26458332" /></text>
    <text
       xml:space="preserve"
       style="font-style:normal;font-variant:normal;font-weight:normal;font-stretch:normal;font-size:5.64444447px;line-height:1.25;font-family:LCD2;-inkscape-font-specification:LCD2;letter-spacing:0px;word-spacing:0px;fill:#000000;fill-opacity:1;stroke:none;stroke-width:0.26458332"
       x="-90.357269"
       y="179.29321"
       id="text3729"><tspan
         sodipodi:role="line"
         id="tspan3727"
         x="-90.357269"
         y="184.5546"
         style="font-style:normal;font-variant:normal;font-weight:normal;font-stretch:normal;font-family:LCD2;-inkscape-font-specification:LCD2;stroke-width:0.26458332" /></text>
    <g
       aria-label="kocmoc"
       style="font-style:normal;font-variant:normal;font-weight:normal;font-stretch:normal;font-size:5.64444447px;line-height:1.25;font-family:LCD2;-inkscape-font-specification:LCD2;letter-spacing:0px;word-spacing:0px;fill:#000000;fill-opacity:1;stroke:none;stroke-width:0.26458332"
       id="text3737"
       transform="translate(-5.1,-4.00001)">
      <path
         d="m 14.992489,290.64292 -1.241777,1.81187 h -0.208845 l -0.141111,-0.16933 1.399822,-2.032 h 0.248356 z m -2.263422,1.5748 -0.265289,0.23707 h -0.186266 l 0.276577,-1.9812 0.242711,-0.20884 0.180623,0.20884 z m 0.699911,0.29351 -0.242711,0.20885 h -0.445911 l -0.186267,-0.20885 0.242711,-0.20884 h 0.451556 z m 0.987778,2.25778 H 14.1684 l -0.829733,-2.032 0.186267,-0.16933 h 0.208844 l 0.733778,1.81187 z m -2.015067,-0.22013 -0.237066,0.20884 -0.180623,-0.20884 0.276578,-1.9812 h 0.186267 l 0.2032,0.23707 z"
         style="stroke-width:0.26458332"
         id="path3897"
         inkscape:connector-curvature="0" />
      <path
         d="m 15.319861,294.26666 -0.242711,0.20884 -0.180623,-0.20884 0.237067,-1.69898 h 0.186267 l 0.2032,0.23707 z m 0.282222,-2.04894 -0.265289,0.23707 h -0.186267 l 0.237067,-1.69898 0.242711,-0.20884 0.180622,0.20884 z m 2.026356,-1.75542 -0.242712,0.21449 h -1.478844 l -0.180622,-0.21449 0.237066,-0.20884 h 1.478845 z m 0.01129,1.99249 h -0.186266 l -0.2032,-0.23707 0.208844,-1.46191 0.237067,-0.20884 0.180622,0.20884 z m -0.254,1.81187 -0.242711,0.20884 -0.180622,-0.20884 0.208845,-1.46191 0.265288,-0.23707 h 0.186267 z m -0.333022,0.29351 -0.242711,0.20884 H 15.33115 l -0.180623,-0.20884 0.237067,-0.21449 h 1.484489 z"
         style="stroke-width:0.26458332"
         id="path3899"
         inkscape:connector-curvature="0" />
      <path
         d="m 20.749816,290.98723 -0.242711,0.21449 -0.180622,-0.21449 0.03387,-0.23142 0.237067,-0.20884 0.180622,0.20884 z m -0.220133,-0.52493 -0.242711,0.21449 h -1.478845 l -0.180622,-0.21449 0.237067,-0.20884 h 1.478844 z m -2.026356,1.75542 -0.265289,0.23707 h -0.186266 l 0.237066,-1.69898 0.242711,-0.20884 0.180623,0.20884 z m -0.282222,2.04894 -0.242711,0.20884 -0.180622,-0.20884 0.237066,-1.69898 h 0.186267 l 0.2032,0.23707 z m 1.732844,0.29351 -0.242711,0.20884 h -1.478844 l -0.180622,-0.20884 0.237066,-0.21449 h 1.484489 z m 0.333023,-0.29351 -0.242712,0.20884 -0.180622,-0.20884 0.03387,-0.23143 0.242711,-0.21448 0.180622,0.21448 z"
         style="stroke-width:0.26458332"
         id="path3901"
         inkscape:connector-curvature="0" />
      <path
         d="m 23.453505,292.44915 h -0.186267 l -0.2032,-0.23143 0.248356,-1.75542 0.242711,-0.20884 0.180622,0.20884 z m -0.417689,-0.86925 -0.598311,0.87489 h -0.174978 l 0.06773,-0.48542 0.8128,-1.21356 h 0.01129 z m -0.891822,0.87489 h -0.174978 l -0.3556,-0.87489 0.112889,-0.82409 h 0.01129 l 0.474133,1.21356 z m -0.733778,-0.23707 -0.270933,0.23143 h -0.186267 l 0.282222,-1.98685 0.237067,-0.20884 0.186267,0.20884 z m 1.749778,2.34245 -0.242711,0.20884 -0.180622,-0.20884 0.248355,-1.75542 0.265289,-0.23143 h 0.186267 z m -2.077156,0 -0.242711,0.20884 -0.180622,-0.20884 0.276578,-1.98685 h 0.186267 l 0.2032,0.23143 z"
         style="stroke-width:0.26458332"
         id="path3903"
         inkscape:connector-curvature="0" />
      <path
         d="m 24.040517,294.26666 -0.242711,0.20884 -0.180623,-0.20884 0.237067,-1.69898 h 0.186267 l 0.2032,0.23707 z m 0.282222,-2.04894 -0.265289,0.23707 h -0.186267 l 0.237067,-1.69898 0.242711,-0.20884 0.180622,0.20884 z m 2.026355,-1.75542 -0.242711,0.21449 h -1.478844 l -0.180622,-0.21449 0.237066,-0.20884 h 1.478845 z m 0.01129,1.99249 h -0.186266 l -0.2032,-0.23707 0.208844,-1.46191 0.237067,-0.20884 0.180622,0.20884 z m -0.254,1.81187 -0.242711,0.20884 -0.180622,-0.20884 0.208844,-1.46191 0.265289,-0.23707 h 0.186267 z m -0.333022,0.29351 -0.242711,0.20884 h -1.478844 l -0.180623,-0.20884 0.237067,-0.21449 h 1.484489 z"
         style="stroke-width:0.26458332"
         id="path3905"
         inkscape:connector-curvature="0" />
      <path
         d="m 29.470473,290.98723 -0.242711,0.21449 -0.180622,-0.21449 0.03387,-0.23142 0.237067,-0.20884 0.180622,0.20884 z m -0.220133,-0.52493 -0.242712,0.21449 h -1.478844 l -0.180622,-0.21449 0.237066,-0.20884 h 1.478845 z m -2.026356,1.75542 -0.265289,0.23707 h -0.186267 l 0.237067,-1.69898 0.242711,-0.20884 0.180622,0.20884 z m -0.282222,2.04894 -0.242711,0.20884 -0.180623,-0.20884 0.237067,-1.69898 h 0.186267 l 0.2032,0.23707 z m 1.732844,0.29351 -0.242711,0.20884 h -1.478844 l -0.180623,-0.20884 0.237067,-0.21449 h 1.484489 z m 0.333022,-0.29351 -0.242711,0.20884 -0.180622,-0.20884 0.03387,-0.23143 0.242711,-0.21448 0.180622,0.21448 z"
         style="stroke-width:0.26458332"
         id="path3907"
         inkscape:connector-curvature="0" />
    </g>
    <g
       aria-label="IN"
       style="font-style:normal;font-variant:normal;font-weight:normal;font-stretch:normal;font-size:2.82222223px;line-height:1.25;font-family:Ubuntu;-inkscape-font-specification:Ubuntu;letter-spacing:0px;word-spacing:0px;fill:#000000;fill-opacity:1;stroke:none;stroke-width:0.26458332"
       id="text3967"
       transform="translate(-1.1999966,2.99996)">
      <path
         d="m 9.0793763,276.96791 h 0.2737555 v 1.9558 H 9.0793763 Z"
         style="stroke-width:0.26458332"
         id="path3980"
         inkscape:connector-curvature="0" />
      <path
         d="m 11.179107,278.92371 q -0.06209,-0.10443 -0.143933,-0.23425 -0.07902,-0.12982 -0.172156,-0.26811 -0.09313,-0.14111 -0.194733,-0.28504 -0.09878,-0.14394 -0.197556,-0.27658 -0.09878,-0.13547 -0.191911,-0.254 -0.09313,-0.11854 -0.172155,-0.20885 v 1.52683 H 9.8385515 v -1.9558 h 0.2173115 q 0.132644,0.14111 0.282222,0.3302 0.1524,0.18626 0.299155,0.38664 0.149578,0.19756 0.2794,0.38947 0.132645,0.19191 0.222956,0.34149 v -1.4478 h 0.268111 v 1.9558 z"
         style="stroke-width:0.26458332"
         id="path3982"
         inkscape:connector-curvature="0" />
    </g>
    <rect
       style="fill:#000000;fill-rule:evenodd;stroke-width:0.22503524"
       id="rect113"
       width="9.6695967"
       height="15.153036"
       x="16.765768"
       y="268.38309"
       rx="1.8990544" />
    <g
       aria-label="GAIN"
       style="font-style:normal;font-variant:normal;font-weight:normal;font-stretch:normal;font-size:2.82222223px;line-height:1.25;font-family:Ubuntu;-inkscape-font-specification:Ubuntu;letter-spacing:0px;word-spacing:0px;fill:#000000;fill-opacity:1;stroke:none;stroke-width:0.26458332"
       id="text3990"
       transform="translate(-1.1999966,2.99996)">
      <path
         d="m 8.3498221,247.60899 h 0.2737556 v 0.9144 q -0.033867,0.0113 -0.098778,0.0254 -0.062089,0.0141 -0.1467556,0.0282 -0.081844,0.0141 -0.1806222,0.0226 -0.098778,0.0113 -0.2003778,0.0113 -0.2060222,0 -0.3753555,-0.0677 -0.1693333,-0.0677 -0.2906889,-0.19755 -0.1213556,-0.12982 -0.1890889,-0.31891 -0.064911,-0.18909 -0.064911,-0.43463 0,-0.24553 0.073378,-0.43462 0.0762,-0.19191 0.2032,-0.32173 0.127,-0.12982 0.2963333,-0.19756 0.1721556,-0.0677 0.3668889,-0.0677 0.1326444,0 0.2342444,0.0169 0.1044223,0.0169 0.1778,0.0395 0.073378,0.0226 0.1185334,0.0452 0.047978,0.0226 0.064911,0.0339 l -0.087489,0.2286 q -0.081844,-0.0536 -0.2173111,-0.0875 -0.1354667,-0.0367 -0.2765778,-0.0367 -0.1495778,0 -0.2737555,0.0536 -0.1213556,0.0536 -0.2088445,0.15522 -0.084667,0.1016 -0.1326444,0.24836 -0.047978,0.14393 -0.047978,0.32455 0,0.17498 0.039511,0.31892 0.042333,0.14393 0.1241778,0.24835 0.084667,0.1016 0.2060222,0.15805 0.1241778,0.0564 0.2906889,0.0564 0.1185333,0 0.2003778,-0.0113 0.084667,-0.0141 0.1213555,-0.0254 z"
         style="stroke-width:0.26458332"
         id="path3996"
         inkscape:connector-curvature="0" />
      <path
         d="m 10.359242,248.57137 q -0.04798,-0.127 -0.09031,-0.24836 -0.04233,-0.12418 -0.08749,-0.25118 H 9.2952637 l -0.1778,0.49954 H 8.8324193 q 0.1128889,-0.31045 0.2116667,-0.57292 0.098778,-0.26528 0.1919111,-0.50235 0.095955,-0.23707 0.1890889,-0.45156 0.093133,-0.21731 0.1947333,-0.42897 h 0.2511778 q 0.1016,0.21166 0.1947329,0.42897 0.09313,0.21449 0.186267,0.45156 0.09596,0.23707 0.194733,0.50235 0.09878,0.26247 0.211667,0.57292 z m -0.256823,-0.72532 q -0.09031,-0.24553 -0.1806219,-0.47413 -0.087489,-0.23142 -0.1834445,-0.44309 -0.098778,0.21167 -0.1890889,0.44309 -0.087489,0.2286 -0.1749777,0.47413 z"
         style="stroke-width:0.26458332"
         id="path3998"
         inkscape:connector-curvature="0" />
      <path
         d="m 10.923681,246.61557 h 0.273755 v 1.9558 h -0.273755 z"
         style="stroke-width:0.26458332"
         id="path4000"
         inkscape:connector-curvature="0" />
      <path
         d="m 13.023412,248.57137 q -0.06209,-0.10443 -0.143934,-0.23425 -0.07902,-0.12982 -0.172155,-0.26811 -0.09313,-0.14111 -0.194734,-0.28504 -0.09878,-0.14394 -0.197555,-0.27658 -0.09878,-0.13547 -0.191911,-0.254 -0.09313,-0.11854 -0.172156,-0.20885 v 1.52683 h -0.268111 v -1.9558 h 0.217311 q 0.132645,0.14111 0.282222,0.3302 0.1524,0.18626 0.299156,0.38664 0.149578,0.19756 0.2794,0.38947 0.132644,0.19191 0.222956,0.34149 v -1.4478 h 0.268111 v 1.9558 z"
         style="stroke-width:0.26458332"
         id="path4002"
         inkscape:connector-curvature="0" />
    </g>
    <path
       style="color:#000000;font-style:normal;font-variant:normal;font-weight:normal;font-stretch:normal;font-size:medium;line-height:normal;font-family:sans-serif;font-variant-ligatures:normal;font-variant-position:normal;font-variant-caps:normal;font-variant-numeric:normal;font-variant-alternates:normal;font-feature-settings:normal;text-indent:0;text-align:start;text-decoration:none;text-decoration-line:none;text-decoration-style:solid;text-decoration-color:#000000;letter-spacing:normal;word-spacing:normal;text-transform:none;writing-mode:lr-tb;direction:ltr;text-orientation:mixed;dominant-baseline:auto;baseline-shift:baseline;text-anchor:start;white-space:normal;shape-padding:0;clip-rule:nonzero;display:inline;overflow:visible;visibility:visible;opacity:1;isolation:auto;mix-blend-mode:normal;color-interpolation:sRGB;color-interpolation-filters:linearRGB;solid-color:#000000;solid-opacity:1;vector-effect:none;fill:#000000;fill-opacity:1;fill-rule:nonzero;stroke:none;stroke-width:0.28162903px;stroke-linecap:butt;stroke-linejoin:miter;stroke-miterlimit:4;stroke-dasharray:none;stroke-dashoffset:0;stroke-opacity:1;color-rendering:auto;image-rendering:auto;shape-rendering:auto;text-rendering:auto;enable-background:accumulate"
       d="m 8.8096835,257.9609 v 15.23828 H 9.110636 V 257.9609 Z"
       id="path3992"
       inkscape:connector-curvature="0" />
    <g
       aria-label="FREQ"
       style="font-style:normal;font-variant:normal;font-weight:normal;font-stretch:normal;font-size:2.82222223px;line-height:1.25;font-family:Ubuntu;-inkscape-font-specification:Ubuntu;letter-spacing:0px;word-spacing:0px;display:inline;fill:#000000;fill-opacity:1;stroke:none;stroke-width:0.26458332"
       id="text4100"
       transform="translate(-5.000313,-24.7001)">
      <path
         d="m 17.013772,223.41986 v -1.9558 h 1.179689 v 0.23425 h -0.905933 v 0.58984 h 0.804333 v 0.23142 h -0.804333 v 0.90029 z"
         style="stroke-width:0.26458332"
         id="path4115"
         inkscape:connector-curvature="0" />
      <path
         d="m 19.486035,222.60142 q 0.04516,0.0564 0.112889,0.14957 0.07056,0.0903 0.143933,0.2032 0.07338,0.11007 0.143934,0.23143 0.07338,0.12135 0.124177,0.23424 h -0.299155 q -0.05645,-0.10724 -0.124178,-0.21731 -0.06491,-0.11007 -0.132644,-0.20884 -0.06773,-0.1016 -0.135467,-0.18909 -0.06491,-0.0875 -0.118533,-0.1524 -0.03669,0.003 -0.0762,0.003 -0.03669,0 -0.0762,0 h -0.245534 v 0.76482 h -0.273755 v -1.92758 q 0.115711,-0.0282 0.256822,-0.0367 0.143933,-0.0113 0.262467,-0.0113 0.412044,0 0.626533,0.15522 0.217311,0.15522 0.217311,0.46284 0,0.19474 -0.104422,0.33302 -0.1016,0.13829 -0.301978,0.20603 z m -0.414867,-0.91723 q -0.174977,0 -0.268111,0.008 v 0.7366 h 0.194734 q 0.141111,0 0.254,-0.0141 0.112889,-0.0141 0.189089,-0.0536 0.07902,-0.0395 0.121355,-0.11007 0.04233,-0.0734 0.04233,-0.19191 0,-0.11007 -0.04233,-0.18344 -0.04233,-0.0734 -0.115711,-0.11572 -0.07056,-0.0423 -0.169333,-0.0593 -0.09596,-0.0169 -0.206023,-0.0169 z"
         style="stroke-width:0.26458332"
         id="path4117"
         inkscape:connector-curvature="0" />
      <path
         d="m 20.304479,223.41986 v -1.9558 h 1.1938 v 0.23425 h -0.920045 v 0.58137 h 0.818445 v 0.2286 h -0.818445 v 0.67734 h 0.9906 v 0.23424 z"
         style="stroke-width:0.26458332"
         id="path4119"
         inkscape:connector-curvature="0" />
      <path
         d="m 21.757916,222.44055 q 0,-0.25118 0.07338,-0.44309 0.0762,-0.19191 0.2032,-0.31891 0.129822,-0.12982 0.299155,-0.19473 0.172156,-0.0649 0.364067,-0.0649 0.189089,0 0.3556,0.0649 0.169333,0.0649 0.296333,0.19473 0.127,0.127 0.200378,0.31891 0.0762,0.19191 0.0762,0.44309 0,0.22013 -0.05645,0.39229 -0.05644,0.17215 -0.158044,0.29915 -0.09878,0.12418 -0.234244,0.2032 -0.132645,0.0762 -0.285045,0.10443 0.0028,0.0649 0.05645,0.11289 0.05644,0.0508 0.141111,0.0847 0.08467,0.0339 0.189089,0.0565 0.104422,0.0226 0.208844,0.0339 l -0.06491,0.21449 q -0.146756,-0.0197 -0.282222,-0.0536 -0.132645,-0.031 -0.242711,-0.0847 -0.107245,-0.0536 -0.180623,-0.13829 -0.07338,-0.0818 -0.09878,-0.20602 -0.1778,-0.0113 -0.335845,-0.0818 -0.158044,-0.0734 -0.273755,-0.20038 -0.115712,-0.12982 -0.183445,-0.31327 -0.06773,-0.18344 -0.06773,-0.42333 z m 0.287866,0 q 0,0.1778 0.04516,0.32456 0.04516,0.14393 0.127,0.24553 0.08467,0.1016 0.2032,0.15804 0.121356,0.0536 0.270933,0.0536 0.149578,0 0.268111,-0.0536 0.118534,-0.0564 0.200378,-0.15804 0.08467,-0.1016 0.129822,-0.24553 0.04516,-0.14676 0.04516,-0.32456 0,-0.1778 -0.04516,-0.32173 -0.04516,-0.14676 -0.129822,-0.24836 -0.08184,-0.1016 -0.200378,-0.15522 -0.118533,-0.0564 -0.268111,-0.0564 -0.149577,0 -0.270933,0.0564 -0.118533,0.0536 -0.2032,0.15522 -0.08184,0.1016 -0.127,0.24836 -0.04516,0.14393 -0.04516,0.32173 z"
         style="stroke-width:0.26458332"
         id="path4121"
         inkscape:connector-curvature="0" />
    </g>
    <g
       aria-label="RESO"
       transform="translate(-5.000313,139.59998)"
       style="font-style:normal;font-variant:normal;font-weight:normal;font-stretch:normal;font-size:2.82222223px;line-height:1.25;font-family:Ubuntu;-inkscape-font-specification:Ubuntu;letter-spacing:0px;word-spacing:0px;display:inline;fill:#000000;fill-opacity:1;stroke:none;stroke-width:0.26458332"
       id="text4096">
      <path
         d="m 17.938046,73.861243 q 0.04516,0.05644 0.112889,0.149578 0.07056,0.09031 0.143933,0.2032 0.07338,0.110066 0.143934,0.231422 0.07338,0.121356 0.124177,0.234244 h -0.299155 q -0.05645,-0.107244 -0.124178,-0.217311 -0.06491,-0.110066 -0.132644,-0.208844 -0.06773,-0.1016 -0.135467,-0.189089 -0.06491,-0.08749 -0.118533,-0.1524 -0.03669,0.0028 -0.0762,0.0028 -0.03669,0 -0.0762,0 h -0.245534 v 0.764822 H 16.981313 V 72.75211 q 0.115711,-0.02822 0.256822,-0.03669 0.143933,-0.01129 0.262467,-0.01129 0.412044,0 0.626533,0.155222 0.217311,0.155222 0.217311,0.462845 0,0.194733 -0.104422,0.333022 -0.1016,0.138289 -0.301978,0.206022 z m -0.414867,-0.917222 q -0.174977,0 -0.268111,0.0085 v 0.7366 h 0.194734 q 0.141111,0 0.254,-0.01411 0.112889,-0.01411 0.189089,-0.05362 0.07902,-0.03951 0.121355,-0.110067 0.04233,-0.07338 0.04233,-0.191911 0,-0.110066 -0.04233,-0.183444 -0.04233,-0.07338 -0.115711,-0.115711 -0.07056,-0.04233 -0.169333,-0.05927 -0.09596,-0.01693 -0.206023,-0.01693 z"
         style="stroke-width:0.26458332"
         id="path4106"
         inkscape:connector-curvature="0" />
      <path
         d="m 18.75649,74.679687 v -1.9558 h 1.1938 v 0.234245 h -0.920045 v 0.581378 h 0.818445 v 0.2286 h -0.818445 v 0.677333 h 0.9906 v 0.234244 z"
         style="stroke-width:0.26458332"
         id="path4108"
         inkscape:connector-curvature="0" />
      <path
         d="m 20.822354,74.484954 q 0.428978,0 0.428978,-0.293511 0,-0.09031 -0.03951,-0.1524 -0.03669,-0.06491 -0.1016,-0.110067 -0.06491,-0.04798 -0.149578,-0.08184 -0.08185,-0.03387 -0.174978,-0.06773 -0.107244,-0.03669 -0.2032,-0.08185 -0.09596,-0.04798 -0.166511,-0.110067 -0.07056,-0.06491 -0.112889,-0.1524 -0.03951,-0.08749 -0.03951,-0.211666 0,-0.256822 0.174978,-0.400756 0.174978,-0.143933 0.4826,-0.143933 0.1778,0 0.321733,0.03951 0.146756,0.03669 0.214489,0.08184 l -0.08749,0.222956 q -0.05927,-0.03669 -0.1778,-0.07056 -0.115711,-0.03669 -0.270933,-0.03669 -0.07902,0 -0.146756,0.01693 -0.06773,0.01693 -0.118533,0.0508 -0.0508,0.03387 -0.08185,0.08749 -0.02822,0.0508 -0.02822,0.121355 0,0.07902 0.03104,0.132645 0.03104,0.05362 0.08749,0.09595 0.05644,0.03951 0.129822,0.07338 0.0762,0.03387 0.166511,0.06773 0.127,0.0508 0.231422,0.1016 0.107245,0.0508 0.183445,0.121356 0.07902,0.07056 0.121355,0.169333 0.04233,0.09596 0.04233,0.234245 0,0.256822 -0.189088,0.395111 -0.186267,0.138289 -0.527756,0.138289 -0.115711,0 -0.214489,-0.01693 -0.09596,-0.01411 -0.172155,-0.03387 -0.0762,-0.02258 -0.132645,-0.04516 -0.05362,-0.0254 -0.08467,-0.04233 l 0.08184,-0.225778 q 0.06491,0.03669 0.197555,0.08184 0.132645,0.04516 0.324556,0.04516 z"
         style="stroke-width:0.26458332"
         id="path4110"
         inkscape:connector-curvature="0" />
      <path
         d="m 21.790375,73.700376 q 0,-0.251177 0.07338,-0.443089 0.0762,-0.191911 0.2032,-0.318911 0.129822,-0.129822 0.299155,-0.194733 0.172156,-0.06491 0.364067,-0.06491 0.189089,0 0.3556,0.06491 0.169333,0.06491 0.296333,0.194733 0.127,0.127 0.200378,0.318911 0.0762,0.191912 0.0762,0.443089 0,0.251178 -0.0762,0.443089 -0.07338,0.191911 -0.200378,0.321734 -0.127,0.127 -0.296333,0.191911 -0.166511,0.06491 -0.3556,0.06491 -0.191911,0 -0.364067,-0.06491 -0.169333,-0.06491 -0.299155,-0.191911 -0.127,-0.129823 -0.2032,-0.321734 -0.07338,-0.191911 -0.07338,-0.443089 z m 0.287867,0 q 0,0.1778 0.04516,0.324556 0.04516,0.143933 0.127,0.245533 0.08467,0.1016 0.2032,0.158045 0.121356,0.05362 0.270934,0.05362 0.149577,0 0.268111,-0.05362 0.118533,-0.05644 0.200377,-0.158045 0.08467,-0.1016 0.129823,-0.245533 0.04515,-0.146756 0.04515,-0.324556 0,-0.1778 -0.04515,-0.321733 -0.04516,-0.146756 -0.129823,-0.248356 -0.08184,-0.1016 -0.200377,-0.155222 -0.118534,-0.05644 -0.268111,-0.05644 -0.149578,0 -0.270934,0.05644 -0.118533,0.05362 -0.2032,0.155222 -0.08184,0.1016 -0.127,0.248356 -0.04516,0.143933 -0.04516,0.321733 z"
         style="stroke-width:0.26458332"
         id="path4112"
         inkscape:connector-curvature="0" />
    </g>
    <g
       aria-label="LP"
       style="font-style:normal;font-variant:normal;font-weight:normal;font-stretch:normal;font-size:2.82222223px;line-height:1.25;font-family:Ubuntu;-inkscape-font-specification:Ubuntu;letter-spacing:0px;word-spacing:0px;fill:#000000;fill-opacity:1;stroke:none;stroke-width:0.26458332"
       id="text4362"
       transform="translate(-8.699424,2.99996)">
      <path
         d="m 30.237291,262.59094 v 0.23706 h -1.176867 v -1.9558 h 0.273755 v 1.71874 z"
         style="stroke-width:0.26458332"
         id="path4374"
         inkscape:connector-curvature="0" />
      <path
         d="m 31.044444,260.85245 q 0.412044,0 0.632177,0.15804 0.222956,0.15522 0.222956,0.46567 0,0.16933 -0.06209,0.29069 -0.05927,0.11853 -0.174978,0.19473 -0.112889,0.0734 -0.276578,0.10725 -0.163688,0.0339 -0.369711,0.0339 h -0.21731 v 0.72531 h -0.273755 v -1.92757 q 0.115711,-0.0282 0.256822,-0.0367 0.143933,-0.0113 0.262467,-0.0113 z m 0.02258,0.23989 q -0.174977,0 -0.268111,0.008 v 0.76765 h 0.206022 q 0.141112,0 0.254,-0.0169 0.112889,-0.0198 0.189089,-0.0621 0.07902,-0.0452 0.121356,-0.12136 0.04233,-0.0762 0.04233,-0.19473 0,-0.11289 -0.04515,-0.18627 -0.04233,-0.0734 -0.118534,-0.11571 -0.07338,-0.0452 -0.172155,-0.0621 -0.09878,-0.0169 -0.208845,-0.0169 z"
         style="stroke-width:0.26458332"
         id="path4376"
         inkscape:connector-curvature="0" />
    </g>
    <g
       aria-label="BP"
       style="font-style:normal;font-variant:normal;font-weight:normal;font-stretch:normal;font-size:2.82222223px;line-height:1.25;font-family:Ubuntu;-inkscape-font-specification:Ubuntu;letter-spacing:0px;word-spacing:0px;fill:#000000;fill-opacity:1;stroke:none;stroke-width:0.26458332"
       id="text4366"
       transform="translate(-3.499446,-4.78882)">
      <path
         d="m 24.333201,255.95625 q -0.05927,0 -0.129822,-0.003 -0.06773,-0.003 -0.138289,-0.008 -0.06773,-0.006 -0.135467,-0.0141 -0.06773,-0.008 -0.124177,-0.0226 v -1.89653 q 0.05644,-0.0141 0.124177,-0.0226 0.06773,-0.008 0.135467,-0.0141 0.07056,-0.006 0.138289,-0.008 0.06773,-0.003 0.127,-0.003 0.169333,0 0.316089,0.0254 0.149578,0.0254 0.256822,0.0875 0.110067,0.0593 0.172156,0.15804 0.06209,0.0988 0.06209,0.24271 0,0.16087 -0.0762,0.26529 -0.0762,0.1016 -0.2032,0.1524 0.172155,0.0508 0.273755,0.16087 0.1016,0.11007 0.1016,0.31044 0,0.29352 -0.217311,0.44309 -0.214489,0.14676 -0.682978,0.14676 z m -0.256822,-0.92851 v 0.68862 q 0.03104,0.003 0.07338,0.006 0.03669,0.003 0.08467,0.006 0.0508,0 0.115712,0 0.121355,0 0.2286,-0.0141 0.110066,-0.0169 0.191911,-0.0564 0.08184,-0.0395 0.129822,-0.11006 0.0508,-0.0706 0.0508,-0.1778 0,-0.096 -0.03669,-0.16087 -0.03669,-0.0677 -0.107244,-0.10724 -0.06773,-0.0395 -0.163689,-0.0565 -0.09596,-0.0169 -0.214489,-0.0169 z m 0,-0.22014 h 0.287867 q 0.1016,0 0.191911,-0.0141 0.09031,-0.0141 0.155222,-0.0508 0.06773,-0.0367 0.104422,-0.096 0.03951,-0.0593 0.03951,-0.14958 0,-0.0847 -0.03951,-0.14111 -0.03951,-0.0593 -0.110066,-0.0931 -0.06773,-0.0367 -0.160867,-0.0536 -0.09313,-0.0169 -0.197556,-0.0169 -0.104422,0 -0.163689,0.003 -0.05927,0.003 -0.107244,0.008 z"
         style="stroke-width:0.26458332"
         id="path4379"
         inkscape:connector-curvature="0" />
      <path
         d="m 26.139422,253.96376 q 0.412045,0 0.632178,0.15804 0.222956,0.15523 0.222956,0.46567 0,0.16933 -0.06209,0.29069 -0.05927,0.11853 -0.174978,0.19473 -0.112889,0.0734 -0.276578,0.10725 -0.163689,0.0339 -0.369711,0.0339 h -0.217311 v 0.72532 h -0.273755 v -1.92758 q 0.115711,-0.0282 0.256822,-0.0367 0.143933,-0.0113 0.262466,-0.0113 z m 0.02258,0.23989 q -0.174978,0 -0.268111,0.008 v 0.76764 h 0.206022 q 0.141111,0 0.254,-0.0169 0.112889,-0.0198 0.189089,-0.0621 0.07902,-0.0452 0.121356,-0.12136 0.04233,-0.0762 0.04233,-0.19473 0,-0.11289 -0.04516,-0.18627 -0.04233,-0.0734 -0.118534,-0.11571 -0.07338,-0.0452 -0.172155,-0.0621 -0.09878,-0.0169 -0.208845,-0.0169 z"
         style="stroke-width:0.26458332"
         id="path4381"
         inkscape:connector-curvature="0" />
    </g>
    <g
       aria-label="OUT"
       style="font-style:normal;font-variant:normal;font-weight:normal;font-stretch:normal;font-size:2.82222223px;line-height:1.25;font-family:Ubuntu;-inkscape-font-specification:Ubuntu;letter-spacing:0px;word-spacing:0px;fill:#ffffff;fill-opacity:1;stroke:none;stroke-width:0.26458332"
       id="text117"
       transform="translate(-2.399574)">
      <path
         d="m 21.316,280.90234 q 0,-0.25118 0.07338,-0.44309 0.0762,-0.19191 0.2032,-0.31891 0.129822,-0.12982 0.299156,-0.19473 0.172155,-0.0649 0.364066,-0.0649 0.189089,0 0.3556,0.0649 0.169334,0.0649 0.296334,0.19473 0.127,0.127 0.200377,0.31891 0.0762,0.19191 0.0762,0.44309 0,0.25118 -0.0762,0.44309 -0.07338,0.19191 -0.200377,0.32173 -0.127,0.127 -0.296334,0.19192 -0.166511,0.0649 -0.3556,0.0649 -0.191911,0 -0.364066,-0.0649 -0.169334,-0.0649 -0.299156,-0.19192 -0.127,-0.12982 -0.2032,-0.32173 -0.07338,-0.19191 -0.07338,-0.44309 z m 0.287867,0 q 0,0.1778 0.04515,0.32456 0.04516,0.14393 0.127,0.24553 0.08467,0.1016 0.2032,0.15805 0.121356,0.0536 0.270934,0.0536 0.149578,0 0.268111,-0.0536 0.118533,-0.0564 0.200378,-0.15805 0.08467,-0.1016 0.129822,-0.24553 0.04516,-0.14676 0.04516,-0.32456 0,-0.1778 -0.04516,-0.32173 -0.04516,-0.14676 -0.129822,-0.24836 -0.08184,-0.1016 -0.200378,-0.15522 -0.118533,-0.0564 -0.268111,-0.0564 -0.149578,0 -0.270934,0.0564 -0.118533,0.0536 -0.2032,0.15522 -0.08184,0.1016 -0.127,0.24836 -0.04515,0.14393 -0.04515,0.32173 z"
         style="fill:#ffffff;stroke-width:0.26458332"
         id="path88"
         inkscape:connector-curvature="0" />
      <path
         d="m 24.318844,281.92399 q -0.191911,0 -0.333022,-0.0593 -0.141111,-0.0593 -0.231422,-0.16087 -0.09031,-0.10442 -0.135467,-0.24553 -0.04233,-0.14111 -0.04233,-0.3048 v -1.22767 h 0.273755 v 1.19663 q 0,0.29351 0.129823,0.42615 0.129822,0.13265 0.338666,0.13265 0.104422,0 0.189089,-0.031 0.08749,-0.0339 0.149578,-0.1016 0.06209,-0.0677 0.09596,-0.17215 0.03387,-0.10725 0.03387,-0.254 v -1.19663 H 25.0611 v 1.22767 q 0,0.16369 -0.04516,0.3048 -0.04233,0.14111 -0.135467,0.24553 -0.09031,0.1016 -0.231422,0.16087 -0.138289,0.0593 -0.3302,0.0593 z"
         style="fill:#ffffff;stroke-width:0.26458332"
         id="path90"
         inkscape:connector-curvature="0" />
      <path
         d="m 26.839088,279.92585 v 0.23707 h -0.615244 v 1.71873 h -0.273756 v -1.71873 h -0.615244 v -0.23707 z"
         style="fill:#ffffff;stroke-width:0.26458332"
         id="path92"
         inkscape:connector-curvature="0" />
    </g>
    <g
       aria-label="SKF"
       style="font-style:normal;font-variant:normal;font-weight:normal;font-stretch:normal;font-size:5.64444447px;line-height:1.25;font-family:LCD2;-inkscape-font-specification:LCD2;letter-spacing:0px;word-spacing:0px;fill:#000000;fill-opacity:1;stroke:none;stroke-width:0.26458332"
       id="text272">
      <path
         d="m 14.237689,174.92621 -0.242711,0.21449 -0.180622,-0.21449 0.03387,-0.23142 0.237066,-0.20884 0.186267,0.20884 z m -0.220133,-0.52493 -0.242711,0.21449 H 12.296 l -0.180622,-0.21449 0.237067,-0.20884 h 1.484489 z m -2.020711,1.75542 -0.242711,0.20885 -0.180623,-0.20885 0.2032,-1.46191 0.242712,-0.20884 0.180622,0.20884 z m 1.732844,0.29351 -0.242711,0.20885 h -1.484489 l -0.180622,-0.20885 0.237067,-0.20884 h 1.490133 z m 0.04516,1.75543 -0.237067,0.20884 -0.180622,-0.20884 0.2032,-1.46191 0.242711,-0.20885 0.180622,0.20885 z m -0.338667,0.29351 -0.242711,0.20884 h -1.478844 l -0.180623,-0.20884 0.237067,-0.21449 h 1.484489 z m -1.732844,-0.29351 -0.242711,0.20884 -0.180623,-0.20884 0.03387,-0.23143 0.237067,-0.21448 0.180622,0.21448 z"
         style="stroke-width:0.26458332"
         id="path86" />
      <path
         d="m 17.155863,174.5819 -1.241777,1.81187 h -0.208845 l -0.141111,-0.16933 1.399822,-2.032 h 0.248356 z m -2.263422,1.5748 -0.265289,0.23707 h -0.186266 l 0.276577,-1.9812 0.242712,-0.20884 0.180622,0.20884 z m 0.699911,0.29351 -0.242711,0.20885 H 14.90373 l -0.186267,-0.20885 0.242712,-0.20884 h 0.451555 z m 0.987778,2.25778 h -0.248355 l -0.829734,-2.032 0.186267,-0.16933 h 0.208844 l 0.733778,1.81187 z m -2.015067,-0.22013 -0.237066,0.20884 -0.180622,-0.20884 0.276577,-1.9812 h 0.186267 l 0.2032,0.23707 z"
         style="stroke-width:0.26458332"
         id="path89" />
      <path
         d="m 19.786168,174.40128 -0.237066,0.21449 h -1.478845 l -0.180622,-0.21449 0.237067,-0.20884 h 1.478844 z m -2.020711,1.75542 -0.265289,0.23707 h -0.186266 l 0.237066,-1.69898 0.242712,-0.20884 0.180622,0.20884 z m 1.394178,0.29351 -0.237067,0.20885 h -1.151466 l -0.180622,-0.20885 0.242711,-0.20884 h 1.145822 z m -1.721555,2.04329 -0.237067,0.20885 -0.180622,-0.20885 0.276577,-1.98684 h 0.186267 l 0.2032,0.23707 z"
         style="stroke-width:0.26458332"
         id="path91" />
    </g>
    <rect
       style="fill:#cccccc;fill-rule:evenodd;stroke-width:0.35578531"
       id="rect154"
       width="26.666666"
       height="27.5"
       x="1.875"
       y="216.58334"
       ry="3.7218046" />
    <g
       aria-label="FM"
       style="font-style:normal;font-variant:normal;font-weight:normal;font-stretch:normal;font-size:2.82222223px;line-height:1.25;font-family:Ubuntu;-inkscape-font-specification:Ubuntu;letter-spacing:0px;word-spacing:0px;fill:#000000;fill-opacity:1;stroke:none;stroke-width:0.26458332"
       id="text91"
       transform="translate(0,-1.80001)">
      <path
         d="m 7.1090212,244.36301 v -1.9558 h 1.1796889 v 0.23424 H 7.3827768 v 0.58985 h 0.8043333 v 0.23142 H 7.3827768 v 0.90029 z"
         style="stroke-width:0.26458332"
         id="path106"
         inkscape:connector-curvature="0" />
      <path
         d="m 9.5022621,244.09207 q -0.028222,-0.0677 -0.0762,-0.17215 -0.045156,-0.10442 -0.098778,-0.22578 -0.053622,-0.12136 -0.1157111,-0.24836 -0.059267,-0.12982 -0.1128889,-0.24271 -0.053622,-0.11571 -0.1016,-0.20602 -0.045155,-0.0903 -0.073378,-0.13829 -0.031044,0.33302 -0.0508,0.72249 -0.019755,0.38665 -0.033867,0.78176 H 8.5709288 q 0.011289,-0.254 0.0254,-0.51083 0.014111,-0.25964 0.031044,-0.508 0.019756,-0.25117 0.039511,-0.48824 0.022578,-0.23707 0.047978,-0.44873 H 8.954751 q 0.0762,0.12417 0.1636889,0.29351 0.087489,0.16933 0.1749778,0.3556 0.087489,0.18344 0.1693333,0.36971 0.081844,0.18344 0.1495778,0.33584 0.067733,-0.1524 0.1495777,-0.33584 0.081844,-0.18627 0.1693334,-0.36971 0.087489,-0.18627 0.1749781,-0.3556 0.08749,-0.16934 0.163689,-0.29351 h 0.239888 q 0.09596,0.94544 0.143934,1.9558 h -0.268111 q -0.01411,-0.39511 -0.03387,-0.78176 -0.01976,-0.38947 -0.0508,-0.72249 -0.02822,0.048 -0.0762,0.13829 -0.04516,0.0903 -0.09878,0.20602 -0.05362,0.11289 -0.115711,0.24271 -0.059267,0.127 -0.1128888,0.24836 -0.053622,0.12136 -0.1016,0.22578 -0.045155,0.10442 -0.073378,0.17215 z"
         style="stroke-width:0.26458332"
         id="path108"
         inkscape:connector-curvature="0" />
    </g>
    <g
       aria-label="V/OCT"
       style="font-style:normal;font-variant:normal;font-weight:normal;font-stretch:normal;font-size:2.82222223px;line-height:1.25;font-family:Ubuntu;-inkscape-font-specification:Ubuntu;letter-spacing:0px;word-spacing:0px;fill:#000000;fill-opacity:1;stroke:none;stroke-width:0.26458332"
       id="text113"
       transform="translate(0.500035,-1.5)">
      <path
         d="m 18.884898,241.98109 q -0.107244,0.31044 -0.206022,0.57573 -0.09596,0.26247 -0.189089,0.49954 -0.09313,0.23706 -0.186266,0.45437 -0.09031,0.21449 -0.186267,0.42616 h -0.256822 q -0.09596,-0.21167 -0.189089,-0.42616 -0.09031,-0.21731 -0.186267,-0.45437 -0.09313,-0.23707 -0.191911,-0.49954 -0.09878,-0.26529 -0.2032,-0.57573 h 0.301978 q 0.1524,0.44591 0.299155,0.85796 0.146756,0.41204 0.301978,0.77328 0.155222,-0.35842 0.301978,-0.77046 0.146755,-0.41487 0.296333,-0.86078 z"
         style="stroke-width:0.26458332"
         id="path115"
         inkscape:connector-curvature="0" />
      <path
         d="M 18.924401,244.459 H 18.65629 l 0.956733,-2.73191 h 0.262467 z"
         style="stroke-width:0.26458332"
         id="path117"
         inkscape:connector-curvature="0" />
      <path
         d="m 19.898062,242.95758 q 0,-0.25118 0.07338,-0.44309 0.0762,-0.19191 0.2032,-0.31891 0.129823,-0.12982 0.299156,-0.19473 0.172155,-0.0649 0.364067,-0.0649 0.189088,0 0.3556,0.0649 0.169333,0.0649 0.296333,0.19473 0.127,0.127 0.200378,0.31891 0.0762,0.19191 0.0762,0.44309 0,0.25118 -0.0762,0.44309 -0.07338,0.19191 -0.200378,0.32173 -0.127,0.127 -0.296333,0.19191 -0.166512,0.0649 -0.3556,0.0649 -0.191912,0 -0.364067,-0.0649 -0.169333,-0.0649 -0.299156,-0.19191 -0.127,-0.12982 -0.2032,-0.32173 -0.07338,-0.19191 -0.07338,-0.44309 z m 0.287866,0 q 0,0.1778 0.04516,0.32455 0.04516,0.14394 0.127,0.24554 0.08467,0.1016 0.2032,0.15804 0.121355,0.0536 0.270933,0.0536 0.149578,0 0.268111,-0.0536 0.118534,-0.0564 0.200378,-0.15804 0.08467,-0.1016 0.129822,-0.24554 0.04516,-0.14675 0.04516,-0.32455 0,-0.1778 -0.04516,-0.32173 -0.04515,-0.14676 -0.129822,-0.24836 -0.08184,-0.1016 -0.200378,-0.15522 -0.118533,-0.0565 -0.268111,-0.0565 -0.149578,0 -0.270933,0.0565 -0.118534,0.0536 -0.2032,0.15522 -0.08185,0.1016 -0.127,0.24836 -0.04516,0.14393 -0.04516,0.32173 z"
         style="stroke-width:0.26458332"
         id="path119"
         inkscape:connector-curvature="0" />
      <path
         d="m 23.013794,243.97922 q -0.206022,0 -0.375355,-0.0677 -0.169334,-0.0677 -0.290689,-0.19756 -0.121356,-0.12982 -0.189089,-0.31891 -0.06491,-0.19191 -0.06491,-0.43744 0,-0.24553 0.07338,-0.43462 0.0762,-0.19191 0.2032,-0.32174 0.127,-0.12982 0.296333,-0.19755 0.169333,-0.0677 0.361244,-0.0677 0.121356,0 0.217311,0.0169 0.09878,0.0169 0.169334,0.0395 0.07338,0.0226 0.118533,0.0452 0.04516,0.0226 0.06209,0.0339 l -0.07902,0.22578 q -0.0254,-0.0169 -0.07338,-0.0367 -0.04798,-0.0198 -0.110067,-0.0395 -0.05927,-0.0198 -0.132644,-0.031 -0.07056,-0.0141 -0.143933,-0.0141 -0.155223,0 -0.2794,0.0536 -0.124178,0.0536 -0.211667,0.15522 -0.08749,0.1016 -0.135467,0.24835 -0.04516,0.14394 -0.04516,0.32456 0,0.17498 0.03951,0.31891 0.04233,0.14393 0.124178,0.24836 0.08184,0.1016 0.2032,0.15804 0.124177,0.0564 0.287866,0.0564 0.189089,0 0.313267,-0.0395 0.124178,-0.0395 0.186267,-0.0705 l 0.07056,0.22578 q -0.01975,0.0141 -0.07056,0.0367 -0.0508,0.0198 -0.127,0.0395 -0.0762,0.0197 -0.1778,0.0339 -0.1016,0.0141 -0.220134,0.0141 z"
         style="stroke-width:0.26458332"
         id="path121"
         inkscape:connector-curvature="0" />
      <path
         d="m 25.277209,241.98109 v 0.23707 h -0.615244 v 1.71873 h -0.273756 v -1.71873 h -0.615244 v -0.23707 z"
         style="stroke-width:0.26458332"
         id="path123"
         inkscape:connector-curvature="0" />
    </g>
    <g
       aria-label="-"
       style="font-style:normal;font-variant:normal;font-weight:normal;font-stretch:normal;font-size:2.82222223px;line-height:1.25;font-family:Ubuntu;-inkscape-font-specification:Ubuntu;letter-spacing:0px;word-spacing:0px;fill:#000000;fill-opacity:1;stroke:none;stroke-width:0.26458332"
       id="text128"
       transform="translate(76.100163,1.5254274)">
      <path
         d="m -57.978163,217.58958 h 0.697089 v 0.24553 h -0.697089 z"
         style="stroke-width:0.26458332"
         id="path137"
         inkscape:connector-curvature="0" />
    </g>
    <g
       aria-label="+"
       style="font-style:normal;font-variant:normal;font-weight:normal;font-stretch:normal;font-size:2.82222223px;line-height:1.25;font-family:Ubuntu;-inkscape-font-specification:Ubuntu;letter-spacing:0px;word-spacing:0px;fill:#000000;fill-opacity:1;stroke:none;stroke-width:0.26458332"
       id="text132"
       transform="translate(70.700249,-2.4004626)">
      <path
         d="m -46.874249,221.55419 h 0.5334 v -0.58138 h 0.225778 v 0.58138 h 0.5334 v 0.22296 h -0.5334 v 0.5842 h -0.225778 v -0.5842 h -0.5334 z"
         style="stroke-width:0.26458332"
         id="path134"
         inkscape:connector-curvature="0" />
    </g>
    <path
       style="fill:none;stroke:#000000;stroke-width:0.23745142px;stroke-linecap:butt;stroke-linejoin:miter;stroke-opacity:1"
       d="m 21.673234,234.77522 0.02696,-10.1275"
       id="path140"
       inkscape:connector-curvature="0"
       sodipodi:nodetypes="cc" />
    <g
       transform="translate(63.300163,1.5254274)"
       id="g144"
       style="font-style:normal;font-variant:normal;font-weight:normal;font-stretch:normal;font-size:2.82222223px;line-height:1.25;font-family:Ubuntu;-inkscape-font-specification:Ubuntu;letter-spacing:0px;word-spacing:0px;fill:#000000;fill-opacity:1;stroke:none;stroke-width:0.26458332"
       aria-label="-">
      <path
         inkscape:connector-curvature="0"
         id="path142"
         style="stroke-width:0.26458332"
         d="m -57.978163,217.58958 h 0.697089 v 0.24553 h -0.697089 z" />
    </g>
    <g
       transform="translate(57.900249,-2.4004626)"
       id="g148"
       style="font-style:normal;font-variant:normal;font-weight:normal;font-stretch:normal;font-size:2.82222223px;line-height:1.25;font-family:Ubuntu;-inkscape-font-specification:Ubuntu;letter-spacing:0px;word-spacing:0px;fill:#000000;fill-opacity:1;stroke:none;stroke-width:0.26458332"
       aria-label="+">
      <path
         inkscape:connector-curvature="0"
         id="path146"
         style="stroke-width:0.26458332"
         d="m -46.874249,221.55419 h 0.5334 v -0.58138 h 0.225778 v 0.58138 h 0.5334 v 0.22296 h -0.5334 v 0.5842 h -0.225778 v -0.5842 h -0.5334 z" />
    </g>
    <path
       sodipodi:nodetypes="cc"
       inkscape:connector-curvature="0"
       id="path150"
       d="m 8.8732361,234.77526 0.02696,-10.12759"
       style="fill:none;stroke:#000000;stroke-width:0.23742513px;stroke-linecap:butt;stroke-linejoin:miter;stroke-opacity:1" />
  </g>
  <g
     inkscape:groupmode="layer"
     id="layer2"
     inkscape:label="components"
     style="display:none">
    <circle
       style="fill:#00ff00;fill-opacity:1;stroke-width:0.26458332"
       id="path3761"
       cx="8.9599981"
       cy="104.69993"
       r="5.0799999"
       inkscape:label="input" />
    <circle
       style="fill:#0000ff;fill-opacity:1;stroke-width:0.26458332"
       id="path3763"
       cx="21.680971"
       cy="104.69993"
       r="5.0799999"
       inkscape:label="output" />
    <rect
       style="fill:#ff0000;fill-rule:evenodd;stroke-width:0.26458332"
       id="rect4088"
       width="10.16"
       height="10.16"
       x="3.880003"
       y="84.379913"
       inkscape:label="gain" />
    <rect
       inkscape:label="reso"
       y="26.960009"
       x="10.24"
       height="10.16"
       width="10.16"
       id="rect4092"
       style="fill:#ff0000;fill-rule:evenodd;stroke-width:0.26458332" />
    <rect
       style="fill:#000000;fill-rule:evenodd;stroke-width:0.26458332"
       id="rect4124"
       width="10.16"
       height="10.16"
       x="10.240001"
       y="9.9399729"
       inkscape:label="freq" />
    <circle
       inkscape:label="lincv"
       r="5.0799999"
       cy="68.220016"
       cx="8.9599981"
       id="circle4126"
       style="fill:#00ff00;fill-opacity:1;stroke-width:0.26458332" />
    <circle
       style="fill:#00ff00;fill-opacity:1;stroke-width:0.26458332"
       id="circle82"
       cx="21.681419"
       cy="68.220016"
       r="5.0799999"
       inkscape:label="expcv" />
  </g>
</svg>
