<?xml version="1.0" encoding="UTF-8" standalone="no"?>
<!-- Created with Inkscape (http://www.inkscape.org/) -->

<svg
   xmlns:dc="http://purl.org/dc/elements/1.1/"
   xmlns:cc="http://creativecommons.org/ns#"
   xmlns:rdf="http://www.w3.org/1999/02/22-rdf-syntax-ns#"
   xmlns:svg="http://www.w3.org/2000/svg"
   xmlns="http://www.w3.org/2000/svg"
   xmlns:sodipodi="http://sodipodi.sourceforge.net/DTD/sodipodi-0.dtd"
   xmlns:inkscape="http://www.inkscape.org/namespaces/inkscape"
   width="30.48mm"
   height="128.5mm"
   viewBox="0 0 30.48 128.5"
   version="1.1"
   id="svg8"
   inkscape:version="0.92.4 5da689c313, 2019-01-14"
   sodipodi:docname="TRG.svg">
  <defs
     id="defs2" />
  <sodipodi:namedview
     id="base"
     pagecolor="#ffffff"
     bordercolor="#666666"
     borderopacity="1.0"
     inkscape:pageopacity="0.0"
     inkscape:pageshadow="2"
     inkscape:zoom="1.4142136"
     inkscape:cx="25.320768"
     inkscape:cy="19.177644"
     inkscape:document-units="mm"
     inkscape:current-layer="layer1"
     showgrid="true"
     inkscape:snap-global="true"
     inkscape:window-width="1366"
     inkscape:window-height="750"
     inkscape:window-x="0"
     inkscape:window-y="18"
     inkscape:window-maximized="0"
     inkscape:snap-object-midpoints="true"
     inkscape:snap-others="true"
     inkscape:snap-bbox="true"
     inkscape:snap-bbox-midpoints="true">
    <inkscape:grid
       type="xygrid"
       id="grid10"
       units="mm"
       spacingx="5.0800001"
       spacingy="5.0800001"
       originx="2.7755576e-17"
       originy="1.4"
       dotted="false"
       empspacing="4" />
  </sodipodi:namedview>
  <metadata
     id="metadata5">
    <rdf:RDF>
      <cc:Work
         rdf:about="">
        <dc:format>image/svg+xml</dc:format>
        <dc:type
           rdf:resource="http://purl.org/dc/dcmitype/StillImage" />
        <dc:title></dc:title>
      </cc:Work>
    </rdf:RDF>
  </metadata>
  <g
     inkscape:label="Layer 1"
     inkscape:groupmode="layer"
     id="layer1"
     transform="translate(0,-168.5)"
     style="display:inline">
    <rect
       style="fill:#e6e6e6;fill-rule:evenodd;stroke-width:0.72411269"
       id="rect284"
       width="30.139999"
       height="128.2632"
       x="0.2"
       y="168.80023" />
    <text
       xml:space="preserve"
       style="font-style:normal;font-variant:normal;font-weight:normal;font-stretch:normal;font-size:5.64444447px;line-height:1.25;font-family:'alarm clock';-inkscape-font-specification:'alarm clock';letter-spacing:0px;word-spacing:0px;fill:#000000;fill-opacity:1;stroke:none;stroke-width:0.26458332"
       x="-66.469711"
       y="158.17523"
       id="text3721"><tspan
         sodipodi:role="line"
         id="tspan3719"
         x="-66.469711"
         y="163.27023"
         style="font-style:normal;font-variant:normal;font-weight:normal;font-stretch:normal;font-family:'alarm clock';-inkscape-font-specification:'alarm clock';stroke-width:0.26458332" /></text>
    <text
       xml:space="preserve"
       style="font-style:normal;font-variant:normal;font-weight:normal;font-stretch:normal;font-size:5.64444447px;line-height:1.25;font-family:'alarm clock';-inkscape-font-specification:'alarm clock';letter-spacing:0px;word-spacing:0px;fill:#000000;fill-opacity:1;stroke:none;stroke-width:0.26458332"
       x="-90.703468"
       y="188.98671"
       id="text3725"><tspan
         sodipodi:role="line"
         id="tspan3723"
         x="-90.703468"
         y="194.08171"
         style="font-style:normal;font-variant:normal;font-weight:normal;font-stretch:normal;font-family:'alarm clock';-inkscape-font-specification:'alarm clock';stroke-width:0.26458332" /></text>
    <text
       xml:space="preserve"
       style="font-style:normal;font-variant:normal;font-weight:normal;font-stretch:normal;font-size:5.64444447px;line-height:1.25;font-family:LCD2;-inkscape-font-specification:LCD2;letter-spacing:0px;word-spacing:0px;fill:#000000;fill-opacity:1;stroke:none;stroke-width:0.26458332"
       x="-90.357269"
       y="179.29321"
       id="text3729"><tspan
         sodipodi:role="line"
         id="tspan3727"
         x="-90.357269"
         y="184.5546"
         style="font-style:normal;font-variant:normal;font-weight:normal;font-stretch:normal;font-family:LCD2;-inkscape-font-specification:LCD2;stroke-width:0.26458332" /></text>
    <g
       aria-label="kocmoc"
       style="font-style:normal;font-variant:normal;font-weight:normal;font-stretch:normal;font-size:5.64444447px;line-height:1.25;font-family:LCD2;-inkscape-font-specification:LCD2;letter-spacing:0px;word-spacing:0px;fill:#000000;fill-opacity:1;stroke:none;stroke-width:0.26458332"
       id="text3737"
       transform="translate(-4.768,-3.32601)">
      <path
         d="m 14.992489,290.64292 -1.241777,1.81187 h -0.208845 l -0.141111,-0.16933 1.399822,-2.032 h 0.248356 z m -2.263422,1.5748 -0.265289,0.23707 h -0.186266 l 0.276577,-1.9812 0.242711,-0.20884 0.180623,0.20884 z m 0.699911,0.29351 -0.242711,0.20885 h -0.445911 l -0.186267,-0.20885 0.242711,-0.20884 h 0.451556 z m 0.987778,2.25778 H 14.1684 l -0.829733,-2.032 0.186267,-0.16933 h 0.208844 l 0.733778,1.81187 z m -2.015067,-0.22013 -0.237066,0.20884 -0.180623,-0.20884 0.276578,-1.9812 h 0.186267 l 0.2032,0.23707 z"
         style="stroke-width:0.26458332"
         id="path3897"
         inkscape:connector-curvature="0" />
      <path
         d="m 15.319861,294.26666 -0.242711,0.20884 -0.180623,-0.20884 0.237067,-1.69898 h 0.186267 l 0.2032,0.23707 z m 0.282222,-2.04894 -0.265289,0.23707 h -0.186267 l 0.237067,-1.69898 0.242711,-0.20884 0.180622,0.20884 z m 2.026356,-1.75542 -0.242712,0.21449 h -1.478844 l -0.180622,-0.21449 0.237066,-0.20884 h 1.478845 z m 0.01129,1.99249 h -0.186266 l -0.2032,-0.23707 0.208844,-1.46191 0.237067,-0.20884 0.180622,0.20884 z m -0.254,1.81187 -0.242711,0.20884 -0.180622,-0.20884 0.208845,-1.46191 0.265288,-0.23707 h 0.186267 z m -0.333022,0.29351 -0.242711,0.20884 H 15.33115 l -0.180623,-0.20884 0.237067,-0.21449 h 1.484489 z"
         style="stroke-width:0.26458332"
         id="path3899"
         inkscape:connector-curvature="0" />
      <path
         d="m 20.749816,290.98723 -0.242711,0.21449 -0.180622,-0.21449 0.03387,-0.23142 0.237067,-0.20884 0.180622,0.20884 z m -0.220133,-0.52493 -0.242711,0.21449 h -1.478845 l -0.180622,-0.21449 0.237067,-0.20884 h 1.478844 z m -2.026356,1.75542 -0.265289,0.23707 h -0.186266 l 0.237066,-1.69898 0.242711,-0.20884 0.180623,0.20884 z m -0.282222,2.04894 -0.242711,0.20884 -0.180622,-0.20884 0.237066,-1.69898 h 0.186267 l 0.2032,0.23707 z m 1.732844,0.29351 -0.242711,0.20884 h -1.478844 l -0.180622,-0.20884 0.237066,-0.21449 h 1.484489 z m 0.333023,-0.29351 -0.242712,0.20884 -0.180622,-0.20884 0.03387,-0.23143 0.242711,-0.21448 0.180622,0.21448 z"
         style="stroke-width:0.26458332"
         id="path3901"
         inkscape:connector-curvature="0" />
      <path
         d="m 23.453505,292.44915 h -0.186267 l -0.2032,-0.23143 0.248356,-1.75542 0.242711,-0.20884 0.180622,0.20884 z m -0.417689,-0.86925 -0.598311,0.87489 h -0.174978 l 0.06773,-0.48542 0.8128,-1.21356 h 0.01129 z m -0.891822,0.87489 h -0.174978 l -0.3556,-0.87489 0.112889,-0.82409 h 0.01129 l 0.474133,1.21356 z m -0.733778,-0.23707 -0.270933,0.23143 h -0.186267 l 0.282222,-1.98685 0.237067,-0.20884 0.186267,0.20884 z m 1.749778,2.34245 -0.242711,0.20884 -0.180622,-0.20884 0.248355,-1.75542 0.265289,-0.23143 h 0.186267 z m -2.077156,0 -0.242711,0.20884 -0.180622,-0.20884 0.276578,-1.98685 h 0.186267 l 0.2032,0.23143 z"
         style="stroke-width:0.26458332"
         id="path3903"
         inkscape:connector-curvature="0" />
      <path
         d="m 24.040517,294.26666 -0.242711,0.20884 -0.180623,-0.20884 0.237067,-1.69898 h 0.186267 l 0.2032,0.23707 z m 0.282222,-2.04894 -0.265289,0.23707 h -0.186267 l 0.237067,-1.69898 0.242711,-0.20884 0.180622,0.20884 z m 2.026355,-1.75542 -0.242711,0.21449 h -1.478844 l -0.180622,-0.21449 0.237066,-0.20884 h 1.478845 z m 0.01129,1.99249 h -0.186266 l -0.2032,-0.23707 0.208844,-1.46191 0.237067,-0.20884 0.180622,0.20884 z m -0.254,1.81187 -0.242711,0.20884 -0.180622,-0.20884 0.208844,-1.46191 0.265289,-0.23707 h 0.186267 z m -0.333022,0.29351 -0.242711,0.20884 h -1.478844 l -0.180623,-0.20884 0.237067,-0.21449 h 1.484489 z"
         style="stroke-width:0.26458332"
         id="path3905"
         inkscape:connector-curvature="0" />
      <path
         d="m 29.470473,290.98723 -0.242711,0.21449 -0.180622,-0.21449 0.03387,-0.23142 0.237067,-0.20884 0.180622,0.20884 z m -0.220133,-0.52493 -0.242712,0.21449 h -1.478844 l -0.180622,-0.21449 0.237066,-0.20884 h 1.478845 z m -2.026356,1.75542 -0.265289,0.23707 h -0.186267 l 0.237067,-1.69898 0.242711,-0.20884 0.180622,0.20884 z m -0.282222,2.04894 -0.242711,0.20884 -0.180623,-0.20884 0.237067,-1.69898 h 0.186267 l 0.2032,0.23707 z m 1.732844,0.29351 -0.242711,0.20884 h -1.478844 l -0.180623,-0.20884 0.237067,-0.21449 h 1.484489 z m 0.333022,-0.29351 -0.242711,0.20884 -0.180622,-0.20884 0.03387,-0.23143 0.242711,-0.21448 0.180622,0.21448 z"
         style="stroke-width:0.26458332"
         id="path3907"
         inkscape:connector-curvature="0" />
    </g>
    <g
       aria-label="TRG"
       style="font-style:normal;font-variant:normal;font-weight:normal;font-stretch:normal;font-size:5.64444447px;line-height:1.25;font-family:LCD2;-inkscape-font-specification:LCD2;letter-spacing:0px;word-spacing:0px;fill:#000000;fill-opacity:1;stroke:none;stroke-width:0.26458332"
       id="text294"
       transform="translate(5.199785,1.00038)">
      <path
         d="M 8.7199483,174.45591 8.4772372,174.6704 H 7.8055483 L 7.5571927,174.37689 7.2241705,174.6704 H 6.5468372 l -0.1806222,-0.21449 0.2427111,-0.20885 h 1.9304 z m -1.2135556,1.75542 -0.2427111,0.20884 -0.1806222,-0.20884 0.2032,-1.46191 0.2427111,-0.20885 0.1806222,0.20885 z m -0.3273777,2.33116 -0.2427111,0.20884 -0.1806223,-0.20884 0.2427111,-1.74414 0.2427112,-0.20884 0.1806222,0.20884 z"
         style="stroke-width:0.26458332"
         id="path296"
         inkscape:connector-curvature="0" />
      <path
         d="m 11.389769,176.21133 -0.237067,0.20884 -0.180622,-0.20884 0.2032,-1.46191 0.242711,-0.20885 0.180623,0.20885 z m -0.04515,-1.75542 -0.242712,0.21449 H 9.6174136 l -0.3612445,-0.42334 h 1.9078219 z m -2.026356,1.75542 -0.2709333,0.23707 H 8.861058 l 0.2991556,-2.11667 0.3612444,0.41769 z m 1.738489,0.29351 -0.242711,0.20885 H 9.3295469 L 9.1489247,176.50484 9.3859914,176.296 h 1.4901336 z m -0.02258,2.25778 H 10.66728 l -1.3546664,-1.69898 0.033867,-0.23142 h 0.3499555 l 1.3659549,1.72155 z m -2.0545776,-0.22013 -0.2370667,0.20884 -0.1806222,-0.20884 0.2765777,-1.9812 h 0.1862667 l 0.2032,0.23706 z"
         style="stroke-width:0.26458332"
         id="path298"
         inkscape:connector-curvature="0" />
      <path
         d="m 14.251493,174.45591 -0.242711,0.21449 h -1.478845 l -0.180622,-0.21449 0.237067,-0.20885 h 1.478844 z m -2.026356,1.75542 -0.265288,0.23707 h -0.186267 l 0.237067,-1.69898 0.242711,-0.20885 0.180622,0.20885 z m -0.282222,2.04893 -0.242711,0.20885 -0.180622,-0.20885 0.237067,-1.69897 h 0.186266 l 0.2032,0.23706 z m 1.732845,0.29351 -0.242711,0.20885 h -1.478845 l -0.180622,-0.20885 0.237067,-0.21448 h 1.484488 z m 0.333022,-0.29351 -0.242711,0.20885 -0.180622,-0.20885 0.208844,-1.46191 0.479778,-0.41769 z m 0.191911,-1.96426 -0.479778,0.41769 H 13.26936 l -0.180623,-0.20885 0.242712,-0.20884 z"
         style="stroke-width:0.26458332"
         id="path300"
         inkscape:connector-curvature="0" />
    </g>
    <g
       transform="translate(-0.9004697,169.1)"
       aria-label="CLK"
       style="font-style:normal;font-variant:normal;font-weight:normal;font-stretch:normal;font-size:2.82222223px;line-height:1.25;font-family:Ubuntu;-inkscape-font-specification:Ubuntu;letter-spacing:0px;word-spacing:0px;display:inline;fill:#000000;fill-opacity:1;stroke:none;stroke-width:0.26458332"
       id="text401">
      <path
         d="m 8.675514,15.562 q -0.2060222,0 -0.3753556,-0.06773 Q 8.1308251,15.426533 8.0094696,15.296711 7.888114,15.166889 7.8203807,14.9778 q -0.064911,-0.191911 -0.064911,-0.437444 0,-0.245534 0.073378,-0.434623 0.0762,-0.191911 0.2032,-0.321733 0.127,-0.129822 0.2963334,-0.197556 0.1693333,-0.06773 0.3612444,-0.06773 0.1213556,0 0.2173111,0.01693 0.098778,0.01693 0.1693334,0.03951 0.073378,0.02258 0.1185333,0.04515 0.045156,0.02258 0.062089,0.03387 l -0.079022,0.225778 q -0.0254,-0.01693 -0.073378,-0.03669 Q 9.056514,13.823511 8.9944251,13.803756 8.9351584,13.784 8.8617807,13.772711 8.7912251,13.7586 8.7178473,13.7586 q -0.1552222,0 -0.2794,0.05362 -0.1241777,0.05362 -0.2116666,0.155222 -0.087489,0.1016 -0.1354667,0.248356 -0.045156,0.143933 -0.045156,0.324556 0,0.174977 0.039511,0.318911 0.042333,0.143933 0.1241777,0.248355 0.081845,0.1016 0.2032,0.158045 0.1241778,0.05644 0.2878667,0.05644 0.1890889,0 0.3132667,-0.03951 0.1241777,-0.03951 0.1862666,-0.07056 l 0.070556,0.225778 q -0.019756,0.01411 -0.070556,0.03669 -0.0508,0.01976 -0.127,0.03951 -0.0762,0.01976 -0.1778,0.03387 -0.1016,0.01411 -0.2201333,0.01411 z"
         style="stroke-width:0.26458332"
         id="path403"
         inkscape:connector-curvature="0" />
      <path
         d="m 10.761133,15.2826 v 0.237067 H 9.5842666 v -1.9558 H 9.8580221 V 15.2826 Z"
         style="stroke-width:0.26458332"
         id="path405"
         inkscape:connector-curvature="0" />
      <path
         d="m 12.496797,13.563867 q -0.08749,0.09596 -0.197555,0.214489 -0.110067,0.115711 -0.231422,0.239888 -0.118534,0.121356 -0.237067,0.239889 -0.118533,0.118534 -0.222956,0.220134 0.121356,0.08467 0.256823,0.208844 0.135466,0.124178 0.265289,0.265289 0.129822,0.141111 0.242711,0.287867 0.115711,0.146755 0.191911,0.2794 h -0.321734 q -0.08467,-0.132645 -0.194733,-0.265289 -0.110067,-0.135467 -0.234244,-0.256822 -0.121356,-0.124178 -0.248356,-0.2286 -0.124178,-0.104423 -0.242711,-0.1778 v 0.928511 h -0.273756 v -1.9558 h 0.273756 v 0.8636 q 0.09878,-0.09313 0.217311,-0.208845 0.118533,-0.118533 0.234245,-0.237066 0.115711,-0.118534 0.217311,-0.225778 0.104422,-0.110067 0.174977,-0.191911 z"
         style="stroke-width:0.26458332"
         id="path407"
         inkscape:connector-curvature="0" />
    </g>
    <rect
       style="fill:#000000;fill-rule:evenodd;stroke-width:0.26458332"
       id="rect438"
       width="10.16"
       height="15.240001"
       x="3.8800001"
       y="269.35999"
       rx="1.6" />
    <g
       aria-label="GATE"
       style="font-style:normal;font-variant:normal;font-weight:normal;font-stretch:normal;font-size:2.82222223px;line-height:1.25;font-family:Ubuntu;-inkscape-font-specification:Ubuntu;letter-spacing:0px;word-spacing:0px;display:inline;fill:#ffffff;fill-opacity:1;stroke:none;stroke-width:0.26458332"
       id="text412"
       transform="translate(-1.1995187)">
      <path
         d="m 8.1703411,272.1181 h 0.2737555 v 0.9144 q -0.033867,0.0113 -0.098778,0.0254 -0.062089,0.0141 -0.1467556,0.0282 -0.081844,0.0141 -0.1806222,0.0226 -0.098778,0.0113 -0.2003778,0.0113 -0.2060222,0 -0.3753555,-0.0677 -0.1693334,-0.0677 -0.2906889,-0.19755 -0.1213556,-0.12983 -0.1890889,-0.31891 -0.064911,-0.18909 -0.064911,-0.43463 0,-0.24553 0.073378,-0.43462 0.0762,-0.19191 0.2032,-0.32173 0.127,-0.12982 0.2963334,-0.19756 0.1721555,-0.0677 0.3668889,-0.0677 0.1326444,0 0.2342444,0.0169 0.1044222,0.0169 0.1778,0.0395 0.073378,0.0226 0.1185333,0.0452 0.047978,0.0226 0.064911,0.0339 l -0.087489,0.2286 q -0.081845,-0.0536 -0.2173111,-0.0875 -0.1354667,-0.0367 -0.2765778,-0.0367 -0.1495778,0 -0.2737556,0.0536 -0.1213555,0.0536 -0.2088444,0.15522 -0.084667,0.1016 -0.1326445,0.24836 -0.047978,0.14393 -0.047978,0.32455 0,0.17498 0.039511,0.31891 0.042333,0.14394 0.1241777,0.24836 0.084667,0.1016 0.2060223,0.15804 0.1241777,0.0565 0.2906889,0.0565 0.1185333,0 0.2003777,-0.0113 0.084667,-0.0141 0.1213556,-0.0254 z"
         style="fill:#ffffff;stroke-width:0.26458332"
         id="path429"
         inkscape:connector-curvature="0" />
      <path
         d="m 10.17976,273.08047 q -0.04798,-0.127 -0.09031,-0.24835 -0.04233,-0.12418 -0.08749,-0.25118 H 9.1157827 l -0.1778,0.49953 H 8.6529383 q 0.1128889,-0.31044 0.2116666,-0.57291 0.098778,-0.26529 0.1919111,-0.50235 0.095956,-0.23707 0.1890889,-0.45156 0.093133,-0.21731 0.1947334,-0.42898 H 9.691516 q 0.1016,0.21167 0.1947334,0.42898 0.093133,0.21449 0.1862666,0.45156 0.09596,0.23706 0.194733,0.50235 0.09878,0.26247 0.211667,0.57291 z m -0.2568217,-0.72531 q -0.090311,-0.24553 -0.1806223,-0.47413 -0.087489,-0.23142 -0.1834444,-0.44309 -0.098778,0.21167 -0.1890889,0.44309 -0.087489,0.2286 -0.1749778,0.47413 z"
         style="fill:#ffffff;stroke-width:0.26458332"
         id="path431"
         inkscape:connector-curvature="0" />
      <path
         d="m 11.870263,271.12467 v 0.23707 h -0.615244 v 1.71873 h -0.273756 v -1.71873 h -0.615244 v -0.23707 z"
         style="fill:#ffffff;stroke-width:0.26458332"
         id="path433"
         inkscape:connector-curvature="0" />
      <path
         d="m 12.158126,273.08047 v -1.9558 h 1.1938 v 0.23425 h -0.920044 v 0.58138 h 0.818444 v 0.2286 h -0.818444 v 0.67733 h 0.9906 v 0.23424 z"
         style="fill:#ffffff;stroke-width:0.26458332"
         id="path435"
         inkscape:connector-curvature="0" />
    </g>
    <g
       aria-label="RST"
       style="font-style:normal;font-variant:normal;font-weight:normal;font-stretch:normal;font-size:2.82222223px;line-height:1.25;font-family:Ubuntu;-inkscape-font-specification:Ubuntu;letter-spacing:0px;word-spacing:0px;fill:#000000;fill-opacity:1;stroke:none;stroke-width:0.26458332"
       id="text444"
       transform="translate(-8.300357,-0.19965)">
      <path
         d="m 29.145091,184.00086 q 0.04515,0.0565 0.112889,0.14958 0.07055,0.0903 0.143933,0.2032 0.07338,0.11007 0.143933,0.23142 0.07338,0.12136 0.124178,0.23425 h -0.299155 q -0.05645,-0.10725 -0.124178,-0.21732 -0.06491,-0.11006 -0.132645,-0.20884 -0.06773,-0.1016 -0.135466,-0.18909 -0.06491,-0.0875 -0.118534,-0.1524 -0.03669,0.003 -0.0762,0.003 -0.03669,0 -0.0762,0 h -0.245533 v 0.76483 h -0.273756 v -1.92758 q 0.115712,-0.0282 0.256823,-0.0367 0.143933,-0.0113 0.262466,-0.0113 0.412045,0 0.626534,0.15522 0.217311,0.15522 0.217311,0.46285 0,0.19473 -0.104422,0.33302 -0.1016,0.13829 -0.301978,0.20602 z m -0.414867,-0.91722 q -0.174978,0 -0.268111,0.008 v 0.7366 h 0.194733 q 0.141111,0 0.254,-0.0141 0.112889,-0.0141 0.189089,-0.0536 0.07902,-0.0395 0.121356,-0.11006 0.04233,-0.0734 0.04233,-0.19192 0,-0.11006 -0.04233,-0.18344 -0.04233,-0.0734 -0.115711,-0.11571 -0.07056,-0.0423 -0.169334,-0.0593 -0.09596,-0.0169 -0.206022,-0.0169 z"
         style="stroke-width:0.26458332"
         id="path446"
         inkscape:connector-curvature="0" />
      <path
         d="m 30.417912,184.62457 q 0.428978,0 0.428978,-0.29351 0,-0.0903 -0.03951,-0.1524 -0.03669,-0.0649 -0.1016,-0.11007 -0.06491,-0.048 -0.149578,-0.0818 -0.08184,-0.0339 -0.174978,-0.0677 -0.107244,-0.0367 -0.2032,-0.0819 -0.09596,-0.048 -0.166511,-0.11006 -0.07055,-0.0649 -0.112889,-0.1524 -0.03951,-0.0875 -0.03951,-0.21167 0,-0.25682 0.174978,-0.40076 0.174978,-0.14393 0.4826,-0.14393 0.1778,0 0.321733,0.0395 0.146756,0.0367 0.214489,0.0819 l -0.08749,0.22295 q -0.05927,-0.0367 -0.1778,-0.0705 -0.115711,-0.0367 -0.270933,-0.0367 -0.07902,0 -0.146756,0.0169 -0.06773,0.0169 -0.118533,0.0508 -0.0508,0.0339 -0.08184,0.0875 -0.02822,0.0508 -0.02822,0.12135 0,0.079 0.03104,0.13265 0.03104,0.0536 0.08749,0.0959 0.05644,0.0395 0.129822,0.0734 0.0762,0.0339 0.166511,0.0677 0.127,0.0508 0.231422,0.1016 0.107245,0.0508 0.183445,0.12135 0.07902,0.0706 0.121355,0.16933 0.04233,0.096 0.04233,0.23425 0,0.25682 -0.189089,0.39511 -0.186267,0.13829 -0.527756,0.13829 -0.115711,0 -0.214489,-0.0169 -0.09596,-0.0141 -0.172155,-0.0339 -0.0762,-0.0226 -0.132645,-0.0452 -0.05362,-0.0254 -0.08467,-0.0423 l 0.08184,-0.22578 q 0.06491,0.0367 0.197556,0.0819 0.132644,0.0452 0.324555,0.0452 z"
         style="stroke-width:0.26458332"
         id="path448"
         inkscape:connector-curvature="0" />
      <path
         d="m 32.771644,182.86351 v 0.23706 H 32.1564 v 1.71874 h -0.273756 v -1.71874 H 31.2674 v -0.23706 z"
         style="stroke-width:0.26458332"
         id="path450"
         inkscape:connector-curvature="0" />
    </g>
    <g
       aria-label="LEN"
       style="font-style:normal;font-variant:normal;font-weight:normal;font-stretch:normal;font-size:2.82222223px;line-height:1.25;font-family:Ubuntu;-inkscape-font-specification:Ubuntu;letter-spacing:0px;word-spacing:0px;display:inline;fill:#000000;fill-opacity:1;stroke:none;stroke-width:0.26458332"
       id="text538"
       transform="translate(-0.399999)">
      <path
         d="M 21.273866,272.88293 V 273.12 h -1.176867 v -1.9558 h 0.273756 v 1.71873 z"
         style="stroke-width:0.26458332"
         id="path542"
         inkscape:connector-curvature="0" />
      <path
         d="m 21.56173,273.12 v -1.9558 h 1.1938 v 0.23424 h -0.920044 v 0.58138 h 0.818444 v 0.2286 h -0.818444 v 0.67733 h 0.9906 V 273.12 Z"
         style="stroke-width:0.26458332"
         id="path544"
         inkscape:connector-curvature="0" />
      <path
         d="m 24.513772,273.12 q -0.06209,-0.10443 -0.143933,-0.23425 -0.07902,-0.12982 -0.172156,-0.26811 -0.09313,-0.14111 -0.194733,-0.28504 -0.09878,-0.14394 -0.197556,-0.27658 -0.09878,-0.13547 -0.191911,-0.254 -0.09313,-0.11854 -0.172156,-0.20885 V 273.12 h -0.268111 v -1.9558 h 0.217311 q 0.132645,0.14111 0.282223,0.3302 0.1524,0.18626 0.299155,0.38664 0.149578,0.19756 0.2794,0.38947 0.132645,0.19191 0.222956,0.34149 v -1.4478 h 0.268111 v 1.9558 z"
         style="stroke-width:0.26458332"
         id="path546"
         inkscape:connector-curvature="0" />
    </g>
  </g>
  <g
     inkscape:groupmode="layer"
     id="layer2"
     inkscape:label="components"
     style="display:none">
    <circle
       style="fill:#00ff00;fill-opacity:1;stroke-width:0.26458332"
       id="path389"
       cx="8.96"
       cy="21.92"
       r="5.0799999"
       inkscape:label="CLK" />
    <circle
       style="fill:#0000ff;fill-opacity:1;stroke-width:0.26458332"
       id="path391"
       cx="8.96"
       cy="110.68"
       r="5.0799999"
       inkscape:label="GATE" />
    <circle
       inkscape:label="RST"
       r="5.0799999"
       cy="21.92"
       cx="21.879999"
       id="circle440"
       style="fill:#00ff00;fill-opacity:1;stroke-width:0.26458332" />
    <rect
       style="display:inline;fill:#ff0000;fill-rule:evenodd;stroke-width:0.26458332"
       id="rect533"
       width="10.16"
       height="10.16"
       x="16.799999"
       y="105.6"
       inkscape:label="LEN" />
  </g>
</svg>
